<?xml version="1.0" standalone="no"?><!DOCTYPE svg PUBLIC "-//W3C//DTD SVG 1.1//EN" "http://www.w3.org/Graphics/SVG/1.1/DTD/svg11.dtd"><svg height="1024" node-id="1" sillyvg="true" template-height="1024" template-width="1024" version="1.1" viewBox="0 0 1024 1024" width="1024" xmlns="http://www.w3.org/2000/svg" xmlns:xlink="http://www.w3.org/1999/xlink"><defs node-id="892"></defs><g node-id="992"><g node-id="993"><path d="M 837.00 132.46 L 826.08 132.46 L 826.08 121.54 C 826.08 119.48 824.41 117.82 822.36 117.82 C 820.30 117.82 818.64 119.49 818.64 121.54 L 818.64 132.46 L 807.73 132.46 C 805.67 132.46 804.01 134.13 804.01 136.18 C 804.01 138.23 805.68 139.90 807.73 139.90 L 818.64 139.90 L 818.64 150.81 C 818.64 152.87 820.31 154.53 822.36 154.53 C 824.42 154.53 826.08 152.86 826.08 150.81 L 826.08 139.90 L 837.00 139.90 C 839.06 139.90 840.72 138.23 840.72 136.18 C 840.72 134.13 839.05 132.46 837.00 132.46 Z" fill="#e55b48" fill-rule="nonzero" group-id="1,2" node-id="899" stroke="none" target-height="36.71" target-width="36.70996" target-x="804.01" target-y="117.82"></path></g><g node-id="994"><path d="M 892.58 267.98 L 889.20 271.36 L 885.82 267.98 C 885.18 267.34 884.15 267.34 883.51 267.98 C 882.87 268.62 882.87 269.65 883.51 270.29 L 886.89 273.67 L 883.51 277.05 C 882.87 277.69 882.87 278.72 883.51 279.36 C 884.15 280.00 885.18 280.00 885.82 279.36 L 889.20 275.98 L 892.58 279.36 C 893.22 280.00 894.25 280.00 894.89 279.36 C 895.53 278.72 895.53 277.69 894.89 277.05 L 891.51 273.67 L 894.89 270.29 C 895.53 269.65 895.53 268.62 894.89 267.98 C 894.25 267.35 893.22 267.35 892.58 267.98 Z" fill="#e55b48" fill-rule="nonzero" group-id="1,3" node-id="904" stroke="none" target-height="12.660004" target-width="12.659973" target-x="882.87006" target-y="267.34"></path></g><g node-id="995"><path d="M 931.95 181.62 L 926.46 176.13 L 931.95 170.64 C 932.98 169.61 932.98 167.93 931.95 166.90 C 930.92 165.87 929.24 165.87 928.21 166.90 L 922.72 172.39 L 917.23 166.90 C 916.20 165.87 914.52 165.87 913.49 166.90 C 912.46 167.93 912.46 169.61 913.49 170.64 L 918.98 176.13 L 913.49 181.62 C 912.46 182.65 912.46 184.33 913.49 185.36 C 914.52 186.39 916.20 186.39 917.23 185.36 L 922.72 179.87 L 928.21 185.36 C 929.24 186.39 930.92 186.39 931.95 185.36 C 932.99 184.32 932.99 182.65 931.95 181.62 Z" fill="#60c46c" fill-rule="nonzero" group-id="1,4" node-id="909" stroke="none" target-height="20.520004" target-width="20.529968" target-x="912.46" target-y="165.87"></path></g><g node-id="996"><path d="M 796.15 232.41 L 792.06 232.41 L 792.06 228.32 C 792.06 227.55 791.43 226.92 790.66 226.92 C 789.89 226.92 789.26 227.55 789.26 228.32 L 789.26 232.41 L 785.17 232.41 C 784.40 232.41 783.77 233.04 783.77 233.81 C 783.77 234.58 784.40 235.21 785.17 235.21 L 789.26 235.21 L 789.26 239.30 C 789.26 240.07 789.89 240.70 790.66 240.70 C 791.43 240.70 792.06 240.07 792.06 239.30 L 792.06 235.21 L 796.15 235.21 C 796.92 235.21 797.55 234.58 797.55 233.81 C 797.54 233.04 796.92 232.41 796.15 232.41 Z" fill="#46bcfc" fill-rule="nonzero" group-id="1,5" node-id="914" stroke="none" target-height="13.780014" target-width="13.780029" target-x="783.77" target-y="226.92"></path></g><g node-id="997"><path d="M 700.21 75.10 C 700.21 73.46 698.88 72.13 697.24 72.13 L 688.71 72.13 L 696.09 67.87 C 697.51 67.05 698.00 65.23 697.18 63.81 C 696.36 62.38 694.54 61.90 693.12 62.72 L 685.74 66.98 L 690.00 59.60 C 690.82 58.18 690.33 56.36 688.91 55.54 C 687.49 54.72 685.67 55.20 684.85 56.63 L 680.59 64.01 L 680.59 55.49 C 680.59 53.85 679.26 52.52 677.62 52.52 C 675.98 52.52 674.65 53.85 674.65 55.49 L 674.65 64.02 L 670.39 56.64 C 669.57 55.21 667.75 54.73 666.33 55.55 C 664.91 56.37 664.42 58.19 665.24 59.61 L 669.50 66.99 L 662.12 62.73 C 660.70 61.91 658.88 62.39 658.06 63.82 C 657.24 65.24 657.73 67.06 659.15 67.88 L 666.53 72.14 L 658.00 72.14 C 656.36 72.14 655.03 73.47 655.03 75.11 C 655.03 76.75 656.36 78.08 658.00 78.08 L 666.52 78.08 L 659.14 82.34 C 657.72 83.16 657.23 84.98 658.05 86.40 C 658.60 87.35 659.60 87.89 660.63 87.89 C 661.14 87.89 661.65 87.76 662.11 87.49 L 669.49 83.23 L 665.23 90.61 C 664.41 92.03 664.90 93.85 666.32 94.67 C 666.79 94.94 667.30 95.07 667.80 95.07 C 668.83 95.07 669.83 94.54 670.38 93.58 L 674.64 86.20 L 674.64 94.73 C 674.64 96.37 675.97 97.70 677.61 97.70 C 679.25 97.70 680.58 96.37 680.58 94.73 L 680.58 86.20 L 684.84 93.58 C 685.39 94.53 686.39 95.07 687.42 95.07 C 687.93 95.07 688.44 94.94 688.90 94.67 C 690.32 93.85 690.81 92.03 689.99 90.61 L 685.73 83.23 L 693.11 87.49 C 693.58 87.76 694.09 87.89 694.59 87.89 C 695.62 87.89 696.62 87.36 697.17 86.40 C 697.99 84.98 697.50 83.16 696.08 82.34 L 688.70 78.08 L 697.22 78.08 C 698.88 78.08 700.21 76.75 700.21 75.10 Z" fill="#e25987" fill-rule="nonzero" group-id="1,6" node-id="919" stroke="none" target-height="45.179993" target-width="45.180054" target-x="655.03" target-y="52.520004"></path></g><g node-id="998"><path d="M 741.24 145.94 L 743.48 152.38 L 750.30 152.52 L 744.86 156.63 L 746.84 163.16 L 741.24 159.26 L 735.65 163.16 L 737.62 156.63 L 732.19 152.52 L 739.01 152.38 Z" fill="#fcaa3d" fill-rule="nonzero" group-id="1,7" node-id="924" stroke="none" target-height="17.220001" target-width="18.109924" target-x="732.19" target-y="145.94"></path></g><g node-id="999"><path d="M 858.47 317.93 L 862.86 330.55 L 876.23 330.82 L 865.57 338.90 L 869.44 351.69 L 858.47 344.06 L 847.50 351.69 L 851.37 338.90 L 840.72 330.82 L 854.08 330.55 Z" fill="#46bcfc" fill-rule="nonzero" group-id="1,8" node-id="929" stroke="none" target-height="33.76001" target-width="35.51001" target-x="840.72" target-y="317.93"></path></g><g node-id="1000"><path d="M 866.42 191.64 C 866.42 193.75 865.58 195.77 864.09 197.26 C 862.60 198.75 860.58 199.59 858.47 199.59 C 856.36 199.59 854.34 198.75 852.85 197.26 C 851.36 195.77 850.52 193.75 850.52 191.64 C 850.52 189.53 851.36 187.51 852.85 186.02 C 854.34 184.53 856.36 183.69 858.47 183.69 C 860.58 183.69 862.60 184.53 864.09 186.02 C 865.58 187.51 866.42 189.53 866.42 191.64 Z" fill="#fcaa3d" fill-rule="nonzero" group-id="1,9" node-id="934" stroke="none" target-height="15.900009" target-width="15.900024" target-x="850.51996" target-y="183.68999"></path></g><g node-id="1001"><path d="M 662.03 145.09 C 662.03 147.98 659.69 150.32 656.80 150.32 C 653.91 150.32 651.57 147.98 651.57 145.09 C 651.57 142.20 653.91 139.86 656.80 139.86 C 659.69 139.86 662.03 142.20 662.03 145.09 Z" fill="#46bcfc" fill-rule="nonzero" group-id="1,10" node-id="939" stroke="none" target-height="10.459991" target-width="10.459961" target-x="651.57" target-y="139.86"></path></g><g node-id="1002"><path d="M 229.81 963.19 L 240.69 958.22 L 245.66 969.10 C 246.60 971.15 249.02 972.05 251.07 971.12 C 253.12 970.18 254.02 967.76 253.09 965.71 L 248.12 954.83 L 259.00 949.86 C 261.05 948.92 261.95 946.50 261.02 944.45 C 260.09 942.40 257.66 941.50 255.61 942.43 L 244.73 947.40 L 239.76 936.52 C 238.82 934.47 236.40 933.57 234.35 934.50 C 232.30 935.44 231.40 937.86 232.33 939.91 L 237.30 950.79 L 226.42 955.76 C 224.37 956.70 223.47 959.12 224.40 961.17 C 225.34 963.22 227.76 964.13 229.81 963.19 Z" fill="#60c46c" fill-rule="nonzero" group-id="1,11" node-id="944" stroke="none" target-height="38.48004" target-width="38.48001" target-x="223.47" target-y="933.57"></path></g><g node-id="1003"><path d="M 123.21 869.97 L 126.87 860.14 L 136.70 863.80 C 138.55 864.49 140.61 863.55 141.30 861.70 C 141.99 859.85 141.05 857.79 139.20 857.10 L 129.37 853.44 L 133.03 843.61 C 133.72 841.76 132.78 839.70 130.93 839.01 C 129.08 838.32 127.02 839.26 126.33 841.11 L 122.67 850.94 L 112.84 847.28 C 110.99 846.59 108.93 847.53 108.24 849.38 C 107.55 851.23 108.49 853.29 110.34 853.98 L 120.17 857.64 L 116.51 867.47 C 115.82 869.32 116.76 871.38 118.61 872.07 C 120.46 872.77 122.52 871.82 123.21 869.97 Z" fill="#e55b48" fill-rule="nonzero" group-id="1,12" node-id="949" stroke="none" target-height="34.44995" target-width="34.440002" target-x="107.55" target-y="838.32007"></path></g><g node-id="1004"><path d="M 124.14 957.04 L 131.41 959.75 L 128.70 967.02 C 128.19 968.39 128.89 969.91 130.26 970.42 C 131.63 970.93 133.15 970.23 133.66 968.86 L 136.37 961.59 L 143.64 964.30 C 145.01 964.81 146.53 964.11 147.04 962.74 C 147.55 961.37 146.85 959.85 145.48 959.34 L 138.21 956.63 L 140.92 949.36 C 141.43 947.99 140.73 946.47 139.36 945.96 C 137.99 945.45 136.47 946.15 135.96 947.52 L 133.25 954.79 L 125.98 952.08 C 124.61 951.57 123.09 952.27 122.58 953.64 C 122.08 955.00 122.77 956.53 124.14 957.04 Z" fill="#fcaa3d" fill-rule="nonzero" group-id="1,13" node-id="954" stroke="none" target-height="25.47998" target-width="25.470001" target-x="122.08" target-y="945.45"></path></g><g node-id="1005"><path d="M 226.56 854.40 L 230.28 852.70 L 231.98 856.42 C 232.30 857.12 233.13 857.43 233.83 857.11 C 234.53 856.79 234.84 855.96 234.52 855.26 L 232.82 851.54 L 236.54 849.84 C 237.24 849.52 237.55 848.69 237.23 847.99 C 236.91 847.29 236.08 846.98 235.38 847.30 L 231.66 849.00 L 229.96 845.28 C 229.64 844.58 228.81 844.27 228.11 844.59 C 227.41 844.91 227.10 845.74 227.42 846.44 L 229.12 850.16 L 225.40 851.86 C 224.70 852.18 224.39 853.01 224.71 853.71 C 225.03 854.41 225.86 854.72 226.56 854.40 Z" fill="#46bcfc" fill-rule="nonzero" group-id="1,14" node-id="959" stroke="none" target-height="13.159912" target-width="13.160004" target-x="224.39" target-y="844.2701"></path></g><g node-id="1006"><path d="M 350.41 948.30 C 350.90 949.37 352.16 949.84 353.23 949.35 L 358.78 946.81 L 355.24 951.78 C 354.56 952.74 354.78 954.07 355.74 954.75 C 356.70 955.43 358.03 955.21 358.71 954.25 L 362.25 949.28 L 361.67 955.35 C 361.56 956.52 362.42 957.56 363.59 957.67 C 364.76 957.78 365.80 956.92 365.91 955.75 L 366.49 949.68 L 369.03 955.23 C 369.52 956.30 370.78 956.77 371.85 956.28 C 372.92 955.79 373.39 954.53 372.90 953.46 L 370.36 947.91 L 375.33 951.45 C 376.29 952.13 377.62 951.91 378.30 950.95 C 378.98 949.99 378.76 948.66 377.80 947.98 L 372.83 944.44 L 378.90 945.02 C 380.07 945.13 381.11 944.28 381.22 943.10 C 381.33 941.93 380.47 940.89 379.30 940.78 L 373.22 940.20 L 378.77 937.66 C 379.84 937.17 380.31 935.91 379.82 934.84 C 379.33 933.77 378.07 933.30 377.00 933.79 L 371.45 936.33 L 374.99 931.36 C 375.67 930.40 375.45 929.07 374.49 928.39 C 373.85 927.93 373.04 927.88 372.37 928.19 C 372.04 928.34 371.75 928.58 371.52 928.89 L 367.98 933.86 L 368.56 927.79 C 368.67 926.62 367.81 925.58 366.64 925.47 C 366.26 925.43 365.88 925.50 365.56 925.65 C 364.89 925.96 364.40 926.60 364.32 927.38 L 363.74 933.46 L 361.20 927.91 C 360.71 926.84 359.45 926.37 358.38 926.86 C 357.31 927.35 356.84 928.61 357.33 929.68 L 359.86 935.23 L 354.89 931.69 C 354.25 931.23 353.44 931.18 352.77 931.49 C 352.44 931.64 352.15 931.88 351.92 932.19 C 351.24 933.15 351.46 934.48 352.42 935.16 L 357.39 938.70 L 351.32 938.12 C 350.94 938.08 350.56 938.15 350.24 938.30 C 349.57 938.61 349.08 939.25 349.00 940.03 C 348.89 941.20 349.75 942.24 350.92 942.35 L 356.99 942.93 L 351.44 945.46 C 350.39 945.97 349.92 947.23 350.41 948.30 Z" fill="#46bcfc" fill-rule="nonzero" group-id="1,15" node-id="964" stroke="none" target-height="32.350037" target-width="32.43994" target-x="348.89005" target-y="925.43"></path></g><g node-id="1007"><path d="M 312.43 910.23 L 307.72 905.31 L 301.47 908.01 L 304.69 902.01 L 300.19 896.89 L 306.89 898.11 L 310.37 892.24 L 311.28 899.00 L 317.93 900.49 L 311.79 903.45 Z" fill="#fcaa3d" fill-rule="nonzero" group-id="1,16" node-id="969" stroke="none" target-height="17.990051" target-width="17.73999" target-x="300.19" target-y="892.2399"></path></g><g node-id="1008"><path d="M 131.20 795.66 L 126.09 790.31 L 119.30 793.25 L 122.80 786.74 L 117.91 781.19 L 125.19 782.51 L 128.95 776.14 L 129.95 783.47 L 137.16 785.08 L 130.50 788.29 Z" fill="#e55b48" fill-rule="nonzero" group-id="1,17" node-id="974" stroke="none" target-height="19.52002" target-width="19.25" target-x="117.91" target-y="776.13995"></path></g><g node-id="1009"><path d="M 194.76 917.38 C 194.76 919.49 193.92 921.51 192.43 923.00 C 190.94 924.49 188.92 925.33 186.81 925.33 C 184.70 925.33 182.68 924.49 181.19 923.00 C 179.70 921.51 178.86 919.49 178.86 917.38 C 178.86 915.27 179.70 913.25 181.19 911.76 C 182.68 910.27 184.70 909.43 186.81 909.43 C 188.92 909.43 190.94 910.27 192.43 911.76 C 193.92 913.25 194.76 915.27 194.76 917.38 Z" fill="#fcaa3d" fill-rule="nonzero" group-id="1,18" node-id="979" stroke="none" target-height="15.899963" target-width="15.900009" target-x="178.85999" target-y="909.43"></path></g><path d="M 388.34 886.82 C 388.34 889.71 386.00 892.05 383.11 892.05 C 380.22 892.05 377.88 889.71 377.88 886.82 C 377.88 883.93 380.22 881.59 383.11 881.59 C 386.00 881.59 388.34 883.93 388.34 886.82 Z" fill="#46bcfc" fill-rule="nonzero" group-id="1,19" node-id="984" stroke="none" target-height="10.459961" target-width="10.460022" target-x="377.87997" target-y="881.59"></path></g><path d="M 509.31 190.90 C 357.74 190.90 234.35 314.22 234.35 465.86 C 234.35 617.50 357.74 740.82 509.31 740.82 C 660.95 740.82 784.34 617.50 784.34 465.86 C 784.34 314.22 660.95 190.90 509.31 190.90 Z M 509.31 530.53 C 494.21 530.53 481.14 521.16 475.61 508.02 L 543.07 508.02 C 537.55 521.17 524.48 530.53 509.31 530.53 Z M 724.99 778.51 C 724.57 779.00 724.15 779.42 723.73 779.84 C 723.31 780.33 722.89 780.75 722.47 781.17 C 722.26 781.31 722.05 781.52 721.84 781.73 C 709.54 794.38 695.90 805.85 681.43 815.85 C 675.21 820.18 673.60 828.64 677.79 835.01 C 671.15 839.13 664.37 842.98 657.45 846.48 C 654.09 839.63 645.98 836.76 639.06 839.84 C 622.63 847.32 605.36 853.19 587.74 857.25 C 580.33 859.00 575.65 866.34 577.18 873.68 C 563.41 876.20 549.50 877.67 535.58 878.15 C 535.44 870.60 529.36 864.45 521.81 864.38 C 459.66 863.54 400.37 842.01 352.48 803.21 C 461.26 839.77 584.59 811.88 667.29 725.75 C 674.56 718.20 684.28 713.93 694.70 713.73 C 705.12 713.80 715.04 717.44 722.53 724.64 C 737.57 739.01 738.69 762.64 724.99 778.51 Z M 879.91 433.01 C 857.12 320.52 771.34 227.68 655.35 199.08 C 645.28 196.63 636.68 190.34 631.30 181.39 C 625.92 172.44 624.31 161.95 626.83 151.82 C 631.16 134.06 647.03 122.04 664.79 122.04 C 667.24 122.04 669.75 122.32 672.27 122.81 C 672.90 122.88 673.46 123.02 674.16 123.23 C 674.72 123.37 675.28 123.51 675.77 123.65 C 676.05 123.72 676.33 123.79 676.61 123.86 C 814.47 159.16 901.66 294.72 879.91 433.01 Z M 206.80 481.88 C 206.87 482.02 206.87 482.23 206.87 482.44 C 207.36 499.85 196.17 516.07 178.91 521.03 C 178.21 521.24 177.44 521.45 176.18 521.73 C 169.54 523.20 162.90 522.92 156.81 521.10 C 154.01 517.67 151.85 513.69 150.31 509.28 C 150.03 508.58 149.89 507.95 149.68 507.25 C 149.47 506.55 149.26 505.92 149.12 505.22 C 126.05 422.79 153.04 337.99 212.11 283.60 C 189.74 344.07 187.22 410.28 205.33 472.71 C 206.03 475.16 206.52 477.60 206.73 480.05 L 206.73 480.47 C 206.80 480.90 206.80 481.39 206.80 481.88 Z" fill="#f2a536" fill-rule="nonzero" node-id="988" stroke="none" target-height="756.11005" target-width="775.6099" target-x="126.05001" target-y="122.04"></path><path d="M 236.93 175.24 C 232.39 168.95 223.65 167.55 217.42 172.02 C 203.23 182.23 189.87 193.69 177.71 206.21 C 172.33 211.73 172.40 220.61 177.92 226.00 C 180.65 228.66 184.21 229.99 187.71 229.99 C 191.35 229.99 194.98 228.52 197.71 225.73 C 208.76 214.40 220.85 203.99 233.71 194.76 C 240.01 190.27 241.41 181.53 236.93 175.24 Z M 149.75 263.54 C 142.97 259.76 134.44 262.14 130.66 268.85 C 123.74 281.15 117.59 294.02 112.41 307.16 C 109.54 314.29 113.11 322.40 120.31 325.27 C 121.99 325.90 123.74 326.25 125.41 326.25 C 131.00 326.25 136.25 322.89 138.41 317.37 C 143.09 305.48 148.69 293.74 154.98 282.62 C 158.84 275.92 156.46 267.39 149.75 263.54 Z M 683.88 96.87 C 682.83 96.52 681.78 96.31 680.80 96.03 C 679.61 95.75 678.49 95.47 677.37 95.26 C 642.34 88.55 608.16 110.43 599.63 145.11 C 597.04 155.67 597.04 166.43 599.56 176.64 C 571.04 167.76 540.76 162.94 509.30 162.94 C 375.84 162.94 262.30 249.70 221.96 369.74 C 224.27 335.76 232.94 302.34 247.69 271.02 C 273.84 215.72 318.16 170.21 372.55 142.87 C 378.56 139.86 381.57 133.01 379.68 126.51 C 377.79 120.08 371.64 115.88 364.93 116.51 C 346.68 118.26 328.23 121.82 310.05 127.07 C 299.28 130.15 288.66 133.92 278.38 138.12 C 271.25 141.06 267.82 149.24 270.76 156.37 C 273.70 163.50 281.88 166.93 289.01 163.99 C 291.32 163.01 293.69 162.10 296.07 161.19 C 265.31 188.32 240.07 221.66 222.38 259.07 C 218.60 267.11 215.11 275.29 212.10 283.61 C 189.73 344.08 187.21 410.29 205.32 472.72 C 206.02 475.17 206.51 477.61 206.72 480.06 L 206.72 480.48 C 206.79 480.90 206.79 481.39 206.79 481.88 C 206.86 482.02 206.86 482.23 206.86 482.44 C 207.35 499.85 196.16 516.07 178.90 521.03 C 178.20 521.24 177.43 521.45 176.17 521.73 C 169.53 523.20 162.89 522.92 156.80 521.10 C 144.98 517.74 135.13 508.80 130.86 496.56 L 130.16 494.60 C 130.09 494.18 129.95 493.76 129.88 493.34 L 129.53 492.01 C 118.20 451.67 116.25 410.56 123.59 369.66 C 124.92 362.04 119.88 354.77 112.26 353.37 C 104.64 352.04 97.44 357.08 96.04 364.70 C 87.93 409.79 90.17 455.17 102.40 498.86 C 102.54 499.56 102.75 500.19 102.89 500.82 L 103.10 501.52 C 103.17 502.01 103.31 502.43 103.45 502.85 L 104.36 505.65 C 113.94 533.13 139.74 550.67 167.42 550.67 C 172.17 550.67 177.00 550.18 181.82 549.06 C 183.29 548.78 184.76 548.43 186.36 548.01 C 196.99 544.93 206.21 539.48 213.70 532.42 C 244.18 667.56 365.06 768.79 509.29 768.79 C 530.19 768.79 550.54 766.69 570.25 762.64 C 484.89 804.66 381.21 800.53 298.01 745.79 C 292.35 742.08 284.94 742.92 280.25 747.82 C 275.57 752.64 275.01 760.12 278.92 765.65 C 289.62 780.61 301.92 794.80 315.55 807.81 C 371.20 861.29 444.26 891.28 521.37 892.33 L 521.58 892.33 C 529.20 892.33 535.42 886.18 535.56 878.49 L 535.56 878.14 C 535.42 870.59 529.34 864.44 521.79 864.37 C 459.64 863.53 400.35 842.00 352.46 803.20 C 461.24 839.76 584.57 811.87 667.27 725.74 C 674.54 718.19 684.26 713.92 694.68 713.72 C 705.10 713.79 715.02 717.43 722.51 724.63 C 737.54 739.03 738.66 762.66 724.96 778.53 C 724.54 779.02 724.12 779.44 723.70 779.86 C 723.28 780.35 722.86 780.77 722.44 781.19 C 722.23 781.33 722.02 781.54 721.81 781.75 C 709.51 794.40 695.87 805.87 681.40 815.87 C 675.18 820.20 673.57 828.66 677.76 835.03 C 677.76 835.10 677.83 835.24 677.90 835.31 C 682.23 841.67 690.97 843.28 697.34 838.88 C 713.14 827.97 728.03 815.39 741.59 801.55 C 742.36 800.85 743.13 800.08 743.83 799.31 C 744.67 798.40 745.51 797.56 746.21 796.72 C 769.56 769.73 767.67 729.18 741.95 704.44 C 734.05 696.89 724.68 691.51 714.47 688.57 C 774.59 633.20 812.28 553.85 812.28 465.90 C 812.28 388.65 783.20 318.11 735.45 264.55 C 814.80 317.33 863.25 409.41 857.45 508.89 C 857.03 515.67 861.50 521.68 868.01 523.29 C 869.13 523.57 870.25 523.71 871.37 523.71 C 876.75 523.71 881.79 520.63 884.09 515.53 C 891.71 498.75 897.86 480.99 902.41 462.75 C 941.99 302.06 843.98 138.05 683.88 96.87 Z M 784.34 465.87 C 784.34 562.00 734.77 646.66 659.90 695.88 C 659.06 696.51 658.08 697.14 657.17 697.70 C 614.38 724.97 563.63 740.84 509.31 740.84 C 362.84 740.84 242.67 625.69 234.77 481.05 C 234.77 480.70 234.70 480.35 234.70 480.00 C 234.70 479.51 234.70 478.95 234.63 478.46 C 234.63 478.39 234.63 478.39 234.63 478.32 C 234.42 474.26 234.35 470.00 234.35 465.88 C 234.35 314.24 357.74 190.92 509.31 190.92 C 553.91 190.92 596.07 201.62 633.33 220.49 C 633.68 220.63 634.03 220.84 634.38 221.05 C 723.31 266.62 784.34 359.25 784.34 465.87 Z M 879.91 433.01 C 857.12 320.52 771.34 227.68 655.35 199.08 C 645.28 196.63 636.68 190.34 631.30 181.39 C 625.92 172.44 624.31 161.95 626.83 151.82 C 631.16 134.06 647.03 122.04 664.79 122.04 C 667.24 122.04 669.75 122.32 672.27 122.81 C 672.90 122.88 673.46 123.02 674.16 123.23 C 674.72 123.37 675.28 123.51 675.77 123.65 C 676.05 123.72 676.33 123.79 676.61 123.86 C 814.47 159.16 901.66 294.72 879.91 433.01 Z M 650.60 865.34 C 632.49 873.52 613.48 879.95 594.04 884.50 C 592.99 884.71 591.94 884.85 590.89 884.85 C 584.53 884.85 578.73 880.52 577.26 874.01 C 577.26 873.87 577.19 873.80 577.19 873.66 C 575.65 866.32 580.34 858.98 587.75 857.23 C 605.37 853.18 622.64 847.30 639.07 839.82 C 645.99 836.74 654.10 839.61 657.46 846.46 C 657.46 846.53 657.53 846.67 657.60 846.81 C 660.81 853.81 657.66 862.13 650.60 865.34 Z M 419.34 429.19 C 407.77 429.19 398.37 419.78 398.37 408.22 C 398.37 396.65 407.78 387.25 419.34 387.25 C 430.91 387.25 440.31 396.66 440.31 408.22 C 440.32 419.78 430.91 429.19 419.34 429.19 Z M 578.37 408.22 C 578.37 396.65 587.78 387.25 599.34 387.25 C 610.91 387.25 620.31 396.66 620.31 408.22 C 620.31 419.79 610.90 429.19 599.34 429.19 C 587.78 429.19 578.37 419.78 578.37 408.22 Z M 559.79 480.06 L 458.90 480.06 C 451.14 480.06 444.92 486.28 444.92 494.04 C 444.92 529.55 473.79 558.50 509.31 558.50 C 544.89 558.50 573.77 529.56 573.77 494.04 C 573.77 486.28 567.55 480.06 559.79 480.06 Z M 509.31 530.53 C 494.21 530.53 481.14 521.16 475.61 508.02 L 543.07 508.02 C 537.55 521.17 524.48 530.53 509.31 530.53 Z" fill="#000000" fill-rule="nonzero" node-id="990" stroke="none" target-height="803.77997" target-width="854.06" target-x="87.93" target-y="88.55"></path></svg>