<?xml version="1.0" standalone="no"?><!DOCTYPE svg PUBLIC "-//W3C//DTD SVG 1.1//EN" "http://www.w3.org/Graphics/SVG/1.1/DTD/svg11.dtd"><svg height="1024" node-id="1" sillyvg="true" template-height="1024" template-width="1024" version="1.1" viewBox="0 0 1024 1024" width="1024" xmlns="http://www.w3.org/2000/svg" xmlns:xlink="http://www.w3.org/1999/xlink"><defs node-id="892"></defs><g node-id="1018"><g node-id="1021"><path d="M 842.58 132.46 L 831.66 132.46 L 831.66 121.54 C 831.66 119.48 829.99 117.82 827.94 117.82 C 825.88 117.82 824.22 119.49 824.22 121.54 L 824.22 132.46 L 813.30 132.46 C 811.24 132.46 809.58 134.13 809.58 136.18 C 809.58 138.23 811.25 139.90 813.30 139.90 L 824.21 139.90 L 824.21 150.81 C 824.21 152.87 825.88 154.53 827.93 154.53 C 829.99 154.53 831.65 152.86 831.65 150.81 L 831.65 139.90 L 842.57 139.90 C 844.63 139.90 846.29 138.23 846.29 136.18 C 846.29 134.13 844.64 132.46 842.58 132.46 Z" fill="#e55b48" fill-rule="nonzero" group-id="1,4" node-id="899" stroke="none" target-height="36.71" target-width="36.7099" target-x="809.5801" target-y="117.82"></path></g><g node-id="1022"><path d="M 898.17 267.98 L 894.79 271.36 L 891.41 267.98 C 890.77 267.34 889.74 267.34 889.10 267.98 C 888.46 268.62 888.46 269.65 889.10 270.29 L 892.48 273.67 L 889.10 277.05 C 888.46 277.69 888.46 278.72 889.10 279.36 C 889.74 280.00 890.77 280.00 891.41 279.36 L 894.79 275.98 L 898.17 279.36 C 898.81 280.00 899.84 280.00 900.48 279.36 C 901.12 278.72 901.12 277.69 900.48 277.05 L 897.10 273.67 L 900.48 270.29 C 901.12 269.65 901.12 268.62 900.48 267.98 C 899.84 267.35 898.81 267.35 898.17 267.98 Z" fill="#e55b48" fill-rule="nonzero" group-id="1,5" node-id="904" stroke="none" target-height="12.660004" target-width="12.659973" target-x="888.46" target-y="267.34"></path></g><g node-id="1023"><path d="M 937.54 181.62 L 932.05 176.13 L 937.54 170.64 C 938.57 169.61 938.57 167.93 937.54 166.90 C 936.51 165.87 934.83 165.87 933.80 166.90 L 928.31 172.39 L 922.82 166.90 C 921.79 165.87 920.11 165.87 919.08 166.90 C 918.05 167.93 918.05 169.61 919.08 170.64 L 924.57 176.13 L 919.08 181.62 C 918.05 182.65 918.05 184.33 919.08 185.36 C 920.11 186.39 921.79 186.39 922.82 185.36 L 928.31 179.87 L 933.80 185.36 C 934.83 186.39 936.51 186.39 937.54 185.36 C 938.57 184.32 938.57 182.65 937.54 181.62 Z" fill="#60c46c" fill-rule="nonzero" group-id="1,6" node-id="909" stroke="none" target-height="20.520004" target-width="20.519958" target-x="918.05" target-y="165.87"></path></g><g node-id="1024"><path d="M 801.73 232.41 L 797.64 232.41 L 797.64 228.32 C 797.64 227.55 797.01 226.92 796.24 226.92 C 795.47 226.92 794.84 227.55 794.84 228.32 L 794.84 232.41 L 790.75 232.41 C 789.98 232.41 789.35 233.04 789.35 233.81 C 789.35 234.58 789.98 235.21 790.75 235.21 L 794.84 235.21 L 794.84 239.30 C 794.84 240.07 795.47 240.70 796.24 240.70 C 797.01 240.70 797.64 240.07 797.64 239.30 L 797.64 235.21 L 801.73 235.21 C 802.50 235.21 803.13 234.58 803.13 233.81 C 803.13 233.04 802.50 232.41 801.73 232.41 Z" fill="#46bcfc" fill-rule="nonzero" group-id="1,7" node-id="914" stroke="none" target-height="13.780014" target-width="13.780029" target-x="789.35" target-y="226.92"></path></g><g node-id="1025"><path d="M 705.79 75.10 C 705.79 73.46 704.46 72.13 702.82 72.13 L 694.29 72.13 L 701.67 67.87 C 703.09 67.05 703.58 65.23 702.76 63.81 C 701.94 62.38 700.12 61.90 698.70 62.72 L 691.32 66.98 L 695.58 59.60 C 696.40 58.18 695.91 56.36 694.49 55.54 C 693.07 54.72 691.25 55.20 690.43 56.63 L 686.17 64.01 L 686.17 55.49 C 686.17 53.85 684.84 52.52 683.20 52.52 C 681.56 52.52 680.23 53.85 680.23 55.49 L 680.23 64.02 L 675.97 56.64 C 675.15 55.21 673.33 54.73 671.91 55.55 C 670.49 56.37 670.00 58.19 670.82 59.61 L 675.08 66.99 L 667.70 62.73 C 666.28 61.91 664.46 62.39 663.64 63.82 C 662.82 65.24 663.31 67.06 664.73 67.88 L 672.11 72.14 L 663.58 72.14 C 661.94 72.14 660.61 73.47 660.61 75.11 C 660.61 76.75 661.94 78.08 663.58 78.08 L 672.10 78.08 L 664.72 82.34 C 663.30 83.16 662.81 84.98 663.63 86.40 C 664.18 87.35 665.18 87.89 666.21 87.89 C 666.72 87.89 667.23 87.76 667.69 87.49 L 675.07 83.23 L 670.81 90.61 C 669.99 92.03 670.48 93.85 671.90 94.67 C 672.37 94.94 672.88 95.07 673.38 95.07 C 674.41 95.07 675.41 94.54 675.96 93.58 L 680.22 86.20 L 680.22 94.73 C 680.22 96.37 681.55 97.70 683.19 97.70 C 684.83 97.70 686.16 96.37 686.16 94.73 L 686.16 86.20 L 690.42 93.58 C 690.97 94.53 691.97 95.07 693.00 95.07 C 693.51 95.07 694.02 94.94 694.48 94.67 C 695.90 93.85 696.39 92.03 695.57 90.61 L 691.31 83.23 L 698.69 87.49 C 699.16 87.76 699.67 87.89 700.17 87.89 C 701.20 87.89 702.20 87.36 702.75 86.40 C 703.57 84.98 703.08 83.16 701.66 82.34 L 694.28 78.08 L 702.80 78.08 C 704.47 78.08 705.79 76.75 705.79 75.10 Z" fill="#e25987" fill-rule="nonzero" group-id="1,8" node-id="919" stroke="none" target-height="45.179993" target-width="45.179993" target-x="660.61" target-y="52.520004"></path></g><g node-id="1026"><path d="M 746.83 145.94 L 749.07 152.38 L 755.88 152.52 L 750.45 156.63 L 752.42 163.16 L 746.83 159.26 L 741.23 163.16 L 743.21 156.63 L 737.78 152.52 L 744.59 152.38 Z" fill="#fcaa3d" fill-rule="nonzero" group-id="1,9" node-id="924" stroke="none" target-height="17.220001" target-width="18.099976" target-x="737.78" target-y="145.94"></path></g><g node-id="1027"><path d="M 864.06 317.93 L 868.45 330.55 L 881.81 330.82 L 871.16 338.90 L 875.03 351.69 L 864.06 344.06 L 853.09 351.69 L 856.96 338.90 L 846.31 330.82 L 859.67 330.55 Z" fill="#46bcfc" fill-rule="nonzero" group-id="1,10" node-id="929" stroke="none" target-height="33.76001" target-width="35.49994" target-x="846.31006" target-y="317.93"></path></g><g node-id="1028"><path d="M 872.01 191.64 C 872.01 193.75 871.17 195.77 869.68 197.26 C 868.19 198.75 866.17 199.59 864.06 199.59 C 861.95 199.59 859.93 198.75 858.44 197.26 C 856.95 195.77 856.11 193.75 856.11 191.64 C 856.11 189.53 856.95 187.51 858.44 186.02 C 859.93 184.53 861.95 183.69 864.06 183.69 C 866.17 183.69 868.19 184.53 869.68 186.02 C 871.17 187.51 872.01 189.53 872.01 191.64 Z" fill="#fcaa3d" fill-rule="nonzero" group-id="1,11" node-id="934" stroke="none" target-height="15.900009" target-width="15.899963" target-x="856.11" target-y="183.68999"></path></g><g node-id="1029"><path d="M 667.61 145.09 C 667.61 147.98 665.27 150.32 662.38 150.32 C 659.49 150.32 657.15 147.98 657.15 145.09 C 657.15 142.20 659.49 139.86 662.38 139.86 C 665.27 139.86 667.61 142.20 667.61 145.09 Z" fill="#46bcfc" fill-rule="nonzero" group-id="1,12" node-id="939" stroke="none" target-height="10.459991" target-width="10.459961" target-x="657.15" target-y="139.86"></path></g><g node-id="1030"><path d="M 235.39 963.19 L 246.27 958.22 L 251.24 969.10 C 252.18 971.15 254.60 972.05 256.65 971.12 C 258.70 970.18 259.60 967.76 258.67 965.71 L 253.70 954.83 L 264.58 949.86 C 266.63 948.92 267.53 946.50 266.60 944.45 C 265.67 942.40 263.24 941.50 261.19 942.43 L 250.31 947.40 L 245.34 936.52 C 244.40 934.47 241.98 933.57 239.93 934.50 C 237.88 935.44 236.98 937.86 237.91 939.91 L 242.88 950.79 L 232.00 955.77 C 229.95 956.71 229.05 959.13 229.98 961.18 C 230.92 963.22 233.34 964.13 235.39 963.19 Z" fill="#60c46c" fill-rule="nonzero" group-id="1,13" node-id="944" stroke="none" target-height="38.48004" target-width="38.479996" target-x="229.05" target-y="933.57"></path></g><g node-id="1031"><path d="M 128.80 869.97 L 132.46 860.14 L 142.29 863.80 C 144.14 864.49 146.20 863.55 146.89 861.70 C 147.58 859.85 146.64 857.79 144.79 857.10 L 134.96 853.44 L 138.62 843.61 C 139.31 841.76 138.37 839.70 136.52 839.01 C 134.67 838.32 132.61 839.26 131.92 841.11 L 128.26 850.94 L 118.43 847.28 C 116.58 846.59 114.52 847.53 113.83 849.38 C 113.14 851.23 114.08 853.29 115.93 853.98 L 125.76 857.64 L 122.10 867.47 C 121.41 869.32 122.35 871.38 124.20 872.07 C 126.04 872.77 128.10 871.82 128.80 869.97 Z" fill="#e55b48" fill-rule="nonzero" group-id="1,14" node-id="949" stroke="none" target-height="34.44995" target-width="34.440002" target-x="113.14" target-y="838.32007"></path></g><g node-id="1032"><path d="M 129.73 957.04 L 137.00 959.75 L 134.29 967.02 C 133.78 968.39 134.48 969.91 135.85 970.42 C 137.22 970.93 138.74 970.23 139.25 968.86 L 141.96 961.59 L 149.23 964.30 C 150.60 964.81 152.12 964.11 152.63 962.74 C 153.14 961.37 152.44 959.85 151.07 959.34 L 143.80 956.63 L 146.51 949.36 C 147.02 947.99 146.32 946.47 144.95 945.96 C 143.58 945.45 142.06 946.15 141.55 947.52 L 138.84 954.79 L 131.57 952.08 C 130.20 951.57 128.68 952.27 128.17 953.64 C 127.66 955.00 128.36 956.53 129.73 957.04 Z" fill="#fcaa3d" fill-rule="nonzero" group-id="1,15" node-id="954" stroke="none" target-height="25.47998" target-width="25.479996" target-x="127.66" target-y="945.45"></path></g><g node-id="1033"><path d="M 232.15 854.40 L 235.87 852.70 L 237.57 856.42 C 237.89 857.12 238.72 857.43 239.42 857.11 C 240.12 856.79 240.43 855.96 240.11 855.26 L 238.41 851.54 L 242.13 849.84 C 242.83 849.52 243.14 848.69 242.82 847.99 C 242.50 847.29 241.67 846.98 240.97 847.30 L 237.25 849.00 L 235.55 845.28 C 235.23 844.58 234.40 844.27 233.70 844.59 C 233.00 844.91 232.69 845.74 233.01 846.44 L 234.71 850.16 L 230.99 851.86 C 230.29 852.18 229.98 853.01 230.30 853.71 C 230.62 854.41 231.44 854.72 232.15 854.40 Z" fill="#46bcfc" fill-rule="nonzero" group-id="1,16" node-id="959" stroke="none" target-height="13.159912" target-width="13.160004" target-x="229.98" target-y="844.2701"></path></g><g node-id="1034"><path d="M 355.99 948.30 C 356.48 949.37 357.74 949.84 358.81 949.35 L 364.36 946.81 L 360.82 951.78 C 360.14 952.74 360.36 954.07 361.32 954.75 C 362.28 955.43 363.61 955.21 364.29 954.25 L 367.83 949.28 L 367.25 955.35 C 367.14 956.52 368.00 957.56 369.17 957.67 C 370.34 957.78 371.38 956.92 371.49 955.75 L 372.07 949.68 L 374.61 955.23 C 375.10 956.30 376.36 956.77 377.43 956.28 C 378.50 955.79 378.97 954.53 378.48 953.46 L 375.94 947.91 L 380.91 951.45 C 381.87 952.13 383.20 951.91 383.88 950.95 C 384.56 949.99 384.34 948.66 383.38 947.98 L 378.41 944.44 L 384.48 945.02 C 385.65 945.13 386.69 944.28 386.80 943.10 C 386.91 941.93 386.05 940.89 384.88 940.78 L 378.80 940.20 L 384.35 937.66 C 385.42 937.17 385.89 935.91 385.40 934.84 C 384.91 933.77 383.65 933.30 382.58 933.79 L 377.03 936.33 L 380.57 931.36 C 381.25 930.40 381.03 929.07 380.07 928.39 C 379.43 927.93 378.62 927.88 377.95 928.19 C 377.62 928.34 377.33 928.58 377.10 928.89 L 373.56 933.86 L 374.14 927.79 C 374.25 926.62 373.39 925.58 372.22 925.47 C 371.84 925.43 371.46 925.50 371.14 925.65 C 370.47 925.96 369.98 926.60 369.90 927.38 L 369.32 933.46 L 366.78 927.91 C 366.29 926.84 365.03 926.37 363.96 926.86 C 362.89 927.35 362.42 928.61 362.91 929.68 L 365.44 935.23 L 360.47 931.69 C 359.83 931.23 359.02 931.18 358.35 931.49 C 358.02 931.64 357.73 931.88 357.50 932.19 C 356.82 933.15 357.04 934.48 358.00 935.16 L 362.97 938.70 L 356.90 938.12 C 356.52 938.08 356.14 938.15 355.82 938.30 C 355.15 938.61 354.66 939.25 354.58 940.03 C 354.47 941.20 355.33 942.24 356.50 942.35 L 362.57 942.93 L 357.02 945.46 C 355.98 945.97 355.51 947.23 355.99 948.30 Z" fill="#46bcfc" fill-rule="nonzero" group-id="1,17" node-id="964" stroke="none" target-height="32.350037" target-width="32.440002" target-x="354.47" target-y="925.43"></path></g><g node-id="1035"><path d="M 318.02 910.23 L 313.31 905.31 L 307.05 908.01 L 310.28 902.01 L 305.77 896.89 L 312.48 898.11 L 315.95 892.24 L 316.87 899.00 L 323.52 900.49 L 317.38 903.45 Z" fill="#fcaa3d" fill-rule="nonzero" group-id="1,18" node-id="969" stroke="none" target-height="17.990051" target-width="17.75" target-x="305.77" target-y="892.2399"></path></g><g node-id="1036"><path d="M 136.78 795.66 L 131.67 790.31 L 124.88 793.25 L 128.39 786.74 L 123.50 781.19 L 130.77 782.51 L 134.54 776.14 L 135.53 783.47 L 142.75 785.08 L 136.09 788.29 Z" fill="#e55b48" fill-rule="nonzero" group-id="1,19" node-id="974" stroke="none" target-height="19.52002" target-width="19.25" target-x="123.5" target-y="776.13995"></path></g><g node-id="1037"><path d="M 200.35 917.38 C 200.35 919.49 199.51 921.51 198.02 923.00 C 196.53 924.49 194.51 925.33 192.40 925.33 C 190.29 925.33 188.27 924.49 186.78 923.00 C 185.29 921.51 184.45 919.49 184.45 917.38 C 184.45 915.27 185.29 913.25 186.78 911.76 C 188.27 910.27 190.29 909.43 192.40 909.43 C 194.51 909.43 196.53 910.27 198.02 911.76 C 199.51 913.25 200.35 915.27 200.35 917.38 Z" fill="#fcaa3d" fill-rule="nonzero" group-id="1,20" node-id="979" stroke="none" target-height="15.899963" target-width="15.899963" target-x="184.45001" target-y="909.43"></path></g><path d="M 393.92 886.82 C 393.92 889.71 391.58 892.05 388.69 892.05 C 385.80 892.05 383.46 889.71 383.46 886.82 C 383.46 883.93 385.80 881.59 388.69 881.59 C 391.58 881.59 393.92 883.93 393.92 886.82 Z" fill="#46bcfc" fill-rule="nonzero" group-id="1,21" node-id="984" stroke="none" target-height="10.459961" target-width="10.460022" target-x="383.46" target-y="881.59"></path></g><path d="M 774.46 326.01 C 774.46 356.63 749.57 373.20 726.22 373.20 C 715.24 373.20 705.32 369.35 698.33 362.50 C 690.01 354.32 685.68 341.67 685.68 325.87 C 685.68 276.30 622.20 223.31 444.06 223.31 C 265.92 223.31 202.44 276.30 202.44 325.87 C 202.44 341.67 198.04 354.32 189.79 362.50 C 182.80 369.35 172.87 373.20 161.90 373.20 C 138.48 373.20 113.66 356.63 113.66 326.01 C 113.66 313.15 115.90 292.94 126.38 269.66 C 129.53 262.81 126.59 254.84 119.95 251.41 C 125.26 241.83 131.84 232.18 139.81 222.75 C 142.47 225.13 145.75 226.32 149.11 226.32 C 152.75 226.32 156.38 224.92 159.18 222.06 C 167.01 213.95 175.96 206.19 185.68 199.13 C 191.83 194.66 193.23 186.20 189.04 179.97 C 194.70 176.33 200.65 172.84 206.94 169.41 C 209.39 174.23 214.28 177.03 219.38 177.03 C 221.41 177.03 223.43 176.61 225.39 175.63 C 238.32 169.48 252.31 163.88 267.13 159.13 C 274.40 156.75 278.46 149.13 276.22 141.79 C 282.93 139.90 289.85 138.08 297.12 136.41 C 298.73 143.82 305.93 148.64 313.48 147.11 C 352.14 139.28 396.05 135.36 444.08 135.36 C 687.91 135.36 774.46 238.06 774.46 326.01 Z" fill="#f2a536" fill-rule="nonzero" node-id="988" stroke="none" target-height="237.83998" target-width="660.80005" target-x="113.66" target-y="135.36"></path><path d="M 654.00 500.72 C 644.70 499.95 636.45 496.73 628.97 491.77 C 615.34 488.97 598.63 487.02 579.12 487.02 C 541.23 487.02 521.23 433.40 503.48 391.94 C 501.94 393.20 500.33 394.53 498.66 395.79 C 481.74 408.79 463.84 415.16 444.06 415.16 C 426.02 415.16 409.59 409.92 393.93 399.08 C 376.94 439.28 357.16 487.03 321.36 487.03 C 296.54 487.03 276.34 490.25 261.10 494.09 C 240.69 499.19 226.63 517.86 226.63 538.83 L 226.63 758.49 C 226.63 787.64 241.52 813.37 264.17 828.40 L 636.31 828.40 C 658.89 813.37 673.85 787.64 673.85 758.49 L 673.85 538.82 C 673.86 523.37 666.24 509.18 654.00 500.72 Z M 444.05 658.02 C 428.88 658.02 415.88 648.72 410.35 635.51 L 477.74 635.51 C 472.23 648.72 459.23 658.02 444.05 658.02 Z" fill="#f2a536" fill-rule="nonzero" node-id="990" stroke="none" target-height="436.46002" target-width="447.22998" target-x="226.63" target-y="391.94"></path><path d="M 753.77 697.17 L 753.77 758.48 C 753.77 763.79 753.28 769.04 752.30 774.07 C 745.17 773.30 739.65 767.29 739.79 759.95 L 739.79 711.15 C 739.78 703.39 746.07 697.17 753.77 697.17 Z" fill="#f2a536" fill-rule="nonzero" node-id="992" stroke="none" target-height="76.900024" target-width="14.119995" target-x="739.65" target-y="697.17"></path><path d="M 628.97 491.77 C 615.34 488.97 598.63 487.02 579.12 487.02 C 541.23 487.02 521.23 433.40 503.48 391.94 C 508.93 387.33 513.90 382.57 518.65 378.03 C 531.30 365.87 539.48 358.38 548.29 358.31 C 550.53 359.15 556.19 364.46 568.01 391.52 C 570.04 396.20 572.07 401.03 574.16 405.99 C 575.84 409.98 577.59 413.96 579.33 418.08 C 581.08 422.14 582.90 426.26 584.78 430.31 C 584.78 430.38 584.78 430.45 584.85 430.45 C 586.11 433.25 587.37 435.97 588.77 438.70 C 589.96 441.22 591.22 443.66 592.48 446.11 C 593.25 447.65 594.02 449.12 594.86 450.51 C 595.63 451.98 596.47 453.45 597.31 454.84 C 598.29 456.59 599.34 458.34 600.39 460.01 C 601.23 461.34 602.07 462.74 602.98 464.00 C 603.89 465.47 604.87 466.87 605.85 468.26 C 605.92 468.40 606.06 468.54 606.13 468.68 C 607.67 470.78 609.21 472.80 610.81 474.76 C 612.35 476.65 613.96 478.54 615.56 480.28 C 615.63 480.35 615.77 480.42 615.84 480.56 C 617.17 481.96 618.43 483.22 619.83 484.48 C 622.75 487.22 625.76 489.67 628.97 491.77 Z" fill="#ef4e0f" fill-rule="nonzero" node-id="994" stroke="none" target-height="133.45999" target-width="125.48999" target-x="503.47998" target-y="358.31"></path><path d="M 739.78 711.15 L 739.78 759.95 C 739.64 767.29 745.16 773.30 752.29 774.07 C 751.66 777.64 750.75 781.13 749.63 784.49 C 747.04 792.39 743.34 799.73 738.72 806.37 C 734.73 812.10 730.05 817.28 724.81 821.82 C 720.62 815.95 712.51 814.34 706.28 818.11 C 695.37 824.82 682.79 828.39 669.86 828.39 L 636.30 828.39 C 658.88 813.36 673.84 787.63 673.84 758.48 L 673.84 538.82 C 673.84 523.37 666.22 509.18 653.98 500.72 C 654.75 500.79 655.45 500.86 656.22 500.93 C 657.13 501.00 658.11 501.00 659.02 501.00 C 679.29 501.00 698.38 503.24 715.86 507.64 C 729.98 511.14 739.77 524.00 739.77 538.82 L 739.77 648.86 C 739.77 656.62 746.06 662.84 753.75 662.84 L 753.75 697.17 C 746.07 697.17 739.78 703.39 739.78 711.15 Z" fill="#ef4e0f" fill-rule="nonzero" node-id="996" stroke="none" target-height="327.67004" target-width="117.45001" target-x="636.3" target-y="500.71997"></path><path d="M 729.92 185.06 C 666.93 133.46 570.80 107.39 444.05 107.39 C 394.13 107.39 348.34 111.51 307.93 119.69 C 300.38 121.23 295.49 128.64 297.02 136.19 C 297.02 136.26 297.02 136.33 297.09 136.40 C 298.70 143.81 305.90 148.63 313.45 147.10 C 352.11 139.27 396.02 135.35 444.05 135.35 C 687.90 135.35 774.45 238.05 774.45 326.00 C 774.45 356.62 749.56 373.19 726.21 373.19 C 715.23 373.19 705.31 369.34 698.32 362.49 C 690.00 354.31 685.67 341.66 685.67 325.86 C 685.67 276.29 622.19 223.30 444.05 223.30 C 265.91 223.30 202.43 276.29 202.43 325.86 C 202.43 341.66 198.03 354.31 189.78 362.49 C 182.79 369.34 172.86 373.19 161.89 373.19 C 138.47 373.19 113.65 356.62 113.65 326.00 C 113.65 313.14 115.89 292.93 126.37 269.65 C 129.52 262.80 126.58 254.83 119.94 251.40 C 119.80 251.33 119.59 251.19 119.38 251.12 C 112.39 247.97 104.07 251.05 100.92 258.11 C 90.92 280.13 85.68 303.62 85.68 325.99 C 85.68 373.04 124.41 401.15 161.88 401.15 C 180.27 401.15 197.12 394.44 209.42 382.34 C 219.00 372.90 230.39 355.42 230.39 325.85 C 230.39 289.92 297.23 251.25 444.04 251.25 C 590.79 251.25 657.69 289.91 657.69 325.85 C 657.69 355.42 669.09 372.90 678.66 382.34 C 690.89 394.43 707.81 401.15 726.20 401.15 C 763.67 401.15 802.40 373.05 802.40 325.99 C 802.42 301.47 795.29 238.62 729.92 185.06 Z M 276.20 141.79 C 276.20 141.72 276.13 141.58 276.13 141.51 C 273.75 134.17 265.92 130.18 258.58 132.49 C 242.57 137.66 227.33 143.68 213.28 150.46 C 206.29 153.75 203.35 162.14 206.71 169.06 C 206.78 169.20 206.85 169.27 206.92 169.41 C 209.37 174.23 214.26 177.03 219.36 177.03 C 221.39 177.03 223.41 176.61 225.37 175.63 C 238.30 169.48 252.29 163.88 267.11 159.13 C 274.38 156.75 278.43 149.13 276.20 141.79 Z M 189.02 179.96 C 188.95 179.82 188.88 179.75 188.81 179.61 C 184.20 173.32 175.46 171.99 169.23 176.53 C 158.18 184.50 148.05 193.31 139.03 202.61 C 133.72 208.13 133.86 217.01 139.38 222.39 C 139.52 222.53 139.66 222.67 139.80 222.74 C 142.46 225.12 145.74 226.31 149.10 226.31 C 152.74 226.31 156.37 224.91 159.17 222.05 C 167.00 213.94 175.95 206.18 185.67 199.12 C 191.81 194.64 193.21 186.18 189.02 179.96 Z M 722.72 480.51 C 703.00 475.55 681.61 473.03 659.03 473.03 C 632.95 473.03 614.64 429.82 599.95 395.08 C 597.78 390.05 595.69 385.08 593.59 380.33 C 582.12 354.04 570.03 330.41 548.64 330.41 C 527.74 330.41 513.26 344.39 499.28 357.89 C 493.69 363.27 487.88 368.80 481.66 373.55 C 469.43 382.99 457.82 387.18 444.05 387.18 C 430.84 387.18 419.65 383.33 407.84 374.67 C 401.06 369.64 394.77 363.62 388.75 357.82 C 374.77 344.33 360.30 330.41 339.46 330.41 C 315.48 330.41 303.46 358.86 288.21 394.87 C 273.46 429.69 255.14 473.03 229.06 473.03 C 206.48 473.03 185.02 475.55 165.30 480.51 C 138.87 487.15 120.35 511.13 120.35 538.82 L 120.35 758.48 C 120.35 812.45 164.25 856.36 218.23 856.36 L 669.86 856.36 C 687.90 856.36 705.58 851.40 720.90 842.03 C 727.47 837.97 729.57 829.38 725.51 822.80 C 725.30 822.45 725.09 822.10 724.81 821.82 C 720.62 815.95 712.51 814.34 706.28 818.11 C 695.37 824.82 682.79 828.39 669.86 828.39 L 218.24 828.39 C 179.72 828.39 148.33 797.00 148.33 758.48 L 148.33 538.82 C 148.33 524.00 158.12 511.13 172.17 507.64 C 189.65 503.24 208.73 501.00 229.08 501.00 C 273.75 501.00 296.06 448.22 313.95 405.78 C 321.08 388.86 333.04 360.62 339.47 358.38 C 348.56 358.38 356.74 365.79 369.32 377.96 C 375.75 384.11 383.02 391.10 391.34 397.19 C 392.18 397.82 393.09 398.45 393.93 399.08 C 409.59 409.92 426.02 415.16 444.06 415.16 C 463.85 415.16 481.74 408.80 498.66 395.79 C 500.34 394.53 501.95 393.20 503.48 391.94 C 508.93 387.33 513.90 382.57 518.65 378.03 C 531.30 365.87 539.48 358.38 548.29 358.31 C 550.53 359.15 556.19 364.46 568.01 391.52 C 570.04 396.20 572.07 401.03 574.16 405.99 C 578.63 416.62 583.46 427.80 588.77 438.71 C 589.96 441.23 591.22 443.67 592.48 446.12 C 595.56 452.06 598.84 457.87 602.48 463.25 C 603.46 464.93 604.58 466.54 605.70 468.07 C 608.85 472.54 612.20 476.81 615.84 480.58 C 617.17 481.91 618.50 483.24 619.83 484.50 C 622.70 487.23 625.77 489.67 628.99 491.77 C 636.47 496.73 644.72 499.95 654.02 500.72 C 654.79 500.79 655.49 500.86 656.26 500.93 C 657.17 501.00 658.15 501.00 659.06 501.00 C 679.33 501.00 698.42 503.24 715.90 507.64 C 730.02 511.14 739.81 524.00 739.81 538.82 L 739.81 648.86 C 739.81 656.62 746.10 662.84 753.79 662.84 C 761.48 662.84 767.77 656.62 767.77 648.86 L 767.77 538.82 C 767.75 511.13 749.22 487.15 722.72 480.51 Z M 767.75 711.15 L 767.75 760.30 C 767.61 767.99 761.39 774.14 753.77 774.14 L 753.56 774.14 C 753.14 774.14 752.72 774.14 752.30 774.07 C 745.17 773.30 739.65 767.29 739.79 759.95 L 739.79 711.15 C 739.79 703.39 746.08 697.17 753.77 697.17 C 761.46 697.17 767.75 703.39 767.75 711.15 Z" fill="#000000" fill-rule="nonzero" node-id="998" stroke="none" target-height="748.97" target-width="716.74" target-x="85.68" target-y="107.39"></path><g node-id="1019"><g node-id="1039"><path d="M 354.05 556.71 C 342.48 556.71 333.08 547.30 333.08 535.74 C 333.08 524.18 342.49 514.77 354.05 514.77 C 365.61 514.77 375.02 524.18 375.02 535.74 C 375.02 547.30 365.62 556.71 354.05 556.71 Z" fill="#000000" fill-rule="nonzero" group-id="2,22" node-id="1004" stroke="none" target-height="41.940002" target-width="41.939972" target-x="333.08" target-y="514.77"></path></g></g><g node-id="1020"><g node-id="1040"><path d="M 513.08 535.74 C 513.08 524.17 522.49 514.77 534.05 514.77 C 545.62 514.77 555.02 524.18 555.02 535.74 C 555.02 547.30 545.61 556.71 534.05 556.71 C 522.49 556.71 513.08 547.30 513.08 535.74 Z" fill="#000000" fill-rule="nonzero" group-id="3,23" node-id="1012" stroke="none" target-height="41.940002" target-width="41.940002" target-x="513.08" target-y="514.77"></path></g></g><path d="M 494.53 607.54 L 393.58 607.54 C 385.89 607.54 379.60 613.83 379.60 621.52 C 379.60 657.04 408.54 685.98 444.06 685.98 C 479.58 685.98 508.52 657.04 508.52 621.52 C 508.51 613.83 502.22 607.54 494.53 607.54 Z M 444.05 658.02 C 428.88 658.02 415.88 648.72 410.35 635.51 L 477.74 635.51 C 472.23 648.72 459.23 658.02 444.05 658.02 Z" fill="#000000" fill-rule="nonzero" node-id="1016" stroke="none" target-height="78.44" target-width="128.91998" target-x="379.6" target-y="607.54"></path></svg>