<?xml version="1.0" standalone="no"?><!DOCTYPE svg PUBLIC "-//W3C//DTD SVG 1.1//EN" "http://www.w3.org/Graphics/SVG/1.1/DTD/svg11.dtd"><svg height="1024" node-id="1" sillyvg="true" template-height="1024" template-width="1024" version="1.1" viewBox="0 0 1024 1024" width="1024" xmlns="http://www.w3.org/2000/svg" xmlns:xlink="http://www.w3.org/1999/xlink"><defs node-id="892"></defs><g node-id="1028"><g node-id="1033"><path d="M 841.77 132.46 L 830.85 132.46 L 830.85 121.54 C 830.85 119.48 829.18 117.82 827.13 117.82 C 825.07 117.82 823.41 119.49 823.41 121.54 L 823.41 132.46 L 812.50 132.46 C 810.44 132.46 808.78 134.13 808.78 136.18 C 808.78 138.23 810.45 139.90 812.50 139.90 L 823.41 139.90 L 823.41 150.81 C 823.41 152.87 825.08 154.53 827.13 154.53 C 829.19 154.53 830.85 152.86 830.85 150.81 L 830.85 139.90 L 841.77 139.90 C 843.83 139.90 845.49 138.23 845.49 136.18 C 845.49 134.13 843.83 132.46 841.77 132.46 Z" fill="#e55b48" fill-rule="nonzero" group-id="1,6" node-id="899" stroke="none" target-height="36.71" target-width="36.70996" target-x="808.78" target-y="117.82"></path></g><g node-id="1034"><path d="M 897.36 267.98 L 893.98 271.36 L 890.60 267.98 C 889.96 267.34 888.93 267.34 888.29 267.98 C 887.65 268.62 887.65 269.65 888.29 270.29 L 891.67 273.67 L 888.29 277.05 C 887.65 277.69 887.65 278.72 888.29 279.36 C 888.93 280.00 889.96 280.00 890.60 279.36 L 893.98 275.98 L 897.36 279.36 C 898.00 280.00 899.03 280.00 899.67 279.36 C 900.31 278.72 900.31 277.69 899.67 277.05 L 896.29 273.67 L 899.67 270.29 C 900.31 269.65 900.31 268.62 899.67 267.98 C 899.03 267.35 897.99 267.35 897.36 267.98 Z" fill="#e55b48" fill-rule="nonzero" group-id="1,7" node-id="904" stroke="none" target-height="12.660004" target-width="12.659912" target-x="887.6501" target-y="267.34"></path></g><g node-id="1035"><path d="M 936.73 181.62 L 931.24 176.13 L 936.73 170.64 C 937.76 169.61 937.76 167.93 936.73 166.90 C 935.70 165.87 934.02 165.87 932.99 166.90 L 927.50 172.39 L 922.01 166.90 C 920.98 165.87 919.30 165.87 918.27 166.90 C 917.24 167.93 917.24 169.61 918.27 170.64 L 923.76 176.13 L 918.27 181.62 C 917.24 182.65 917.24 184.33 918.27 185.36 C 919.30 186.39 920.98 186.39 922.01 185.36 L 927.50 179.87 L 932.99 185.36 C 934.02 186.39 935.70 186.39 936.73 185.36 C 937.76 184.33 937.76 182.65 936.73 181.62 Z" fill="#60c46c" fill-rule="nonzero" group-id="1,8" node-id="909" stroke="none" target-height="20.520004" target-width="20.52002" target-x="917.24" target-y="165.87"></path></g><g node-id="1036"><path d="M 800.92 232.41 L 796.83 232.41 L 796.83 228.32 C 796.83 227.55 796.20 226.92 795.43 226.92 C 794.66 226.92 794.03 227.55 794.03 228.32 L 794.03 232.41 L 789.94 232.41 C 789.17 232.41 788.54 233.04 788.54 233.81 C 788.54 234.58 789.17 235.21 789.94 235.21 L 794.03 235.21 L 794.03 239.30 C 794.03 240.07 794.66 240.70 795.43 240.70 C 796.20 240.70 796.83 240.07 796.83 239.30 L 796.83 235.21 L 800.92 235.21 C 801.69 235.21 802.32 234.58 802.32 233.81 C 802.31 233.04 801.69 232.41 800.92 232.41 Z" fill="#46bcfc" fill-rule="nonzero" group-id="1,9" node-id="914" stroke="none" target-height="13.780014" target-width="13.779968" target-x="788.54" target-y="226.92"></path></g><g node-id="1037"><path d="M 704.98 75.10 C 704.98 73.46 703.65 72.13 702.01 72.13 L 693.48 72.13 L 700.86 67.87 C 702.28 67.05 702.77 65.23 701.95 63.81 C 701.13 62.38 699.31 61.90 697.89 62.72 L 690.51 66.98 L 694.77 59.60 C 695.59 58.18 695.10 56.36 693.68 55.54 C 692.26 54.72 690.44 55.20 689.62 56.63 L 685.36 64.01 L 685.36 55.49 C 685.36 53.85 684.03 52.52 682.39 52.52 C 680.75 52.52 679.42 53.85 679.42 55.49 L 679.42 64.02 L 675.16 56.64 C 674.34 55.21 672.52 54.73 671.10 55.55 C 669.68 56.37 669.19 58.19 670.01 59.61 L 674.27 66.99 L 666.89 62.73 C 665.47 61.91 663.65 62.39 662.83 63.82 C 662.01 65.24 662.50 67.06 663.92 67.88 L 671.30 72.14 L 662.77 72.14 C 661.13 72.14 659.80 73.47 659.80 75.11 C 659.80 76.75 661.13 78.08 662.77 78.08 L 671.29 78.08 L 663.91 82.34 C 662.49 83.16 662.00 84.98 662.82 86.40 C 663.37 87.35 664.37 87.89 665.40 87.89 C 665.91 87.89 666.42 87.76 666.88 87.49 L 674.26 83.23 L 670.00 90.61 C 669.18 92.03 669.67 93.85 671.09 94.67 C 671.56 94.94 672.07 95.07 672.57 95.07 C 673.60 95.07 674.60 94.54 675.15 93.58 L 679.41 86.20 L 679.41 94.73 C 679.41 96.37 680.74 97.70 682.38 97.70 C 684.02 97.70 685.35 96.37 685.35 94.73 L 685.35 86.20 L 689.61 93.58 C 690.16 94.53 691.16 95.07 692.19 95.07 C 692.70 95.07 693.21 94.94 693.67 94.67 C 695.09 93.85 695.58 92.03 694.76 90.61 L 690.50 83.23 L 697.88 87.49 C 698.35 87.76 698.86 87.89 699.36 87.89 C 700.39 87.89 701.39 87.36 701.94 86.40 C 702.76 84.98 702.27 83.16 700.85 82.34 L 693.47 78.08 L 701.99 78.08 C 703.65 78.08 704.98 76.75 704.98 75.10 Z" fill="#e25987" fill-rule="nonzero" group-id="1,10" node-id="919" stroke="none" target-height="45.179993" target-width="45.179993" target-x="659.8" target-y="52.520004"></path></g><g node-id="1038"><path d="M 746.02 145.94 L 748.25 152.38 L 755.07 152.52 L 749.64 156.63 L 751.61 163.16 L 746.02 159.26 L 740.42 163.16 L 742.39 156.63 L 736.96 152.52 L 743.78 152.38 Z" fill="#fcaa3d" fill-rule="nonzero" group-id="1,11" node-id="924" stroke="none" target-height="17.220001" target-width="18.109985" target-x="736.96" target-y="145.94"></path></g><g node-id="1039"><path d="M 863.24 317.93 L 867.63 330.55 L 881.00 330.82 L 870.35 338.90 L 874.22 351.69 L 863.24 344.06 L 852.27 351.69 L 856.14 338.90 L 845.49 330.82 L 858.86 330.55 Z" fill="#46bcfc" fill-rule="nonzero" group-id="1,12" node-id="929" stroke="none" target-height="33.76001" target-width="35.51001" target-x="845.49" target-y="317.93"></path></g><g node-id="1040"><path d="M 871.19 191.64 C 871.19 193.75 870.35 195.77 868.86 197.26 C 867.37 198.75 865.35 199.59 863.24 199.59 C 861.13 199.59 859.11 198.75 857.62 197.26 C 856.13 195.77 855.29 193.75 855.29 191.64 C 855.29 189.53 856.13 187.51 857.62 186.02 C 859.11 184.53 861.13 183.69 863.24 183.69 C 865.35 183.69 867.37 184.53 868.86 186.02 C 870.35 187.51 871.19 189.53 871.19 191.64 Z" fill="#fcaa3d" fill-rule="nonzero" group-id="1,13" node-id="934" stroke="none" target-height="15.900009" target-width="15.9001465" target-x="855.2899" target-y="183.68999"></path></g><g node-id="1041"><path d="M 666.80 145.09 C 666.80 147.98 664.46 150.32 661.57 150.32 C 658.68 150.32 656.34 147.98 656.34 145.09 C 656.34 142.20 658.68 139.86 661.57 139.86 C 664.46 139.86 666.80 142.20 666.80 145.09 Z" fill="#46bcfc" fill-rule="nonzero" group-id="1,14" node-id="939" stroke="none" target-height="10.459991" target-width="10.459961" target-x="656.34" target-y="139.86"></path></g><g node-id="1042"><path d="M 234.58 963.19 L 245.46 958.22 L 250.43 969.10 C 251.37 971.15 253.79 972.05 255.84 971.12 C 257.89 970.18 258.79 967.76 257.86 965.71 L 252.89 954.83 L 263.77 949.86 C 265.82 948.92 266.72 946.50 265.79 944.45 C 264.85 942.40 262.43 941.50 260.38 942.43 L 249.50 947.40 L 244.53 936.52 C 243.59 934.47 241.17 933.57 239.12 934.50 C 237.07 935.44 236.17 937.86 237.10 939.91 L 242.07 950.79 L 231.19 955.76 C 229.14 956.70 228.24 959.12 229.17 961.17 C 230.11 963.22 232.53 964.13 234.58 963.19 Z" fill="#60c46c" fill-rule="nonzero" group-id="1,15" node-id="944" stroke="none" target-height="38.48004" target-width="38.47998" target-x="228.24002" target-y="933.57"></path></g><g node-id="1043"><path d="M 127.98 869.97 L 131.64 860.14 L 141.47 863.80 C 143.32 864.49 145.38 863.55 146.07 861.70 C 146.76 859.85 145.82 857.79 143.97 857.10 L 134.14 853.44 L 137.80 843.61 C 138.49 841.76 137.55 839.70 135.70 839.01 C 133.85 838.32 131.79 839.26 131.10 841.11 L 127.44 850.94 L 117.61 847.28 C 115.76 846.59 113.70 847.53 113.01 849.38 C 112.32 851.23 113.26 853.29 115.11 853.98 L 124.94 857.64 L 121.28 867.47 C 120.59 869.32 121.53 871.38 123.38 872.07 C 125.23 872.77 127.29 871.82 127.98 869.97 Z" fill="#e55b48" fill-rule="nonzero" group-id="1,16" node-id="949" stroke="none" target-height="34.44995" target-width="34.439995" target-x="112.32" target-y="838.32007"></path></g><g node-id="1044"><path d="M 128.92 957.04 L 136.19 959.75 L 133.48 967.02 C 132.97 968.39 133.67 969.91 135.04 970.42 C 136.41 970.93 137.93 970.23 138.44 968.86 L 141.15 961.59 L 148.42 964.30 C 149.79 964.81 151.31 964.11 151.82 962.74 C 152.33 961.37 151.63 959.85 150.26 959.34 L 142.99 956.63 L 145.70 949.36 C 146.21 947.99 145.51 946.47 144.14 945.96 C 142.77 945.45 141.25 946.15 140.74 947.52 L 138.03 954.79 L 130.76 952.08 C 129.39 951.57 127.87 952.27 127.36 953.64 C 126.85 955.00 127.55 956.53 128.92 957.04 Z" fill="#fcaa3d" fill-rule="nonzero" group-id="1,17" node-id="954" stroke="none" target-height="25.47998" target-width="25.480003" target-x="126.85" target-y="945.45"></path></g><g node-id="1045"><path d="M 231.33 854.40 L 235.05 852.70 L 236.75 856.42 C 237.07 857.12 237.90 857.43 238.60 857.11 C 239.30 856.79 239.61 855.96 239.29 855.26 L 237.59 851.54 L 241.31 849.84 C 242.01 849.52 242.32 848.69 242.00 847.99 C 241.68 847.29 240.85 846.98 240.15 847.30 L 236.43 849.00 L 234.73 845.28 C 234.41 844.58 233.58 844.27 232.88 844.59 C 232.18 844.91 231.87 845.74 232.19 846.44 L 233.89 850.16 L 230.17 851.86 C 229.47 852.18 229.16 853.01 229.48 853.71 C 229.80 854.41 230.63 854.72 231.33 854.40 Z" fill="#46bcfc" fill-rule="nonzero" group-id="1,18" node-id="959" stroke="none" target-height="13.159912" target-width="13.160019" target-x="229.16" target-y="844.2701"></path></g><g node-id="1046"><path d="M 355.18 948.30 C 355.67 949.37 356.93 949.84 358.00 949.35 L 363.55 946.81 L 360.01 951.78 C 359.33 952.74 359.55 954.07 360.51 954.75 C 361.47 955.43 362.80 955.21 363.48 954.25 L 367.02 949.28 L 366.44 955.35 C 366.33 956.52 367.19 957.56 368.36 957.67 C 369.53 957.78 370.57 956.92 370.68 955.75 L 371.26 949.68 L 373.80 955.23 C 374.29 956.30 375.55 956.77 376.62 956.28 C 377.69 955.79 378.16 954.53 377.67 953.46 L 375.13 947.91 L 380.10 951.45 C 381.06 952.13 382.39 951.91 383.07 950.95 C 383.75 949.99 383.53 948.66 382.57 947.98 L 377.60 944.44 L 383.67 945.02 C 384.84 945.13 385.88 944.28 385.99 943.10 C 386.10 941.93 385.24 940.89 384.07 940.78 L 377.99 940.20 L 383.54 937.66 C 384.61 937.17 385.08 935.91 384.59 934.84 C 384.10 933.77 382.84 933.30 381.77 933.79 L 376.22 936.33 L 379.76 931.36 C 380.44 930.40 380.22 929.07 379.26 928.39 C 378.62 927.93 377.81 927.88 377.14 928.19 C 376.81 928.34 376.52 928.58 376.29 928.89 L 372.75 933.86 L 373.33 927.79 C 373.44 926.62 372.58 925.58 371.41 925.47 C 371.03 925.43 370.65 925.50 370.33 925.65 C 369.66 925.96 369.17 926.60 369.09 927.38 L 368.51 933.46 L 365.97 927.91 C 365.48 926.84 364.22 926.37 363.15 926.86 C 362.08 927.35 361.61 928.61 362.10 929.68 L 364.63 935.23 L 359.66 931.69 C 359.02 931.23 358.21 931.18 357.54 931.49 C 357.21 931.64 356.92 931.88 356.69 932.19 C 356.01 933.15 356.23 934.48 357.19 935.16 L 362.16 938.70 L 356.09 938.12 C 355.71 938.08 355.33 938.15 355.01 938.30 C 354.34 938.61 353.85 939.25 353.77 940.03 C 353.66 941.20 354.52 942.24 355.69 942.35 L 361.76 942.93 L 356.21 945.46 C 355.16 945.97 354.69 947.23 355.18 948.30 Z" fill="#46bcfc" fill-rule="nonzero" group-id="1,19" node-id="964" stroke="none" target-height="32.350037" target-width="32.440033" target-x="353.65997" target-y="925.43"></path></g><g node-id="1047"><path d="M 317.20 910.23 L 312.49 905.31 L 306.24 908.01 L 309.47 902.01 L 304.96 896.89 L 311.67 898.11 L 315.14 892.24 L 316.05 899.00 L 322.71 900.49 L 316.56 903.45 Z" fill="#fcaa3d" fill-rule="nonzero" group-id="1,20" node-id="969" stroke="none" target-height="17.990051" target-width="17.75" target-x="304.96" target-y="892.2399"></path></g><g node-id="1048"><path d="M 135.97 795.66 L 130.86 790.31 L 124.07 793.25 L 127.57 786.74 L 122.68 781.19 L 129.96 782.51 L 133.73 776.14 L 134.72 783.47 L 141.93 785.08 L 135.27 788.29 Z" fill="#e55b48" fill-rule="nonzero" group-id="1,21" node-id="974" stroke="none" target-height="19.52002" target-width="19.249992" target-x="122.68" target-y="776.13995"></path></g><g node-id="1049"><path d="M 199.53 917.38 C 199.53 919.49 198.69 921.51 197.20 923.00 C 195.71 924.49 193.69 925.33 191.58 925.33 C 189.47 925.33 187.45 924.49 185.96 923.00 C 184.47 921.51 183.63 919.49 183.63 917.38 C 183.63 915.27 184.47 913.25 185.96 911.76 C 187.45 910.27 189.47 909.43 191.58 909.43 C 193.69 909.43 195.71 910.27 197.20 911.76 C 198.69 913.25 199.53 915.27 199.53 917.38 Z" fill="#fcaa3d" fill-rule="nonzero" group-id="1,22" node-id="979" stroke="none" target-height="15.899963" target-width="15.899994" target-x="183.63" target-y="909.43"></path></g><path d="M 393.11 886.82 C 393.11 889.71 390.77 892.05 387.88 892.05 C 384.99 892.05 382.65 889.71 382.65 886.82 C 382.65 883.93 384.99 881.59 387.88 881.59 C 390.77 881.59 393.11 883.93 393.11 886.82 Z" fill="#46bcfc" fill-rule="nonzero" group-id="1,23" node-id="984" stroke="none" target-height="10.459961" target-width="10.459991" target-x="382.65" target-y="881.59"></path></g><g node-id="1029"><path d="M 472.20 262.04 L 395.09 262.04 L 327.42 171.36 C 324.97 168.07 322.18 165.07 319.17 162.48 L 376.36 162.48 C 389.92 162.48 402.65 168.84 410.76 179.75 L 472.20 262.04 Z" fill="#f2a536" fill-rule="nonzero" group-id="2" node-id="990" stroke="none" target-height="99.56001" target-width="153.03003" target-x="319.17" target-y="162.48"></path><path d="M 696.55 290.00 L 388.10 290.00 C 383.70 290.00 379.57 287.90 376.91 284.41 L 305.04 188.07 C 299.59 180.80 290.92 176.46 281.83 176.46 L 269.67 176.46 C 268.62 177.51 267.71 178.63 266.87 179.75 L 203.53 264.55 C 198.01 271.96 195.00 280.98 195.00 290.28 L 195.00 723.24 C 195.00 752.53 210.45 778.47 233.73 793.57 L 696.55 793.57 C 719.83 778.47 735.28 752.53 735.28 723.24 L 735.28 360.33 C 735.28 331.04 719.83 305.10 696.55 290.00 Z M 479.61 681.58 C 472.83 682.63 465.84 683.12 458.85 683.12 C 378.10 683.12 312.45 617.40 312.45 536.72 C 312.45 455.97 378.10 390.32 458.85 390.32 C 465.84 390.32 472.83 390.81 479.68 391.79 C 551.20 402.00 605.17 464.29 605.17 536.72 C 605.17 609.15 551.20 671.44 479.61 681.58 Z" fill="#f2a536" fill-rule="nonzero" group-id="2" node-id="992" stroke="none" target-height="617.11" target-width="540.28" target-x="195" target-y="176.46"></path><path d="M 911.67 360.33 L 911.67 723.24 C 911.67 769.59 873.01 807.55 825.75 807.55 L 782.47 807.55 C 811.62 790.35 831.13 758.96 831.13 723.24 L 831.13 652.21 C 831.13 644.52 824.84 638.23 817.15 638.23 L 817.15 528.40 C 824.84 528.40 831.13 522.18 831.13 514.42 L 831.13 360.33 C 831.13 324.60 811.62 293.21 782.47 276.02 L 825.75 276.02 C 873.01 276.02 911.67 313.98 911.67 360.33 Z" fill="#f2a536" fill-rule="nonzero" group-id="2" node-id="994" stroke="none" target-height="531.53" target-width="129.20007" target-x="782.4699" target-y="276.02"></path></g><g node-id="1030"><path d="M 817.15 528.40 L 817.15 638.23 C 809.39 638.23 803.17 644.52 803.17 652.21 L 803.17 723.24 C 803.17 762.04 770.87 793.57 731.23 793.57 L 696.55 793.57 C 719.83 778.47 735.28 752.53 735.28 723.24 L 735.28 360.33 C 735.28 331.04 719.83 305.10 696.55 290.00 L 731.23 290.00 C 770.87 290.00 803.17 321.53 803.17 360.33 L 803.17 514.42 C 803.17 522.18 809.39 528.40 817.15 528.40 Z" fill="#ef4e0f" fill-rule="nonzero" group-id="3" node-id="999" stroke="none" target-height="503.57" target-width="120.6001" target-x="696.5499" target-y="290"></path></g><path d="M 817.13 618.51 C 809.41 618.51 803.15 612.25 803.15 604.53 L 803.15 560.37 C 803.15 552.65 809.41 546.39 817.13 546.39 C 824.85 546.39 831.11 552.65 831.11 560.37 L 831.11 604.53 C 831.11 612.25 824.85 618.51 817.13 618.51 Z M 831.13 360.33 L 831.13 514.42 C 831.13 522.18 824.84 528.40 817.15 528.40 C 809.39 528.40 803.17 522.18 803.17 514.42 L 803.17 360.33 C 803.17 321.53 770.87 290.00 731.23 290.00 L 388.10 290.00 C 383.70 290.00 379.57 287.90 376.91 284.41 L 305.04 188.07 C 299.59 180.80 290.92 176.46 281.83 176.46 L 206.74 176.46 C 197.65 176.46 188.98 180.79 183.53 188.07 L 159.13 220.79 C 154.52 226.94 145.78 228.20 139.55 223.66 C 133.40 218.98 132.14 210.24 136.75 204.08 L 161.15 171.36 C 171.85 157.03 188.91 148.50 206.73 148.50 L 281.82 148.50 C 295.59 148.50 308.88 153.60 319.15 162.48 C 322.16 165.07 324.95 168.07 327.40 171.36 L 395.07 262.04 L 515.25 262.04 C 518.05 225.34 548.67 196.46 586.14 196.46 C 623.54 196.46 654.16 225.33 656.96 262.04 L 731.21 262.04 C 749.95 262.04 767.49 267.14 782.46 276.02 C 811.63 293.22 831.13 324.61 831.13 360.33 Z M 628.88 262.04 C 626.15 240.93 608.05 224.43 586.16 224.43 C 564.21 224.43 546.10 240.93 543.37 262.04 L 628.88 262.04 Z M 817.15 638.23 C 809.39 638.23 803.17 644.52 803.17 652.21 L 803.17 723.24 C 803.17 762.04 770.87 793.57 731.23 793.57 L 186.40 793.57 C 146.76 793.57 114.46 762.04 114.46 723.24 L 114.46 482.68 C 114.46 474.92 108.17 468.70 100.48 468.70 C 92.79 468.70 86.50 474.92 86.50 482.68 L 86.50 723.25 C 86.50 777.43 131.31 821.55 186.40 821.55 L 731.22 821.55 C 749.96 821.55 767.50 816.45 782.47 807.57 C 811.62 790.37 831.13 758.98 831.13 723.26 L 831.13 652.23 C 831.13 644.53 824.84 638.23 817.15 638.23 Z M 114.47 415.54 L 114.47 370.50 C 114.47 362.78 108.21 356.52 100.49 356.52 C 92.77 356.52 86.50 362.78 86.50 370.50 L 86.50 415.54 C 86.50 423.26 92.76 429.52 100.48 429.52 C 108.20 429.52 114.47 423.26 114.47 415.54 Z M 114.47 313.10 L 114.47 290.28 C 114.47 286.91 115.07 283.55 116.26 280.33 C 118.15 275.21 116.28 269.46 111.90 266.19 L 109.27 264.23 L 109.27 264.23 C 102.52 259.52 93.11 262.41 90.20 270.11 C 87.77 276.53 86.49 283.39 86.49 290.28 L 86.49 312.51 C 86.49 318.62 90.09 324.51 95.91 326.36 C 105.58 329.42 114.47 322.30 114.47 313.10 Z" fill="#000000" fill-rule="nonzero" node-id="1002" stroke="none" target-height="673.0499" target-width="744.64" target-x="86.49" target-y="148.5"></path><path d="M 605.18 536.72 C 605.18 609.15 551.21 671.44 479.62 681.58 C 472.84 682.63 465.85 683.12 458.86 683.12 C 378.11 683.12 312.46 617.40 312.46 536.72 C 312.46 455.97 378.11 390.32 458.86 390.32 C 465.85 390.32 472.84 390.81 479.69 391.79 C 551.20 402.00 605.18 464.29 605.18 536.72 Z" fill="#ffffff" fill-rule="nonzero" node-id="1004" stroke="none" target-height="292.8" target-width="292.72" target-x="312.46" target-y="390.32"></path><path d="M 483.67 364.18 C 475.56 362.99 467.17 362.36 458.85 362.36 C 362.72 362.36 284.49 440.59 284.49 536.72 C 284.49 632.85 362.72 711.08 458.85 711.08 C 467.24 711.08 475.56 710.45 483.60 709.26 C 568.82 697.17 633.14 622.99 633.14 536.72 C 633.14 450.45 568.82 376.27 483.67 364.18 Z M 458.85 683.12 C 378.10 683.12 312.45 617.40 312.45 536.72 C 312.45 455.97 378.10 390.32 458.85 390.32 C 465.84 390.32 472.83 390.81 479.68 391.79 C 551.20 402.00 605.17 464.29 605.17 536.72 C 605.17 609.15 551.20 671.44 479.61 681.58 C 472.83 682.63 465.84 683.12 458.85 683.12 Z" fill="#000000" fill-rule="nonzero" node-id="1006" stroke="none" target-height="348.72003" target-width="348.65002" target-x="284.49" target-y="362.36"></path><g node-id="1031"><g node-id="1051"><path d="M 390.71 518.76 C 378.86 518.76 369.23 509.12 369.23 497.28 C 369.23 485.43 378.87 475.80 390.71 475.80 C 402.56 475.80 412.19 485.44 412.19 497.28 C 412.19 509.13 402.55 518.76 390.71 518.76 Z" fill="#000000" fill-rule="nonzero" group-id="4,24" node-id="1012" stroke="none" target-height="42.960022" target-width="42.95993" target-x="369.23004" target-y="475.8"></path></g></g><g node-id="1032"><g node-id="1052"><path d="M 505.42 497.28 C 505.42 485.43 515.06 475.80 526.90 475.80 C 538.74 475.80 548.38 485.44 548.38 497.28 C 548.38 509.13 538.74 518.76 526.90 518.76 C 515.06 518.76 505.42 509.13 505.42 497.28 Z" fill="#000000" fill-rule="nonzero" group-id="5,25" node-id="1020" stroke="none" target-height="42.960022" target-width="42.95999" target-x="505.42" target-y="475.8"></path></g></g><path d="M 477.38 574.33 C 473.12 579.99 466.40 583.63 458.78 583.63 C 451.23 583.63 444.45 579.99 440.18 574.33 L 477.38 574.33 Z" fill="#ffffff" fill-rule="nonzero" node-id="1024" stroke="none" target-height="9.299988" target-width="37.200012" target-x="440.18" target-y="574.33"></path><path d="M 496.04 546.37 L 421.51 546.37 C 413.82 546.37 407.53 552.66 407.53 560.35 C 407.53 588.59 430.53 611.60 458.78 611.60 C 487.02 611.60 510.03 588.60 510.03 560.35 C 510.03 552.66 503.80 546.37 496.04 546.37 Z M 458.78 583.63 C 451.23 583.63 444.45 579.99 440.18 574.33 L 477.37 574.33 C 473.11 580.00 466.40 583.63 458.78 583.63 Z" fill="#000000" fill-rule="nonzero" node-id="1026" stroke="none" target-height="65.22998" target-width="102.5" target-x="407.53" target-y="546.37"></path></svg>