<?xml version="1.0" standalone="no"?><!DOCTYPE svg PUBLIC "-//W3C//DTD SVG 1.1//EN" "http://www.w3.org/Graphics/SVG/1.1/DTD/svg11.dtd"><svg height="1024" node-id="1" sillyvg="true" template-height="1024" template-width="1024" version="1.1" viewBox="0 0 1024 1024" width="1024" xmlns="http://www.w3.org/2000/svg" xmlns:xlink="http://www.w3.org/1999/xlink"><defs node-id="892"></defs><g node-id="998"><g node-id="999"><path d="M 828.63 143.96 L 817.71 143.96 L 817.71 133.04 C 817.71 130.98 816.04 129.32 813.99 129.32 C 811.93 129.32 810.27 130.99 810.27 133.04 L 810.27 143.96 L 799.36 143.96 C 797.30 143.96 795.64 145.63 795.64 147.68 C 795.64 149.74 797.31 151.40 799.36 151.40 L 810.27 151.40 L 810.27 162.31 C 810.27 164.37 811.94 166.03 813.99 166.03 C 816.05 166.03 817.71 164.36 817.71 162.31 L 817.71 151.40 L 828.63 151.40 C 830.69 151.40 832.35 149.73 832.35 147.68 C 832.35 145.63 830.68 143.96 828.63 143.96 Z" fill="#e55b48" fill-rule="nonzero" group-id="1,2" node-id="899" stroke="none" target-height="36.70999" target-width="36.7099" target-x="795.6401" target-y="129.32"></path></g><g node-id="1000"><path d="M 884.21 279.48 L 880.83 282.86 L 877.45 279.48 C 876.81 278.84 875.78 278.84 875.14 279.48 C 874.50 280.12 874.50 281.15 875.14 281.79 L 878.52 285.17 L 875.14 288.55 C 874.50 289.19 874.50 290.22 875.14 290.86 C 875.78 291.50 876.81 291.50 877.45 290.86 L 880.83 287.48 L 884.21 290.86 C 884.85 291.50 885.88 291.50 886.52 290.86 C 887.16 290.22 887.16 289.19 886.52 288.55 L 883.14 285.17 L 886.52 281.79 C 887.16 281.15 887.16 280.12 886.52 279.48 C 885.88 278.85 884.85 278.85 884.21 279.48 Z" fill="#e55b48" fill-rule="nonzero" group-id="1,3" node-id="904" stroke="none" target-height="12.660004" target-width="12.660034" target-x="874.5" target-y="278.84"></path></g><g node-id="1001"><path d="M 923.58 193.12 L 918.09 187.63 L 923.58 182.14 C 924.61 181.11 924.61 179.43 923.58 178.40 C 922.55 177.37 920.87 177.37 919.84 178.40 L 914.35 183.89 L 908.86 178.40 C 907.83 177.37 906.15 177.37 905.12 178.40 C 904.09 179.43 904.09 181.11 905.12 182.14 L 910.61 187.63 L 905.12 193.12 C 904.09 194.15 904.09 195.83 905.12 196.86 C 906.15 197.89 907.83 197.89 908.86 196.86 L 914.35 191.37 L 919.84 196.86 C 920.87 197.89 922.55 197.89 923.58 196.86 C 924.62 195.82 924.62 194.15 923.58 193.12 Z" fill="#60c46c" fill-rule="nonzero" group-id="1,4" node-id="909" stroke="none" target-height="20.52002" target-width="20.529968" target-x="904.09" target-y="177.37"></path></g><g node-id="1002"><path d="M 787.78 243.91 L 783.69 243.91 L 783.69 239.82 C 783.69 239.05 783.06 238.42 782.29 238.42 C 781.52 238.42 780.89 239.05 780.89 239.82 L 780.89 243.91 L 776.80 243.91 C 776.03 243.91 775.40 244.54 775.40 245.31 C 775.40 246.08 776.03 246.71 776.80 246.71 L 780.89 246.71 L 780.89 250.80 C 780.89 251.57 781.52 252.20 782.29 252.20 C 783.06 252.20 783.69 251.57 783.69 250.80 L 783.69 246.71 L 787.78 246.71 C 788.55 246.71 789.18 246.08 789.18 245.31 C 789.17 244.54 788.55 243.91 787.78 243.91 Z" fill="#46bcfc" fill-rule="nonzero" group-id="1,5" node-id="914" stroke="none" target-height="13.780014" target-width="13.779968" target-x="775.4" target-y="238.41998"></path></g><g node-id="1003"><path d="M 691.84 86.60 C 691.84 84.96 690.51 83.63 688.87 83.63 L 680.34 83.63 L 687.72 79.37 C 689.14 78.55 689.63 76.73 688.81 75.31 C 687.99 73.88 686.17 73.40 684.75 74.22 L 677.37 78.48 L 681.63 71.10 C 682.45 69.68 681.96 67.86 680.54 67.04 C 679.12 66.22 677.30 66.70 676.48 68.13 L 672.22 75.51 L 672.22 66.99 C 672.22 65.35 670.89 64.02 669.25 64.02 C 667.61 64.02 666.28 65.35 666.28 66.99 L 666.28 75.52 L 662.02 68.14 C 661.20 66.71 659.38 66.23 657.96 67.05 C 656.54 67.87 656.05 69.69 656.87 71.11 L 661.13 78.49 L 653.75 74.23 C 652.33 73.41 650.51 73.89 649.69 75.32 C 648.87 76.74 649.36 78.56 650.78 79.38 L 658.16 83.64 L 649.63 83.64 C 647.99 83.64 646.66 84.97 646.66 86.61 C 646.66 88.25 647.99 89.58 649.63 89.58 L 658.15 89.58 L 650.77 93.84 C 649.35 94.66 648.86 96.48 649.68 97.90 C 650.23 98.85 651.23 99.39 652.26 99.39 C 652.77 99.39 653.28 99.26 653.74 98.99 L 661.12 94.73 L 656.86 102.11 C 656.04 103.53 656.53 105.35 657.95 106.17 C 658.42 106.44 658.93 106.57 659.43 106.57 C 660.46 106.57 661.46 106.04 662.01 105.08 L 666.27 97.70 L 666.27 106.23 C 666.27 107.87 667.60 109.20 669.24 109.20 C 670.88 109.20 672.21 107.87 672.21 106.23 L 672.21 97.70 L 676.47 105.08 C 677.02 106.03 678.02 106.57 679.05 106.57 C 679.56 106.57 680.07 106.44 680.53 106.17 C 681.95 105.35 682.44 103.53 681.62 102.11 L 677.36 94.73 L 684.74 98.99 C 685.21 99.26 685.72 99.39 686.22 99.39 C 687.25 99.39 688.25 98.86 688.80 97.90 C 689.62 96.48 689.13 94.66 687.71 93.84 L 680.33 89.58 L 688.85 89.58 C 690.51 89.58 691.84 88.25 691.84 86.60 Z" fill="#e25987" fill-rule="nonzero" group-id="1,6" node-id="919" stroke="none" target-height="45.18" target-width="45.180054" target-x="646.66" target-y="64.02"></path></g><g node-id="1004"><path d="M 732.87 157.44 L 735.11 163.88 L 741.93 164.02 L 736.49 168.13 L 738.47 174.66 L 732.87 170.76 L 727.28 174.66 L 729.25 168.13 L 723.82 164.02 L 730.64 163.88 Z" fill="#fcaa3d" fill-rule="nonzero" group-id="1,7" node-id="924" stroke="none" target-height="17.219986" target-width="18.110107" target-x="723.81995" target-y="157.44"></path></g><g node-id="1005"><path d="M 850.10 329.43 L 854.49 342.05 L 867.86 342.32 L 857.20 350.40 L 861.07 363.19 L 850.10 355.56 L 839.13 363.19 L 843.00 350.40 L 832.35 342.32 L 845.71 342.05 Z" fill="#46bcfc" fill-rule="nonzero" group-id="1,8" node-id="929" stroke="none" target-height="33.75998" target-width="35.51001" target-x="832.35" target-y="329.43"></path></g><g node-id="1006"><path d="M 858.05 203.14 C 858.05 205.25 857.21 207.27 855.72 208.76 C 854.23 210.25 852.21 211.09 850.10 211.09 C 847.99 211.09 845.97 210.25 844.48 208.76 C 842.99 207.27 842.15 205.25 842.15 203.14 C 842.15 201.03 842.99 199.01 844.48 197.52 C 845.97 196.03 847.99 195.19 850.10 195.19 C 852.21 195.19 854.23 196.03 855.72 197.52 C 857.21 199.01 858.05 201.03 858.05 203.14 Z" fill="#fcaa3d" fill-rule="nonzero" group-id="1,9" node-id="934" stroke="none" target-height="15.899994" target-width="15.900024" target-x="842.14996" target-y="195.19"></path></g><g node-id="1007"><path d="M 653.66 156.59 C 653.66 159.48 651.32 161.82 648.43 161.82 C 645.54 161.82 643.20 159.48 643.20 156.59 C 643.20 153.70 645.54 151.36 648.43 151.36 C 651.32 151.36 653.66 153.70 653.66 156.59 Z" fill="#46bcfc" fill-rule="nonzero" group-id="1,10" node-id="939" stroke="none" target-height="10.459991" target-width="10.459961" target-x="643.2" target-y="151.36"></path></g><g node-id="1008"><path d="M 221.44 974.69 L 232.32 969.72 L 237.29 980.60 C 238.23 982.65 240.65 983.55 242.70 982.62 C 244.75 981.68 245.65 979.26 244.72 977.21 L 239.75 966.33 L 250.63 961.36 C 252.68 960.42 253.58 958.00 252.65 955.95 C 251.71 953.90 249.29 953.00 247.24 953.93 L 236.36 958.90 L 231.39 948.02 C 230.45 945.97 228.03 945.07 225.98 946.00 C 223.93 946.94 223.03 949.36 223.96 951.41 L 228.93 962.29 L 218.05 967.26 C 216.00 968.20 215.10 970.62 216.03 972.67 C 216.97 974.72 219.39 975.63 221.44 974.69 Z" fill="#60c46c" fill-rule="nonzero" group-id="1,11" node-id="944" stroke="none" target-height="38.47992" target-width="38.479996" target-x="215.1" target-y="945.07"></path></g><g node-id="1009"><path d="M 114.84 881.47 L 118.50 871.64 L 128.33 875.30 C 130.18 875.99 132.24 875.05 132.93 873.20 C 133.62 871.35 132.68 869.29 130.83 868.60 L 121.00 864.94 L 124.66 855.11 C 125.35 853.26 124.41 851.20 122.56 850.51 C 120.71 849.82 118.65 850.76 117.96 852.61 L 114.30 862.44 L 104.47 858.78 C 102.62 858.09 100.56 859.03 99.87 860.88 C 99.18 862.73 100.12 864.79 101.97 865.48 L 111.80 869.14 L 108.14 878.97 C 107.45 880.82 108.39 882.88 110.24 883.57 C 112.09 884.27 114.15 883.33 114.84 881.47 Z" fill="#e55b48" fill-rule="nonzero" group-id="1,12" node-id="949" stroke="none" target-height="34.450073" target-width="34.439995" target-x="99.18" target-y="849.81995"></path></g><g node-id="1010"><path d="M 115.77 968.54 L 123.04 971.25 L 120.33 978.52 C 119.82 979.89 120.52 981.41 121.89 981.92 C 123.26 982.43 124.78 981.73 125.29 980.36 L 128.00 973.09 L 135.27 975.80 C 136.64 976.31 138.16 975.61 138.67 974.24 C 139.18 972.87 138.48 971.35 137.11 970.84 L 129.84 968.13 L 132.55 960.86 C 133.06 959.49 132.36 957.97 130.99 957.46 C 129.62 956.95 128.10 957.65 127.59 959.02 L 124.88 966.29 L 117.61 963.58 C 116.24 963.07 114.72 963.77 114.21 965.14 C 113.71 966.50 114.40 968.03 115.77 968.54 Z" fill="#fcaa3d" fill-rule="nonzero" group-id="1,13" node-id="954" stroke="none" target-height="25.480042" target-width="25.469994" target-x="113.71" target-y="956.95"></path></g><g node-id="1011"><path d="M 218.19 865.90 L 221.91 864.20 L 223.61 867.92 C 223.93 868.62 224.76 868.93 225.46 868.61 C 226.16 868.29 226.47 867.46 226.15 866.76 L 224.45 863.04 L 228.17 861.34 C 228.87 861.02 229.18 860.19 228.86 859.49 C 228.54 858.79 227.71 858.48 227.01 858.80 L 223.29 860.50 L 221.59 856.78 C 221.27 856.08 220.44 855.77 219.74 856.09 C 219.04 856.41 218.73 857.24 219.05 857.94 L 220.75 861.66 L 217.03 863.36 C 216.33 863.68 216.02 864.51 216.34 865.21 C 216.66 865.91 217.49 866.22 218.19 865.90 Z" fill="#46bcfc" fill-rule="nonzero" group-id="1,14" node-id="959" stroke="none" target-height="13.160034" target-width="13.159988" target-x="216.02" target-y="855.77"></path></g><g node-id="1012"><path d="M 342.04 959.80 C 342.53 960.87 343.79 961.34 344.86 960.85 L 350.41 958.31 L 346.87 963.28 C 346.19 964.24 346.41 965.57 347.37 966.25 C 348.33 966.93 349.66 966.71 350.34 965.75 L 353.88 960.78 L 353.30 966.85 C 353.19 968.02 354.05 969.06 355.22 969.17 C 356.39 969.28 357.43 968.42 357.54 967.25 L 358.12 961.18 L 360.66 966.73 C 361.15 967.80 362.41 968.27 363.48 967.78 C 364.55 967.29 365.02 966.03 364.53 964.96 L 361.99 959.41 L 366.96 962.95 C 367.92 963.63 369.25 963.41 369.93 962.45 C 370.61 961.49 370.39 960.16 369.43 959.48 L 364.46 955.94 L 370.53 956.52 C 371.70 956.63 372.74 955.78 372.85 954.60 C 372.96 953.43 372.10 952.39 370.93 952.28 L 364.85 951.70 L 370.40 949.16 C 371.47 948.67 371.94 947.41 371.45 946.34 C 370.96 945.27 369.70 944.80 368.63 945.29 L 363.08 947.83 L 366.62 942.86 C 367.30 941.90 367.08 940.57 366.12 939.89 C 365.48 939.43 364.67 939.38 364.00 939.69 C 363.67 939.84 363.38 940.08 363.15 940.39 L 359.61 945.36 L 360.19 939.29 C 360.30 938.12 359.44 937.08 358.27 936.97 C 357.89 936.93 357.51 937.00 357.19 937.15 C 356.52 937.46 356.03 938.10 355.95 938.88 L 355.37 944.96 L 352.83 939.41 C 352.34 938.34 351.08 937.87 350.01 938.36 C 348.94 938.85 348.47 940.11 348.96 941.18 L 351.49 946.73 L 346.52 943.19 C 345.88 942.73 345.07 942.68 344.40 942.99 C 344.07 943.14 343.78 943.38 343.55 943.69 C 342.87 944.65 343.09 945.98 344.05 946.66 L 349.02 950.20 L 342.95 949.62 C 342.57 949.58 342.19 949.65 341.87 949.80 C 341.20 950.11 340.71 950.75 340.63 951.53 C 340.52 952.70 341.38 953.74 342.55 953.85 L 348.62 954.43 L 343.07 956.96 C 342.02 957.47 341.55 958.73 342.04 959.80 Z" fill="#46bcfc" fill-rule="nonzero" group-id="1,15" node-id="964" stroke="none" target-height="32.350098" target-width="32.440033" target-x="340.52" target-y="936.93"></path></g><g node-id="1013"><path d="M 304.06 921.73 L 299.35 916.81 L 293.10 919.51 L 296.32 913.51 L 291.82 908.40 L 298.52 909.61 L 302.00 903.74 L 302.91 910.50 L 309.56 911.99 L 303.42 914.95 Z" fill="#fcaa3d" fill-rule="nonzero" group-id="1,16" node-id="969" stroke="none" target-height="17.98999" target-width="17.73999" target-x="291.82" target-y="903.74"></path></g><g node-id="1014"><path d="M 122.83 807.16 L 117.72 801.81 L 110.93 804.75 L 114.43 798.24 L 109.54 792.69 L 116.82 794.01 L 120.58 787.64 L 121.58 794.97 L 128.79 796.59 L 122.13 799.79 Z" fill="#e55b48" fill-rule="nonzero" group-id="1,17" node-id="974" stroke="none" target-height="19.519958" target-width="19.249992" target-x="109.54" target-y="787.64"></path></g><g node-id="1015"><path d="M 186.39 928.88 C 186.39 930.99 185.55 933.01 184.06 934.50 C 182.57 935.99 180.55 936.83 178.44 936.83 C 176.33 936.83 174.31 935.99 172.82 934.50 C 171.33 933.01 170.49 930.99 170.49 928.88 C 170.49 926.77 171.33 924.75 172.82 923.26 C 174.31 921.77 176.33 920.93 178.44 920.93 C 180.55 920.93 182.57 921.77 184.06 923.26 C 185.55 924.75 186.39 926.77 186.39 928.88 Z" fill="#fcaa3d" fill-rule="nonzero" group-id="1,18" node-id="979" stroke="none" target-height="15.900024" target-width="15.899994" target-x="170.49" target-y="920.93"></path></g><path d="M 379.97 898.32 C 379.97 901.21 377.63 903.55 374.74 903.55 C 371.85 903.55 369.51 901.21 369.51 898.32 C 369.51 895.43 371.85 893.09 374.74 893.09 C 377.63 893.09 379.97 895.43 379.97 898.32 Z" fill="#46bcfc" fill-rule="nonzero" group-id="1,19" node-id="984" stroke="none" target-height="10.459961" target-width="10.460022" target-x="369.50998" target-y="893.09"></path></g><path d="M 328.32 400.64 L 285.32 378.48 C 285.74 368.20 290.07 358.48 297.34 351.14 L 328.31 320.03 L 328.31 400.64 Z M 648.45 304.51 L 648.45 400.64 L 704.52 371.77 L 704.52 363.38 L 648.45 304.51 Z M 704.52 403.23 L 704.52 808.58 C 704.52 838.22 689.21 864.37 666.07 879.61 L 323.64 879.61 C 300.50 864.37 285.19 838.15 285.19 808.58 L 285.19 409.94 L 328.33 432.10 L 441.52 490.34 L 482.35 511.31 C 484.31 512.29 486.34 512.71 488.43 512.71 C 490.60 512.71 492.76 512.22 494.79 511.17 L 648.46 432.10 L 704.52 403.23 Z M 522.89 659.17 L 453.96 659.17 C 459.48 672.80 472.84 682.38 488.43 682.38 C 503.94 682.38 517.29 672.81 522.89 659.17 Z" fill="#f2a536" fill-rule="nonzero" node-id="988" stroke="none" target-height="575.10004" target-width="419.33002" target-x="285.19" target-y="304.51"></path><path d="M 522.89 659.17 C 517.30 672.80 503.94 682.38 488.42 682.38 C 472.83 682.38 459.48 672.80 453.95 659.17 L 522.89 659.17 Z" fill="#ffffff" fill-rule="nonzero" node-id="990" stroke="none" target-height="23.210022" target-width="68.94" target-x="453.95" target-y="659.17"></path><path d="M 771.56 658.27 L 771.56 688.12 C 771.56 695.81 777.85 702.10 785.54 702.10 L 785.54 738.10 C 777.85 738.10 771.56 744.32 771.56 752.08 L 771.56 794.38 C 771.56 841.36 739.68 879.60 700.46 879.60 L 666.06 879.60 C 689.20 864.36 704.51 838.21 704.51 808.57 L 704.51 403.23 L 771.56 368.76 L 771.56 590.03 C 771.56 597.72 777.85 604.01 785.54 604.01 L 785.54 644.28 C 777.86 644.28 771.56 650.51 771.56 658.27 Z M 761.92 342.26 L 648.45 231.17 L 648.45 304.51 L 704.52 363.38 L 704.52 371.77 L 761.92 342.26 Z" fill="#ef4e0f" fill-rule="nonzero" node-id="992" stroke="none" target-height="648.42993" target-width="137.08997" target-x="648.45" target-y="231.17001"></path><path d="M 620.48 161.33 L 620.48 415.04 L 488.42 483.00 L 356.29 415.05 L 356.29 161.33 C 356.29 145.53 369.08 132.74 384.81 132.74 L 591.96 132.74 C 607.69 132.74 620.48 145.53 620.48 161.33 Z" fill="#ffffff" fill-rule="nonzero" node-id="994" stroke="none" target-height="350.26" target-width="264.18994" target-x="356.29004" target-y="132.74"></path><path d="M 570.85 358.62 L 468.22 358.62 C 460.39 358.62 454.10 364.98 454.10 372.81 C 454.10 380.64 460.39 387.00 468.22 387.00 L 570.85 387.00 C 578.68 387.00 585.04 380.64 585.04 372.81 C 585.04 364.98 578.68 358.62 570.85 358.62 Z M 422.07 358.62 C 414.24 358.62 407.88 364.98 407.88 372.81 C 407.88 380.64 414.24 387.00 422.07 387.00 C 429.90 387.00 436.26 380.64 436.26 372.81 C 436.26 364.98 429.90 358.62 422.07 358.62 Z M 570.85 283.19 L 468.22 283.19 C 460.39 283.19 454.10 289.55 454.10 297.38 C 454.10 305.21 460.39 311.57 468.22 311.57 L 570.85 311.57 C 578.68 311.57 585.04 305.21 585.04 297.38 C 585.04 289.55 578.68 283.19 570.85 283.19 Z M 422.07 283.19 C 414.24 283.19 407.88 289.55 407.88 297.38 C 407.88 305.21 414.24 311.57 422.07 311.57 C 429.90 311.57 436.26 305.21 436.26 297.38 C 436.26 289.55 429.90 283.19 422.07 283.19 Z M 570.85 207.82 L 468.22 207.82 C 460.39 207.82 454.10 214.11 454.10 221.94 C 454.10 229.77 460.39 236.13 468.22 236.13 L 570.85 236.13 C 578.68 236.13 585.04 229.77 585.04 221.94 C 585.04 214.11 578.68 207.82 570.85 207.82 Z M 422.07 207.75 C 414.24 207.75 407.88 214.11 407.88 221.94 C 407.88 229.77 414.24 236.13 422.07 236.13 C 429.90 236.13 436.26 229.77 436.26 221.94 C 436.27 214.11 429.90 207.75 422.07 207.75 Z M 191.23 462.30 C 183.47 462.30 177.25 468.59 177.25 476.28 L 177.25 517.53 C 177.25 525.22 183.47 531.51 191.23 531.51 C 198.92 531.51 205.21 525.22 205.21 517.53 L 205.21 476.28 C 205.21 468.59 198.92 462.30 191.23 462.30 Z M 191.23 540.46 C 183.47 540.46 177.25 546.75 177.25 554.44 L 177.25 601.42 C 177.25 609.11 183.47 615.40 191.23 615.40 C 198.92 615.40 205.21 609.11 205.21 601.42 L 205.21 554.44 C 205.21 546.76 198.92 540.46 191.23 540.46 Z M 468.22 236.14 L 570.85 236.14 C 578.68 236.14 585.04 229.78 585.04 221.95 C 585.04 214.12 578.68 207.83 570.85 207.83 L 468.22 207.83 C 460.39 207.83 454.10 214.12 454.10 221.95 C 454.09 229.78 460.39 236.14 468.22 236.14 Z M 570.85 283.19 L 468.22 283.19 C 460.39 283.19 454.10 289.55 454.10 297.38 C 454.10 305.21 460.39 311.57 468.22 311.57 L 570.85 311.57 C 578.68 311.57 585.04 305.21 585.04 297.38 C 585.04 289.55 578.68 283.19 570.85 283.19 Z M 570.85 358.62 L 468.22 358.62 C 460.39 358.62 454.10 364.98 454.10 372.81 C 454.10 380.64 460.39 387.00 468.22 387.00 L 570.85 387.00 C 578.68 387.00 585.04 380.64 585.04 372.81 C 585.04 364.98 578.68 358.62 570.85 358.62 Z M 422.07 207.75 C 414.24 207.75 407.88 214.11 407.88 221.94 C 407.88 229.77 414.24 236.13 422.07 236.13 C 429.90 236.13 436.26 229.77 436.26 221.94 C 436.27 214.11 429.90 207.75 422.07 207.75 Z M 422.07 283.19 C 414.24 283.19 407.88 289.55 407.88 297.38 C 407.88 305.21 414.24 311.57 422.07 311.57 C 429.90 311.57 436.26 305.21 436.26 297.38 C 436.26 289.55 429.90 283.19 422.07 283.19 Z M 422.07 358.62 C 414.24 358.62 407.88 364.98 407.88 372.81 C 407.88 380.64 414.24 387.00 422.07 387.00 C 429.90 387.00 436.26 380.64 436.26 372.81 C 436.26 364.98 429.90 358.62 422.07 358.62 Z M 795.33 335.83 L 648.45 192.09 L 648.45 161.33 C 648.45 130.15 623.14 104.77 591.96 104.77 L 559.24 104.77 L 498.14 45.00 C 492.76 39.69 484.02 39.69 478.63 45.00 L 417.53 104.77 L 384.81 104.77 C 353.63 104.77 328.32 130.15 328.32 161.33 L 328.32 192.09 L 181.44 335.83 C 178.64 338.56 177.11 342.33 177.25 346.25 L 177.25 419.45 C 177.25 427.14 183.47 433.43 191.23 433.43 C 198.92 433.43 205.21 427.14 205.21 419.45 L 205.21 368.76 L 285.19 409.94 L 328.33 432.10 L 441.52 490.34 L 482.35 511.31 C 484.31 512.29 486.34 512.71 488.43 512.71 C 490.60 512.71 492.76 512.22 494.79 511.17 L 648.46 432.10 L 704.53 403.23 L 771.58 368.76 L 771.58 590.03 C 771.58 597.72 777.87 604.01 785.56 604.01 C 793.32 604.01 799.54 597.72 799.54 590.03 L 799.54 346.60 C 799.54 346.53 799.54 346.53 799.54 346.46 L 799.54 346.25 C 799.67 342.33 798.13 338.56 795.33 335.83 Z M 328.32 400.64 L 285.32 378.48 L 214.85 342.27 L 328.32 231.18 L 328.32 400.64 Z M 488.42 74.50 L 519.32 104.77 L 457.52 104.77 L 488.42 74.50 Z M 620.48 415.04 L 488.42 483.00 L 356.29 415.05 L 356.29 161.33 C 356.29 145.53 369.08 132.74 384.81 132.74 L 591.96 132.74 C 607.69 132.74 620.48 145.53 620.48 161.33 L 620.48 415.04 Z M 704.52 371.77 L 648.45 400.64 L 648.45 231.17 L 761.92 342.26 L 704.52 371.77 Z M 570.85 207.82 L 468.22 207.82 C 460.39 207.82 454.10 214.11 454.10 221.94 C 454.10 229.77 460.39 236.13 468.22 236.13 L 570.85 236.13 C 578.68 236.13 585.04 229.77 585.04 221.94 C 585.04 214.11 578.68 207.82 570.85 207.82 Z M 570.85 283.19 L 468.22 283.19 C 460.39 283.19 454.10 289.55 454.10 297.38 C 454.10 305.21 460.39 311.57 468.22 311.57 L 570.85 311.57 C 578.68 311.57 585.04 305.21 585.04 297.38 C 585.04 289.55 578.68 283.19 570.85 283.19 Z M 570.85 358.62 L 468.22 358.62 C 460.39 358.62 454.10 364.98 454.10 372.81 C 454.10 380.64 460.39 387.00 468.22 387.00 L 570.85 387.00 C 578.68 387.00 585.04 380.64 585.04 372.81 C 585.04 364.98 578.68 358.62 570.85 358.62 Z M 422.07 207.75 C 414.24 207.75 407.88 214.11 407.88 221.94 C 407.88 229.77 414.24 236.13 422.07 236.13 C 429.90 236.13 436.26 229.77 436.26 221.94 C 436.27 214.11 429.90 207.75 422.07 207.75 Z M 422.07 283.19 C 414.24 283.19 407.88 289.55 407.88 297.38 C 407.88 305.21 414.24 311.57 422.07 311.57 C 429.90 311.57 436.26 305.21 436.26 297.38 C 436.26 289.55 429.90 283.19 422.07 283.19 Z M 422.07 358.62 C 414.24 358.62 407.88 364.98 407.88 372.81 C 407.88 380.64 414.24 387.00 422.07 387.00 C 429.90 387.00 436.26 380.64 436.26 372.81 C 436.26 364.98 429.90 358.62 422.07 358.62 Z M 785.55 738.10 C 777.86 738.10 771.57 744.32 771.57 752.08 L 771.57 794.38 C 771.57 841.36 739.69 879.60 700.47 879.60 L 276.31 879.60 C 237.09 879.60 205.21 841.36 205.21 794.38 L 205.21 666.79 C 205.21 659.03 198.92 652.81 191.23 652.81 C 183.47 652.81 177.25 659.03 177.25 666.79 L 177.25 794.38 C 177.25 856.81 221.64 907.57 276.32 907.57 L 700.48 907.57 C 755.15 907.57 799.55 856.81 799.55 794.38 L 799.55 752.08 C 799.53 744.33 793.31 738.10 785.55 738.10 Z M 539.60 631.21 L 437.25 631.21 C 429.49 631.21 423.27 637.50 423.27 645.19 C 423.27 681.12 452.49 710.35 488.43 710.35 C 524.37 710.35 553.59 681.13 553.59 645.19 C 553.58 637.50 547.29 631.21 539.60 631.21 Z M 488.42 682.38 C 472.83 682.38 459.48 672.80 453.95 659.17 L 522.88 659.17 C 517.29 672.81 503.94 682.38 488.42 682.38 Z M 579.66 536.97 C 567.91 536.97 558.41 546.48 558.41 558.22 C 558.41 569.97 567.92 579.47 579.66 579.47 C 591.41 579.47 600.91 569.96 600.91 558.22 C 600.91 546.48 591.40 536.97 579.66 536.97 Z M 397.12 536.97 C 385.37 536.97 375.87 546.48 375.87 558.22 C 375.87 569.97 385.38 579.47 397.12 579.47 C 408.86 579.47 418.37 569.96 418.37 558.22 C 418.37 546.48 408.86 536.97 397.12 536.97 Z M 799.53 658.27 L 799.53 688.12 C 799.53 695.81 793.31 702.10 785.55 702.10 C 777.86 702.10 771.57 695.81 771.57 688.12 L 771.57 658.27 C 771.57 650.51 777.86 644.29 785.55 644.29 C 793.31 644.28 799.53 650.51 799.53 658.27 Z" fill="#000000" fill-rule="nonzero" node-id="996" stroke="none" target-height="867.87994" target-width="622.55994" target-x="177.11" target-y="39.69"></path></svg>