<?xml version="1.0" standalone="no"?><!DOCTYPE svg PUBLIC "-//W3C//DTD SVG 1.1//EN" "http://www.w3.org/Graphics/SVG/1.1/DTD/svg11.dtd"><svg height="1024" node-id="1" sillyvg="true" template-height="1024" template-width="1024" version="1.1" viewBox="0 0 1024 1024" width="1024" xmlns="http://www.w3.org/2000/svg" xmlns:xlink="http://www.w3.org/1999/xlink"><defs node-id="892"></defs><g node-id="999"><g node-id="1001"><path d="M 828.63 132.46 L 817.71 132.46 L 817.71 121.54 C 817.71 119.48 816.04 117.82 813.99 117.82 C 811.93 117.82 810.27 119.49 810.27 121.54 L 810.27 132.46 L 799.36 132.46 C 797.30 132.46 795.64 134.13 795.64 136.18 C 795.64 138.23 797.31 139.90 799.36 139.90 L 810.27 139.90 L 810.27 150.81 C 810.27 152.87 811.94 154.53 813.99 154.53 C 816.05 154.53 817.71 152.86 817.71 150.81 L 817.71 139.90 L 828.63 139.90 C 830.69 139.90 832.35 138.23 832.35 136.18 C 832.35 134.13 830.68 132.46 828.63 132.46 Z" fill="#e55b48" fill-rule="nonzero" group-id="1,3" node-id="899" stroke="none" target-height="36.71" target-width="36.7099" target-x="795.6401" target-y="117.82"></path></g><g node-id="1002"><path d="M 884.21 267.98 L 880.83 271.36 L 877.45 267.98 C 876.81 267.34 875.78 267.34 875.14 267.98 C 874.50 268.62 874.50 269.65 875.14 270.29 L 878.52 273.67 L 875.14 277.05 C 874.50 277.69 874.50 278.72 875.14 279.36 C 875.78 280.00 876.81 280.00 877.45 279.36 L 880.83 275.98 L 884.21 279.36 C 884.85 280.00 885.88 280.00 886.52 279.36 C 887.16 278.72 887.16 277.69 886.52 277.05 L 883.14 273.67 L 886.52 270.29 C 887.16 269.65 887.16 268.62 886.52 267.98 C 885.88 267.35 884.85 267.35 884.21 267.98 Z" fill="#e55b48" fill-rule="nonzero" group-id="1,4" node-id="904" stroke="none" target-height="12.660004" target-width="12.660034" target-x="874.5" target-y="267.34"></path></g><g node-id="1003"><path d="M 923.58 181.62 L 918.09 176.13 L 923.58 170.64 C 924.61 169.61 924.61 167.93 923.58 166.90 C 922.55 165.87 920.87 165.87 919.84 166.90 L 914.35 172.39 L 908.86 166.90 C 907.83 165.87 906.15 165.87 905.12 166.90 C 904.09 167.93 904.09 169.61 905.12 170.64 L 910.61 176.13 L 905.12 181.62 C 904.09 182.65 904.09 184.33 905.12 185.36 C 906.15 186.39 907.83 186.39 908.86 185.36 L 914.35 179.87 L 919.84 185.36 C 920.87 186.39 922.55 186.39 923.58 185.36 C 924.62 184.32 924.62 182.65 923.58 181.62 Z" fill="#60c46c" fill-rule="nonzero" group-id="1,5" node-id="909" stroke="none" target-height="20.520004" target-width="20.529968" target-x="904.09" target-y="165.87"></path></g><g node-id="1004"><path d="M 787.78 232.41 L 783.69 232.41 L 783.69 228.32 C 783.69 227.55 783.06 226.92 782.29 226.92 C 781.52 226.92 780.89 227.55 780.89 228.32 L 780.89 232.41 L 776.80 232.41 C 776.03 232.41 775.40 233.04 775.40 233.81 C 775.40 234.58 776.03 235.21 776.80 235.21 L 780.89 235.21 L 780.89 239.30 C 780.89 240.07 781.52 240.70 782.29 240.70 C 783.06 240.70 783.69 240.07 783.69 239.30 L 783.69 235.21 L 787.78 235.21 C 788.55 235.21 789.18 234.58 789.18 233.81 C 789.17 233.04 788.55 232.41 787.78 232.41 Z" fill="#46bcfc" fill-rule="nonzero" group-id="1,6" node-id="914" stroke="none" target-height="13.780014" target-width="13.779968" target-x="775.4" target-y="226.92"></path></g><g node-id="1005"><path d="M 691.84 75.10 C 691.84 73.46 690.51 72.13 688.87 72.13 L 680.34 72.13 L 687.72 67.87 C 689.14 67.05 689.63 65.23 688.81 63.81 C 687.99 62.38 686.17 61.90 684.75 62.72 L 677.37 66.98 L 681.63 59.60 C 682.45 58.18 681.96 56.36 680.54 55.54 C 679.12 54.72 677.30 55.20 676.48 56.63 L 672.22 64.01 L 672.22 55.49 C 672.22 53.85 670.89 52.52 669.25 52.52 C 667.61 52.52 666.28 53.85 666.28 55.49 L 666.28 64.02 L 662.02 56.64 C 661.20 55.21 659.38 54.73 657.96 55.55 C 656.54 56.37 656.05 58.19 656.87 59.61 L 661.13 66.99 L 653.75 62.73 C 652.33 61.91 650.51 62.39 649.69 63.82 C 648.87 65.24 649.36 67.06 650.78 67.88 L 658.16 72.14 L 649.63 72.14 C 647.99 72.14 646.66 73.47 646.66 75.11 C 646.66 76.75 647.99 78.08 649.63 78.08 L 658.15 78.08 L 650.77 82.34 C 649.35 83.16 648.86 84.98 649.68 86.40 C 650.23 87.35 651.23 87.89 652.26 87.89 C 652.77 87.89 653.28 87.76 653.74 87.49 L 661.12 83.23 L 656.86 90.61 C 656.04 92.03 656.53 93.85 657.95 94.67 C 658.42 94.94 658.93 95.07 659.43 95.07 C 660.46 95.07 661.46 94.54 662.01 93.58 L 666.27 86.20 L 666.27 94.73 C 666.27 96.37 667.60 97.70 669.24 97.70 C 670.88 97.70 672.21 96.37 672.21 94.73 L 672.21 86.20 L 676.47 93.58 C 677.02 94.53 678.02 95.07 679.05 95.07 C 679.56 95.07 680.07 94.94 680.53 94.67 C 681.95 93.85 682.44 92.03 681.62 90.61 L 677.36 83.23 L 684.74 87.49 C 685.21 87.76 685.72 87.89 686.22 87.89 C 687.25 87.89 688.25 87.36 688.80 86.40 C 689.62 84.98 689.13 83.16 687.71 82.34 L 680.33 78.08 L 688.85 78.08 C 690.51 78.08 691.84 76.75 691.84 75.10 Z" fill="#e25987" fill-rule="nonzero" group-id="1,7" node-id="919" stroke="none" target-height="45.179993" target-width="45.180054" target-x="646.66" target-y="52.520004"></path></g><g node-id="1006"><path d="M 732.87 145.94 L 735.11 152.38 L 741.93 152.52 L 736.49 156.63 L 738.47 163.16 L 732.87 159.26 L 727.28 163.16 L 729.25 156.63 L 723.82 152.52 L 730.64 152.38 Z" fill="#fcaa3d" fill-rule="nonzero" group-id="1,8" node-id="924" stroke="none" target-height="17.220001" target-width="18.110107" target-x="723.81995" target-y="145.94"></path></g><g node-id="1007"><path d="M 850.10 317.93 L 854.49 330.55 L 867.86 330.82 L 857.20 338.90 L 861.07 351.69 L 850.10 344.06 L 839.13 351.69 L 843.00 338.90 L 832.35 330.82 L 845.71 330.55 Z" fill="#46bcfc" fill-rule="nonzero" group-id="1,9" node-id="929" stroke="none" target-height="33.76001" target-width="35.51001" target-x="832.35" target-y="317.93"></path></g><g node-id="1008"><path d="M 858.05 191.64 C 858.05 193.75 857.21 195.77 855.72 197.26 C 854.23 198.75 852.21 199.59 850.10 199.59 C 847.99 199.59 845.97 198.75 844.48 197.26 C 842.99 195.77 842.15 193.75 842.15 191.64 C 842.15 189.53 842.99 187.51 844.48 186.02 C 845.97 184.53 847.99 183.69 850.10 183.69 C 852.21 183.69 854.23 184.53 855.72 186.02 C 857.21 187.51 858.05 189.53 858.05 191.64 Z" fill="#fcaa3d" fill-rule="nonzero" group-id="1,10" node-id="934" stroke="none" target-height="15.900009" target-width="15.900024" target-x="842.14996" target-y="183.68999"></path></g><g node-id="1009"><path d="M 653.66 145.09 C 653.66 147.98 651.32 150.32 648.43 150.32 C 645.54 150.32 643.20 147.98 643.20 145.09 C 643.20 142.20 645.54 139.86 648.43 139.86 C 651.32 139.86 653.66 142.20 653.66 145.09 Z" fill="#46bcfc" fill-rule="nonzero" group-id="1,11" node-id="939" stroke="none" target-height="10.459991" target-width="10.459961" target-x="643.2" target-y="139.86"></path></g><g node-id="1010"><path d="M 221.44 963.19 L 232.32 958.22 L 237.29 969.10 C 238.23 971.15 240.65 972.05 242.70 971.12 C 244.75 970.18 245.65 967.76 244.72 965.71 L 239.75 954.83 L 250.63 949.86 C 252.68 948.92 253.58 946.50 252.65 944.45 C 251.72 942.40 249.29 941.50 247.24 942.43 L 236.36 947.40 L 231.39 936.52 C 230.45 934.47 228.03 933.57 225.98 934.50 C 223.93 935.44 223.03 937.86 223.96 939.91 L 228.93 950.79 L 218.05 955.76 C 216.00 956.70 215.10 959.12 216.03 961.17 C 216.97 963.22 219.39 964.13 221.44 963.19 Z" fill="#60c46c" fill-rule="nonzero" group-id="1,12" node-id="944" stroke="none" target-height="38.48004" target-width="38.479996" target-x="215.1" target-y="933.57"></path></g><g node-id="1011"><path d="M 114.84 869.97 L 118.50 860.14 L 128.33 863.80 C 130.18 864.49 132.24 863.55 132.93 861.70 C 133.62 859.85 132.68 857.79 130.83 857.10 L 121.00 853.44 L 124.66 843.61 C 125.35 841.76 124.41 839.70 122.56 839.01 C 120.71 838.32 118.65 839.26 117.96 841.11 L 114.30 850.94 L 104.47 847.28 C 102.62 846.59 100.56 847.53 99.87 849.38 C 99.18 851.23 100.12 853.29 101.97 853.98 L 111.80 857.64 L 108.14 867.47 C 107.45 869.32 108.39 871.38 110.24 872.07 C 112.09 872.77 114.15 871.82 114.84 869.97 Z" fill="#e55b48" fill-rule="nonzero" group-id="1,13" node-id="949" stroke="none" target-height="34.44995" target-width="34.439995" target-x="99.18" target-y="838.32007"></path></g><g node-id="1012"><path d="M 115.77 957.04 L 123.04 959.75 L 120.33 967.02 C 119.82 968.39 120.52 969.91 121.89 970.42 C 123.26 970.93 124.78 970.23 125.29 968.86 L 128.00 961.59 L 135.27 964.30 C 136.64 964.81 138.16 964.11 138.67 962.74 C 139.18 961.37 138.48 959.85 137.11 959.34 L 129.84 956.63 L 132.55 949.36 C 133.06 947.99 132.36 946.47 130.99 945.96 C 129.62 945.45 128.10 946.15 127.59 947.52 L 124.88 954.79 L 117.61 952.08 C 116.24 951.57 114.72 952.27 114.21 953.64 C 113.71 955.00 114.40 956.53 115.77 957.04 Z" fill="#fcaa3d" fill-rule="nonzero" group-id="1,14" node-id="954" stroke="none" target-height="25.47998" target-width="25.469994" target-x="113.71" target-y="945.45"></path></g><g node-id="1013"><path d="M 218.19 854.40 L 221.91 852.70 L 223.61 856.42 C 223.93 857.12 224.76 857.43 225.46 857.11 C 226.16 856.79 226.47 855.96 226.15 855.26 L 224.45 851.54 L 228.17 849.84 C 228.87 849.52 229.18 848.69 228.86 847.99 C 228.54 847.29 227.71 846.98 227.01 847.30 L 223.29 849.00 L 221.59 845.28 C 221.27 844.58 220.44 844.27 219.74 844.59 C 219.04 844.91 218.73 845.74 219.05 846.44 L 220.75 850.16 L 217.03 851.86 C 216.33 852.18 216.02 853.01 216.34 853.71 C 216.66 854.41 217.49 854.72 218.19 854.40 Z" fill="#46bcfc" fill-rule="nonzero" group-id="1,15" node-id="959" stroke="none" target-height="13.159912" target-width="13.159988" target-x="216.02" target-y="844.2701"></path></g><g node-id="1014"><path d="M 342.04 948.30 C 342.53 949.37 343.79 949.84 344.86 949.35 L 350.41 946.81 L 346.87 951.78 C 346.19 952.74 346.41 954.07 347.37 954.75 C 348.33 955.43 349.66 955.21 350.34 954.25 L 353.88 949.28 L 353.30 955.35 C 353.19 956.52 354.05 957.56 355.22 957.67 C 356.39 957.78 357.43 956.92 357.54 955.75 L 358.12 949.68 L 360.66 955.23 C 361.15 956.30 362.41 956.77 363.48 956.28 C 364.55 955.79 365.02 954.53 364.53 953.46 L 361.99 947.91 L 366.96 951.45 C 367.92 952.13 369.25 951.91 369.93 950.95 C 370.61 949.99 370.39 948.66 369.43 947.98 L 364.46 944.44 L 370.53 945.02 C 371.70 945.13 372.74 944.28 372.85 943.10 C 372.96 941.93 372.10 940.89 370.93 940.78 L 364.85 940.20 L 370.40 937.66 C 371.47 937.17 371.94 935.91 371.45 934.84 C 370.96 933.77 369.70 933.30 368.63 933.79 L 363.08 936.33 L 366.62 931.36 C 367.30 930.40 367.08 929.07 366.12 928.39 C 365.48 927.93 364.67 927.88 364.00 928.19 C 363.67 928.34 363.38 928.58 363.15 928.89 L 359.61 933.86 L 360.19 927.79 C 360.30 926.62 359.44 925.58 358.27 925.47 C 357.89 925.43 357.51 925.50 357.19 925.65 C 356.52 925.96 356.03 926.60 355.95 927.38 L 355.37 933.46 L 352.83 927.91 C 352.34 926.84 351.08 926.37 350.01 926.86 C 348.94 927.35 348.47 928.61 348.96 929.68 L 351.49 935.23 L 346.52 931.69 C 345.88 931.23 345.07 931.18 344.40 931.49 C 344.07 931.64 343.78 931.88 343.55 932.19 C 342.87 933.15 343.09 934.48 344.05 935.16 L 349.02 938.70 L 342.95 938.12 C 342.57 938.08 342.19 938.15 341.87 938.30 C 341.20 938.61 340.71 939.25 340.63 940.03 C 340.52 941.20 341.38 942.24 342.55 942.35 L 348.62 942.93 L 343.07 945.46 C 342.02 945.97 341.55 947.23 342.04 948.30 Z" fill="#46bcfc" fill-rule="nonzero" group-id="1,16" node-id="964" stroke="none" target-height="32.350037" target-width="32.440033" target-x="340.52" target-y="925.43"></path></g><g node-id="1015"><path d="M 304.06 910.23 L 299.35 905.31 L 293.10 908.01 L 296.32 902.01 L 291.82 896.89 L 298.52 898.11 L 302.00 892.24 L 302.91 899.00 L 309.56 900.49 L 303.42 903.45 Z" fill="#fcaa3d" fill-rule="nonzero" group-id="1,17" node-id="969" stroke="none" target-height="17.990051" target-width="17.73999" target-x="291.82" target-y="892.2399"></path></g><g node-id="1016"><path d="M 122.83 795.66 L 117.72 790.31 L 110.93 793.25 L 114.43 786.74 L 109.54 781.19 L 116.82 782.51 L 120.58 776.14 L 121.58 783.47 L 128.79 785.08 L 122.13 788.29 Z" fill="#e55b48" fill-rule="nonzero" group-id="1,18" node-id="974" stroke="none" target-height="19.52002" target-width="19.249992" target-x="109.54" target-y="776.13995"></path></g><g node-id="1017"><path d="M 186.39 917.38 C 186.39 919.49 185.55 921.51 184.06 923.00 C 182.57 924.49 180.55 925.33 178.44 925.33 C 176.33 925.33 174.31 924.49 172.82 923.00 C 171.33 921.51 170.49 919.49 170.49 917.38 C 170.49 915.27 171.33 913.25 172.82 911.76 C 174.31 910.27 176.33 909.43 178.44 909.43 C 180.55 909.43 182.57 910.27 184.06 911.76 C 185.55 913.25 186.39 915.27 186.39 917.38 Z" fill="#fcaa3d" fill-rule="nonzero" group-id="1,19" node-id="979" stroke="none" target-height="15.899963" target-width="15.899994" target-x="170.49" target-y="909.43"></path></g><path d="M 379.97 886.82 C 379.97 889.71 377.63 892.05 374.74 892.05 C 371.85 892.05 369.51 889.71 369.51 886.82 C 369.51 883.93 371.85 881.59 374.74 881.59 C 377.63 881.59 379.97 883.93 379.97 886.82 Z" fill="#46bcfc" fill-rule="nonzero" group-id="1,20" node-id="984" stroke="none" target-height="10.459961" target-width="10.460022" target-x="369.50998" target-y="881.59"></path></g><path d="M 629.38 135.20 L 286.46 135.20 C 263.81 150.23 248.78 176.03 248.78 205.11 L 248.78 797.54 C 248.78 809.22 251.16 820.26 255.56 830.40 L 287.72 774.68 C 297.86 757.13 315.96 746.72 336.17 746.72 C 356.37 746.72 374.48 757.14 384.62 774.68 L 389.79 783.63 L 442.36 692.53 C 452.50 674.98 470.60 664.57 490.81 664.57 C 500.88 664.57 510.53 667.16 518.77 671.98 C 527.16 676.80 534.15 683.80 539.25 692.53 L 626.01 842.77 C 630.41 850.46 631.74 859.20 630.00 867.45 C 631.12 867.45 632.24 867.38 633.36 867.31 L 633.36 135.27 C 632.03 135.27 630.71 135.20 629.38 135.20 Z M 437.19 565.85 C 422.02 565.85 409.02 556.55 403.49 543.34 L 470.89 543.34 C 465.43 556.55 452.36 565.85 437.19 565.85 Z M 805.21 205.11 L 805.21 797.54 C 805.21 843.68 767.46 881.43 721.32 881.43 L 678.95 881.43 C 707.82 863.88 727.26 831.44 727.26 794.39 L 727.26 690.79 C 727.26 683.03 721.04 676.81 713.28 676.81 L 713.28 608.58 C 721.04 608.58 727.26 602.29 727.26 594.60 L 727.26 550.40 C 727.26 542.71 721.04 536.42 713.28 536.42 L 713.28 507.41 C 721.04 507.41 727.26 501.12 727.26 493.43 L 727.26 208.25 C 727.26 171.20 707.82 138.76 678.95 121.21 L 721.32 121.21 C 767.45 121.21 805.21 158.97 805.21 205.11 Z" fill="#f2a536" fill-rule="nonzero" node-id="988" stroke="none" target-height="760.2199" target-width="556.43005" target-x="248.78" target-y="121.21"></path><path d="M 713.27 676.80 C 705.58 676.80 699.29 683.02 699.29 690.78 L 699.29 794.40 C 699.29 833.27 670.14 865.15 633.36 867.32 C 632.24 867.39 631.12 867.46 630.00 867.46 C 631.75 859.21 630.42 850.47 626.01 842.78 L 539.25 692.54 C 534.15 683.80 527.16 676.81 518.77 671.99 C 510.52 667.17 500.87 664.58 490.81 664.58 C 470.61 664.58 452.50 675.00 442.36 692.54 L 389.79 783.64 L 384.62 774.69 C 374.48 757.14 356.38 746.73 336.17 746.73 C 315.97 746.73 297.86 757.15 287.72 774.69 L 255.56 830.41 L 248.43 842.78 C 243.96 850.47 242.63 859.21 244.44 867.46 C 206.20 867.11 175.09 834.46 175.09 794.40 L 175.09 582.42 C 175.09 574.73 168.87 568.44 161.11 568.44 C 153.42 568.44 147.13 574.73 147.13 582.42 L 147.13 794.40 C 147.13 850.12 191.03 895.42 245.01 895.42 L 629.39 895.42 C 647.43 895.42 664.42 890.32 678.96 881.44 C 707.83 863.89 727.27 831.45 727.27 794.40 L 727.27 690.79 C 727.25 683.03 721.03 676.80 713.27 676.80 Z M 399.72 863.75 C 399.16 864.80 397.34 867.25 393.71 867.25 L 278.71 867.25 C 275.07 867.25 273.26 864.80 272.63 863.75 C 272.00 862.70 270.81 859.90 272.63 856.76 L 272.91 856.27 L 311.99 788.67 C 317.02 779.86 326.11 774.69 336.18 774.69 C 346.32 774.69 355.34 779.86 360.44 788.67 L 373.65 811.53 L 381.69 825.51 L 389.80 839.56 L 399.73 856.76 C 401.53 859.90 400.35 862.70 399.72 863.75 Z M 601.76 863.75 C 601.20 864.80 599.38 867.25 595.75 867.25 L 427.96 867.25 C 429.71 859.07 428.38 850.40 423.97 842.78 L 405.93 811.60 L 466.61 706.52 C 471.64 697.78 480.66 692.54 490.80 692.54 C 500.94 692.54 509.96 697.78 514.99 706.52 L 601.75 856.76 C 603.58 859.90 602.39 862.70 601.76 863.75 Z M 161.11 380.03 C 153.42 380.03 147.13 386.25 147.13 394.01 L 147.13 422.81 C 147.13 430.50 153.42 436.79 161.11 436.79 C 168.80 436.79 175.09 430.50 175.09 422.81 L 175.09 394.01 C 175.09 386.25 168.80 380.03 161.11 380.03 Z M 161.11 458.47 C 153.42 458.47 147.13 464.76 147.13 472.45 L 147.13 533.97 C 147.13 541.66 153.42 547.95 161.11 547.95 C 168.80 547.95 175.09 541.66 175.09 533.97 L 175.09 472.45 C 175.09 464.76 168.80 458.47 161.11 458.47 Z M 678.94 121.21 C 664.40 112.33 647.41 107.23 629.37 107.23 L 245.00 107.23 C 191.03 107.23 147.12 152.53 147.12 208.25 L 147.12 343.53 C 147.12 351.29 153.41 357.51 161.10 357.51 C 168.86 357.51 175.08 351.29 175.08 343.53 L 175.08 208.25 C 175.08 167.91 206.47 135.19 244.99 135.19 L 629.37 135.19 C 630.70 135.19 632.03 135.26 633.35 135.26 C 634.82 135.33 636.29 135.47 637.75 135.68 C 643.83 136.45 649.71 138.06 655.23 140.36 C 656.35 140.78 657.47 141.34 658.52 141.83 C 662.99 144.00 667.26 146.58 671.17 149.73 C 672.08 150.36 672.99 151.13 673.83 151.90 C 674.74 152.60 675.58 153.44 676.42 154.28 C 679.01 156.66 681.38 159.31 683.55 162.11 C 684.25 162.88 684.81 163.72 685.37 164.56 C 686.07 165.54 686.70 166.45 687.33 167.43 C 687.96 168.41 688.59 169.39 689.15 170.37 C 690.34 172.40 691.39 174.49 692.37 176.59 C 692.93 177.64 693.35 178.76 693.77 179.81 C 694.26 180.86 694.61 181.91 694.96 183.03 C 695.38 184.15 695.80 185.27 696.08 186.46 C 696.50 187.58 696.78 188.77 697.06 190.03 C 697.27 190.73 697.41 191.43 697.55 192.13 C 698.67 197.30 699.30 202.69 699.30 208.28 L 699.30 493.45 C 699.30 501.14 705.59 507.43 713.28 507.43 C 721.04 507.43 727.26 501.14 727.26 493.45 L 727.26 208.25 C 727.25 171.20 707.82 138.76 678.94 121.21 Z M 727.25 550.40 L 727.25 594.58 C 727.25 602.27 721.03 608.56 713.27 608.56 C 705.58 608.56 699.29 602.27 699.29 594.58 L 699.29 550.40 C 699.29 542.71 705.58 536.42 713.27 536.42 C 721.03 536.42 727.25 542.71 727.25 550.40 Z M 347.20 464.55 C 335.63 464.55 326.23 455.14 326.23 443.58 C 326.23 432.01 335.64 422.61 347.20 422.61 C 358.77 422.61 368.17 432.02 368.17 443.58 C 368.18 455.14 358.77 464.55 347.20 464.55 Z M 506.23 443.57 C 506.23 432.00 515.64 422.60 527.20 422.60 C 538.76 422.60 548.17 432.01 548.17 443.57 C 548.17 455.14 538.76 464.54 527.20 464.54 C 515.64 464.54 506.23 455.14 506.23 443.57 Z M 487.67 515.38 L 386.71 515.38 C 379.02 515.38 372.73 521.67 372.73 529.36 C 372.73 564.88 401.67 593.82 437.19 593.82 C 472.78 593.82 501.65 564.88 501.65 529.36 C 501.65 521.67 495.43 515.38 487.67 515.38 Z M 437.19 565.85 C 422.02 565.85 409.02 556.55 403.49 543.34 L 470.89 543.34 C 465.43 556.55 452.36 565.85 437.19 565.85 Z" fill="#000000" fill-rule="nonzero" node-id="990" stroke="none" target-height="788.19" target-width="580.15" target-x="147.12" target-y="107.23"></path><g node-id="1000"><path d="M 601.76 863.75 C 601.20 864.80 599.38 867.25 595.75 867.25 L 427.96 867.25 C 429.71 859.07 428.38 850.40 423.97 842.78 L 405.93 811.60 L 466.61 706.52 C 471.64 697.78 480.66 692.54 490.80 692.54 C 500.94 692.54 509.96 697.78 514.99 706.52 L 601.75 856.76 C 603.58 859.90 602.39 862.70 601.76 863.75 Z" fill="#46bcfc" fill-rule="nonzero" group-id="2" node-id="994" stroke="none" target-height="174.71002" target-width="197.65002" target-x="405.93" target-y="692.54"></path></g><path d="M 699.29 550.40 L 699.29 594.58 C 699.29 602.27 705.58 608.56 713.27 608.56 L 713.27 676.79 C 705.58 676.79 699.29 683.01 699.29 690.77 L 699.29 794.40 C 699.29 833.27 670.14 865.15 633.36 867.32 L 633.36 135.27 C 634.83 135.34 636.30 135.48 637.76 135.69 C 643.84 136.46 649.72 138.07 655.24 140.37 C 656.36 140.86 657.41 141.28 658.53 141.84 C 663.00 144.01 667.27 146.59 671.18 149.74 C 672.09 150.44 673.00 151.14 673.84 151.91 C 674.75 152.68 675.59 153.45 676.43 154.29 C 679.02 156.67 681.39 159.32 683.56 162.12 C 684.19 162.89 684.82 163.73 685.38 164.57 C 686.08 165.55 686.71 166.46 687.34 167.44 C 687.97 168.42 688.60 169.40 689.16 170.38 C 690.35 172.41 691.40 174.50 692.38 176.60 C 692.87 177.65 693.36 178.77 693.78 179.82 C 694.20 180.87 694.62 181.99 694.97 183.04 C 695.39 184.16 695.81 185.28 696.09 186.47 C 696.51 187.66 696.79 188.85 697.07 190.04 C 697.21 190.74 697.42 191.37 697.56 192.14 C 698.68 197.31 699.31 202.70 699.31 208.29 L 699.31 493.46 C 699.31 501.15 705.60 507.44 713.29 507.44 L 713.29 536.45 C 705.58 536.42 699.29 542.71 699.29 550.40 Z M 399.72 856.76 L 389.79 839.56 L 381.68 825.51 L 373.64 811.53 L 360.43 788.67 C 355.33 779.86 346.31 774.69 336.17 774.69 C 326.10 774.69 317.01 779.86 311.98 788.67 L 272.62 856.76 C 270.80 859.91 271.99 862.70 272.62 863.75 C 273.25 864.80 275.07 867.25 278.70 867.25 L 393.70 867.25 C 397.34 867.25 399.15 864.80 399.71 863.75 C 400.35 862.70 401.53 859.90 399.72 856.76 Z" fill="#ef4e0f" fill-rule="nonzero" node-id="997" stroke="none" target-height="732.0499" target-width="442.49" target-x="270.8" target-y="135.27"></path></svg>