<?xml version="1.0" standalone="no"?><!DOCTYPE svg PUBLIC "-//W3C//DTD SVG 1.1//EN" "http://www.w3.org/Graphics/SVG/1.1/DTD/svg11.dtd"><svg height="1024" node-id="1" sillyvg="true" template-height="1024" template-width="1024" version="1.1" viewBox="0 0 1024 1024" width="1024" xmlns="http://www.w3.org/2000/svg" xmlns:xlink="http://www.w3.org/1999/xlink"><defs node-id="892"></defs><g node-id="1012"><g node-id="1015"><path d="M 855.58 132.46 L 844.66 132.46 L 844.66 121.54 C 844.66 119.48 842.99 117.82 840.94 117.82 C 838.88 117.82 837.22 119.49 837.22 121.54 L 837.22 132.46 L 826.30 132.46 C 824.24 132.46 822.58 134.13 822.58 136.18 C 822.58 138.23 824.25 139.90 826.30 139.90 L 837.21 139.90 L 837.21 150.81 C 837.21 152.87 838.88 154.53 840.93 154.53 C 842.99 154.53 844.65 152.86 844.65 150.81 L 844.65 139.90 L 855.57 139.90 C 857.63 139.90 859.29 138.23 859.29 136.18 C 859.29 134.13 857.63 132.46 855.58 132.46 Z" fill="#e55b48" fill-rule="nonzero" group-id="1,4" node-id="899" stroke="none" target-height="36.71" target-width="36.710022" target-x="822.58" target-y="117.82"></path></g><g node-id="1016"><path d="M 911.16 267.98 L 907.78 271.36 L 904.40 267.98 C 903.76 267.34 902.73 267.34 902.09 267.98 C 901.45 268.62 901.45 269.65 902.09 270.29 L 905.47 273.67 L 902.09 277.05 C 901.45 277.69 901.45 278.72 902.09 279.36 C 902.73 280.00 903.76 280.00 904.40 279.36 L 907.78 275.98 L 911.16 279.36 C 911.80 280.00 912.83 280.00 913.47 279.36 C 914.11 278.72 914.11 277.69 913.47 277.05 L 910.09 273.67 L 913.47 270.29 C 914.11 269.65 914.11 268.62 913.47 267.98 C 912.83 267.35 911.80 267.35 911.16 267.98 Z" fill="#e55b48" fill-rule="nonzero" group-id="1,5" node-id="904" stroke="none" target-height="12.660004" target-width="12.660034" target-x="901.44995" target-y="267.34"></path></g><g node-id="1017"><path d="M 950.53 181.62 L 945.04 176.13 L 950.53 170.64 C 951.56 169.61 951.56 167.93 950.53 166.90 C 949.50 165.87 947.82 165.87 946.79 166.90 L 941.30 172.39 L 935.81 166.90 C 934.78 165.87 933.10 165.87 932.07 166.90 C 931.04 167.93 931.04 169.61 932.07 170.64 L 937.56 176.13 L 932.07 181.62 C 931.04 182.65 931.04 184.33 932.07 185.36 C 933.10 186.39 934.78 186.39 935.81 185.36 L 941.30 179.87 L 946.79 185.36 C 947.82 186.39 949.50 186.39 950.53 185.36 C 951.57 184.32 951.57 182.65 950.53 181.62 Z" fill="#60c46c" fill-rule="nonzero" group-id="1,6" node-id="909" stroke="none" target-height="20.520004" target-width="20.53003" target-x="931.04" target-y="165.87"></path></g><g node-id="1018"><path d="M 814.72 232.41 L 810.63 232.41 L 810.63 228.32 C 810.63 227.55 810.00 226.92 809.23 226.92 C 808.46 226.92 807.83 227.55 807.83 228.32 L 807.83 232.41 L 803.74 232.41 C 802.97 232.41 802.34 233.04 802.34 233.81 C 802.34 234.58 802.97 235.21 803.74 235.21 L 807.83 235.21 L 807.83 239.30 C 807.83 240.07 808.46 240.70 809.23 240.70 C 810.00 240.70 810.63 240.07 810.63 239.30 L 810.63 235.21 L 814.72 235.21 C 815.49 235.21 816.12 234.58 816.12 233.81 C 816.12 233.04 815.49 232.41 814.72 232.41 Z" fill="#46bcfc" fill-rule="nonzero" group-id="1,7" node-id="914" stroke="none" target-height="13.780014" target-width="13.779968" target-x="802.34" target-y="226.92"></path></g><g node-id="1019"><path d="M 718.79 75.10 C 718.79 73.46 717.46 72.13 715.82 72.13 L 707.29 72.13 L 714.67 67.87 C 716.09 67.05 716.58 65.23 715.76 63.81 C 714.94 62.38 713.12 61.90 711.70 62.72 L 704.32 66.98 L 708.58 59.60 C 709.40 58.18 708.91 56.36 707.49 55.54 C 706.07 54.72 704.25 55.20 703.43 56.63 L 699.17 64.01 L 699.17 55.49 C 699.17 53.85 697.84 52.52 696.20 52.52 C 694.56 52.52 693.23 53.85 693.23 55.49 L 693.23 64.02 L 688.97 56.64 C 688.15 55.21 686.33 54.73 684.91 55.55 C 683.49 56.37 683.00 58.19 683.82 59.61 L 688.08 66.99 L 680.70 62.73 C 679.28 61.91 677.46 62.39 676.64 63.82 C 675.82 65.24 676.31 67.06 677.73 67.88 L 685.11 72.14 L 676.58 72.14 C 674.94 72.14 673.61 73.47 673.61 75.11 C 673.61 76.75 674.94 78.08 676.58 78.08 L 685.10 78.08 L 677.72 82.34 C 676.30 83.16 675.81 84.98 676.63 86.40 C 677.18 87.35 678.18 87.89 679.21 87.89 C 679.72 87.89 680.23 87.76 680.69 87.49 L 688.07 83.23 L 683.81 90.61 C 682.99 92.03 683.48 93.85 684.90 94.67 C 685.37 94.94 685.88 95.07 686.38 95.07 C 687.41 95.07 688.41 94.54 688.96 93.58 L 693.22 86.20 L 693.22 94.73 C 693.22 96.37 694.55 97.70 696.19 97.70 C 697.83 97.70 699.16 96.37 699.16 94.73 L 699.16 86.20 L 703.42 93.58 C 703.97 94.53 704.97 95.07 706.00 95.07 C 706.51 95.07 707.02 94.94 707.48 94.67 C 708.90 93.85 709.39 92.03 708.57 90.61 L 704.31 83.23 L 711.69 87.49 C 712.16 87.76 712.67 87.89 713.17 87.89 C 714.20 87.89 715.20 87.36 715.75 86.40 C 716.57 84.98 716.08 83.16 714.66 82.34 L 707.28 78.08 L 715.80 78.08 C 717.46 78.08 718.79 76.75 718.79 75.10 Z" fill="#e25987" fill-rule="nonzero" group-id="1,8" node-id="919" stroke="none" target-height="45.179993" target-width="45.179993" target-x="673.61" target-y="52.520004"></path></g><g node-id="1020"><path d="M 759.82 145.94 L 762.06 152.38 L 768.87 152.52 L 763.44 156.63 L 765.42 163.16 L 759.82 159.26 L 754.23 163.16 L 756.20 156.63 L 750.77 152.52 L 757.58 152.38 Z" fill="#fcaa3d" fill-rule="nonzero" group-id="1,9" node-id="924" stroke="none" target-height="17.220001" target-width="18.099976" target-x="750.77" target-y="145.94"></path></g><g node-id="1021"><path d="M 877.05 317.93 L 881.44 330.55 L 894.80 330.82 L 884.15 338.90 L 888.02 351.69 L 877.05 344.06 L 866.08 351.69 L 869.95 338.90 L 859.30 330.82 L 872.66 330.55 Z" fill="#46bcfc" fill-rule="nonzero" group-id="1,10" node-id="929" stroke="none" target-height="33.76001" target-width="35.49994" target-x="859.3" target-y="317.93"></path></g><g node-id="1022"><path d="M 885.00 191.64 C 885.00 193.75 884.16 195.77 882.67 197.26 C 881.18 198.75 879.16 199.59 877.05 199.59 C 874.94 199.59 872.92 198.75 871.43 197.26 C 869.94 195.77 869.10 193.75 869.10 191.64 C 869.10 189.53 869.94 187.51 871.43 186.02 C 872.92 184.53 874.94 183.69 877.05 183.69 C 879.16 183.69 881.18 184.53 882.67 186.02 C 884.16 187.51 885.00 189.53 885.00 191.64 Z" fill="#fcaa3d" fill-rule="nonzero" group-id="1,11" node-id="934" stroke="none" target-height="15.900009" target-width="15.899963" target-x="869.10004" target-y="183.68999"></path></g><g node-id="1023"><path d="M 680.61 145.09 C 680.61 147.98 678.27 150.32 675.38 150.32 C 672.49 150.32 670.15 147.98 670.15 145.09 C 670.15 142.20 672.49 139.86 675.38 139.86 C 678.27 139.86 680.61 142.20 680.61 145.09 Z" fill="#46bcfc" fill-rule="nonzero" group-id="1,12" node-id="939" stroke="none" target-height="10.459991" target-width="10.459961" target-x="670.15" target-y="139.86"></path></g><g node-id="1024"><path d="M 248.39 963.19 L 259.27 958.22 L 264.24 969.10 C 265.18 971.15 267.60 972.05 269.65 971.12 C 271.70 970.18 272.60 967.76 271.67 965.71 L 266.70 954.83 L 277.58 949.86 C 279.63 948.92 280.53 946.50 279.60 944.45 C 278.67 942.40 276.24 941.50 274.19 942.43 L 263.31 947.40 L 258.34 936.52 C 257.40 934.47 254.98 933.57 252.93 934.50 C 250.88 935.44 249.98 937.86 250.91 939.91 L 255.88 950.79 L 245.00 955.77 C 242.95 956.71 242.05 959.13 242.98 961.18 C 243.92 963.22 246.34 964.13 248.39 963.19 Z" fill="#60c46c" fill-rule="nonzero" group-id="1,13" node-id="944" stroke="none" target-height="38.48004" target-width="38.479996" target-x="242.05" target-y="933.57"></path></g><g node-id="1025"><path d="M 141.79 869.97 L 145.45 860.14 L 155.28 863.80 C 157.13 864.49 159.19 863.55 159.88 861.70 C 160.57 859.85 159.63 857.79 157.78 857.10 L 147.95 853.44 L 151.61 843.61 C 152.30 841.76 151.36 839.70 149.51 839.01 C 147.66 838.32 145.60 839.26 144.91 841.11 L 141.25 850.94 L 131.42 847.28 C 129.57 846.59 127.51 847.53 126.82 849.38 C 126.13 851.23 127.07 853.29 128.92 853.98 L 138.75 857.64 L 135.09 867.47 C 134.40 869.32 135.34 871.38 137.19 872.07 C 139.04 872.77 141.10 871.82 141.79 869.97 Z" fill="#e55b48" fill-rule="nonzero" group-id="1,14" node-id="949" stroke="none" target-height="34.44995" target-width="34.440002" target-x="126.130005" target-y="838.32007"></path></g><g node-id="1026"><path d="M 142.72 957.04 L 149.99 959.75 L 147.28 967.02 C 146.77 968.39 147.47 969.91 148.84 970.42 C 150.21 970.93 151.73 970.23 152.24 968.86 L 154.95 961.59 L 162.22 964.30 C 163.59 964.81 165.11 964.11 165.62 962.74 C 166.13 961.37 165.43 959.85 164.06 959.34 L 156.79 956.63 L 159.50 949.36 C 160.01 947.99 159.31 946.47 157.94 945.96 C 156.57 945.45 155.05 946.15 154.54 947.52 L 151.83 954.79 L 144.56 952.08 C 143.19 951.57 141.67 952.27 141.16 953.64 C 140.66 955.00 141.35 956.53 142.72 957.04 Z" fill="#fcaa3d" fill-rule="nonzero" group-id="1,15" node-id="954" stroke="none" target-height="25.47998" target-width="25.470001" target-x="140.66" target-y="945.45"></path></g><g node-id="1027"><path d="M 245.14 854.40 L 248.86 852.70 L 250.56 856.42 C 250.88 857.12 251.71 857.43 252.41 857.11 C 253.11 856.79 253.42 855.96 253.10 855.26 L 251.40 851.54 L 255.12 849.84 C 255.82 849.52 256.13 848.69 255.81 847.99 C 255.49 847.29 254.66 846.98 253.96 847.30 L 250.24 849.00 L 248.54 845.28 C 248.22 844.58 247.39 844.27 246.69 844.59 C 245.99 844.91 245.68 845.74 246.00 846.44 L 247.70 850.16 L 243.98 851.86 C 243.28 852.18 242.97 853.01 243.29 853.71 C 243.61 854.41 244.44 854.72 245.14 854.40 Z" fill="#46bcfc" fill-rule="nonzero" group-id="1,16" node-id="959" stroke="none" target-height="13.159912" target-width="13.159988" target-x="242.97002" target-y="844.2701"></path></g><g node-id="1028"><path d="M 368.99 948.30 C 369.48 949.37 370.74 949.84 371.81 949.35 L 377.36 946.81 L 373.82 951.78 C 373.14 952.74 373.36 954.07 374.32 954.75 C 375.28 955.43 376.61 955.21 377.29 954.25 L 380.83 949.28 L 380.25 955.35 C 380.14 956.52 381.00 957.56 382.17 957.67 C 383.34 957.78 384.38 956.92 384.49 955.75 L 385.07 949.68 L 387.61 955.23 C 388.10 956.30 389.36 956.77 390.43 956.28 C 391.50 955.79 391.97 954.53 391.48 953.46 L 388.94 947.91 L 393.91 951.45 C 394.87 952.13 396.20 951.91 396.88 950.95 C 397.56 949.99 397.34 948.66 396.38 947.98 L 391.41 944.44 L 397.48 945.02 C 398.65 945.13 399.69 944.28 399.80 943.10 C 399.91 941.93 399.05 940.89 397.88 940.78 L 391.80 940.20 L 397.35 937.66 C 398.42 937.17 398.89 935.91 398.40 934.84 C 397.91 933.77 396.65 933.30 395.58 933.79 L 390.03 936.33 L 393.57 931.36 C 394.25 930.40 394.03 929.07 393.07 928.39 C 392.43 927.93 391.62 927.88 390.95 928.19 C 390.62 928.34 390.33 928.58 390.10 928.89 L 386.56 933.86 L 387.14 927.79 C 387.25 926.62 386.39 925.58 385.22 925.47 C 384.84 925.43 384.46 925.50 384.14 925.65 C 383.47 925.96 382.98 926.60 382.90 927.38 L 382.32 933.46 L 379.78 927.91 C 379.29 926.84 378.03 926.37 376.96 926.86 C 375.89 927.35 375.42 928.61 375.91 929.68 L 378.44 935.23 L 373.47 931.69 C 372.83 931.23 372.02 931.18 371.35 931.49 C 371.02 931.64 370.73 931.88 370.50 932.19 C 369.82 933.15 370.04 934.48 371.00 935.16 L 375.97 938.70 L 369.90 938.12 C 369.52 938.08 369.14 938.15 368.82 938.30 C 368.15 938.61 367.66 939.25 367.58 940.03 C 367.47 941.20 368.33 942.24 369.50 942.35 L 375.57 942.93 L 370.02 945.46 C 368.97 945.97 368.50 947.23 368.99 948.30 Z" fill="#46bcfc" fill-rule="nonzero" group-id="1,17" node-id="964" stroke="none" target-height="32.350037" target-width="32.439972" target-x="367.47003" target-y="925.43"></path></g><g node-id="1029"><path d="M 331.01 910.23 L 326.30 905.31 L 320.04 908.01 L 323.27 902.01 L 318.77 896.89 L 325.47 898.11 L 328.94 892.24 L 329.86 899.00 L 336.51 900.49 L 330.37 903.45 Z" fill="#fcaa3d" fill-rule="nonzero" group-id="1,18" node-id="969" stroke="none" target-height="17.990051" target-width="17.74002" target-x="318.77" target-y="892.2399"></path></g><g node-id="1030"><path d="M 149.77 795.66 L 144.66 790.31 L 137.88 793.25 L 141.38 786.74 L 136.49 781.19 L 143.77 782.51 L 147.53 776.14 L 148.53 783.47 L 155.74 785.08 L 149.08 788.29 Z" fill="#e55b48" fill-rule="nonzero" group-id="1,19" node-id="974" stroke="none" target-height="19.52002" target-width="19.25" target-x="136.49" target-y="776.13995"></path></g><g node-id="1031"><path d="M 213.34 917.38 C 213.34 919.49 212.50 921.51 211.01 923.00 C 209.52 924.49 207.50 925.33 205.39 925.33 C 203.28 925.33 201.26 924.49 199.77 923.00 C 198.28 921.51 197.44 919.49 197.44 917.38 C 197.44 915.27 198.28 913.25 199.77 911.76 C 201.26 910.27 203.28 909.43 205.39 909.43 C 207.50 909.43 209.52 910.27 211.01 911.76 C 212.50 913.25 213.34 915.27 213.34 917.38 Z" fill="#fcaa3d" fill-rule="nonzero" group-id="1,20" node-id="979" stroke="none" target-height="15.899963" target-width="15.899994" target-x="197.44" target-y="909.43"></path></g><path d="M 406.92 886.82 C 406.92 889.71 404.58 892.05 401.69 892.05 C 398.80 892.05 396.46 889.71 396.46 886.82 C 396.46 883.93 398.80 881.59 401.69 881.59 C 404.58 881.59 406.92 883.93 406.92 886.82 Z" fill="#46bcfc" fill-rule="nonzero" group-id="1,21" node-id="984" stroke="none" target-height="10.459961" target-width="10.460022" target-x="396.46" target-y="881.59"></path></g><path d="M 840.76 735.27 C 841.67 738.56 841.18 741.98 839.50 744.85 L 817.20 783.51 C 817.20 783.51 816.92 784.00 816.78 784.14 C 816.71 784.28 816.64 784.35 816.57 784.49 C 814.96 786.73 812.65 788.41 809.79 789.24 C 806.43 790.22 803.01 789.87 800.00 788.12 L 777.91 775.33 C 772.67 772.32 766.09 773.02 761.55 777.01 C 747.08 789.94 730.44 799.59 711.91 805.67 C 706.18 807.63 702.33 812.94 702.33 818.95 L 702.33 844.47 C 702.33 849.71 699.04 854.40 693.80 856.35 C 692.54 856.84 691.21 857.12 689.68 857.12 L 645.15 857.12 C 638.16 857.12 632.50 851.46 632.50 844.47 L 632.50 818.95 C 632.50 812.94 628.58 807.55 622.85 805.67 C 611.87 802.10 601.32 797.07 591.46 790.78 C 587.34 788.19 583.28 785.33 579.09 781.90 C 578.95 781.83 578.81 781.69 578.74 781.62 C 576.85 780.15 575.03 778.54 573.22 777.01 C 568.75 773.02 562.17 772.33 556.93 775.33 L 534.98 788.12 C 534.28 788.47 533.58 788.82 532.88 789.10 C 533.79 784.91 534.28 780.50 534.28 776.10 L 534.28 775.33 C 534.28 767.64 528.13 761.42 520.37 761.35 L 520.37 743.38 L 520.44 743.38 C 521.84 743.38 523.38 743.17 524.77 742.68 C 561.61 730.45 595.10 711.64 624.46 686.61 C 628.45 685.98 632.08 683.60 634.32 679.83 L 660.75 695.14 C 667.25 698.85 674.45 700.94 681.51 701.43 C 681.51 702.06 681.65 702.76 681.79 703.46 C 683.26 709.96 689.06 714.37 695.42 714.37 C 696.47 714.37 697.52 714.23 698.50 714.02 C 700.11 713.67 701.65 713.25 702.97 712.83 C 716.39 708.98 728.21 700.53 736.04 689.41 C 737.44 687.59 738.56 685.91 739.47 684.24 L 780.30 613.42 C 788.69 598.95 790.93 582.10 786.59 565.88 C 786.31 564.83 786.03 563.78 785.61 562.73 L 800.01 554.34 C 803.02 552.66 806.44 552.24 809.94 553.29 C 812.60 553.99 814.90 555.67 816.58 558.04 C 816.79 558.39 817.00 558.67 817.21 559.02 L 839.51 597.61 C 841.19 600.55 841.68 603.90 840.77 607.19 C 839.93 610.48 837.83 613.20 834.90 614.88 L 812.88 627.60 C 807.64 630.61 804.91 636.69 806.17 642.56 C 808.13 651.79 809.11 661.44 809.11 671.22 C 809.11 681.08 808.13 690.73 806.17 699.88 C 804.91 705.82 807.64 711.84 812.88 714.84 L 834.90 727.56 C 837.82 729.26 839.92 731.99 840.76 735.27 Z" fill="#46bcfc" fill-rule="nonzero" node-id="988" stroke="none" target-height="304.88007" target-width="321.31" target-x="520.37" target-y="552.24"></path><path d="M 743.38 551.95 L 729.75 544.05 C 729.71 544.03 729.66 544.01 729.62 543.99 L 703.48 528.90 C 703.48 528.89 703.47 528.88 703.47 528.88 L 702.98 528.60 C 697.74 525.59 695.08 519.58 696.34 513.64 C 697.88 506.16 699.14 498.47 699.98 490.71 C 700.68 485.26 701.17 479.73 701.45 474.21 C 701.73 469.32 701.87 464.35 701.87 459.39 L 701.87 458.76 C 701.87 439.95 699.98 421.50 696.35 403.88 C 695.09 398.01 697.75 391.92 702.99 388.92 L 743.40 365.57 C 751.44 360.96 757.17 353.48 759.55 344.46 C 762.00 335.44 760.74 326.07 756.12 318.10 L 715.29 247.28 C 714.73 246.37 714.24 245.60 713.68 244.83 C 709.00 238.19 702.35 233.50 695.01 231.41 C 685.64 228.61 676.06 229.73 667.81 234.56 L 627.26 257.98 C 622.09 260.99 615.51 260.29 610.97 256.30 C 583.14 231.41 551.13 212.95 515.96 201.42 C 510.23 199.53 506.31 194.15 506.31 188.14 L 506.31 141.44 C 506.31 126.97 497.22 113.89 483.73 108.93 C 479.74 107.32 475.76 106.62 471.57 106.62 L 462.97 106.62 C 453.88 115.50 448.22 127.87 448.22 141.44 L 448.22 188.14 C 410.89 200.37 376.98 220.23 348.25 245.89 L 307.77 222.47 C 299.45 217.65 290.29 215.62 281.34 216.04 C 277.35 216.18 273.44 216.88 269.73 218.00 C 260.92 220.45 252.81 225.55 246.66 232.75 C 248.62 233.45 250.44 234.64 251.90 236.39 C 257.00 242.19 256.72 250.72 250.99 255.83 C 248.19 258.28 244.42 259.68 240.71 259.68 C 238.40 259.68 236.10 259.12 234.14 258.00 L 231.83 256.67 L 200.30 311.13 C 186.88 334.27 194.85 364.26 218.13 377.69 L 258.54 401.04 C 254.62 419.64 252.67 439.00 252.67 458.79 C 252.67 478.58 254.63 497.94 258.54 516.54 L 218.13 539.89 C 194.85 553.31 186.88 583.24 200.30 606.52 L 231.83 660.91 L 234.14 659.58 C 239.31 656.57 245.89 657.27 250.43 661.26 C 253.79 664.27 257.28 667.20 260.85 670.07 C 269.17 676.71 277.14 682.44 285.32 687.62 C 290.98 691.19 296.72 694.61 302.59 697.69 C 304.34 696.99 306.09 696.15 307.76 695.17 L 348.24 671.68 C 376.97 697.34 410.88 717.12 448.21 729.43 L 448.21 776.13 C 448.21 789.69 453.87 802.07 462.96 810.95 L 471.56 810.95 C 475.75 810.95 479.74 810.25 483.31 808.78 C 488.06 807.03 492.26 804.38 495.68 801.02 C 499.46 797.38 502.32 793.05 504.14 788.16 C 505.54 784.38 506.31 780.33 506.31 776.14 L 506.31 775.37 C 506.31 772.57 507.08 769.99 508.55 767.82 C 511.00 763.97 515.40 761.39 520.30 761.39 L 520.37 761.39 L 520.37 743.42 C 514.50 743.42 509.11 739.71 507.16 733.84 C 504.71 726.50 508.70 718.60 516.04 716.15 C 551.35 704.47 583.30 686.02 610.98 661.27 C 615.52 657.28 622.10 656.59 627.27 659.59 L 629.23 660.78 C 635.94 664.63 638.18 673.15 634.33 679.87 L 660.76 695.18 C 667.26 698.89 674.46 700.98 681.52 701.47 C 680.96 694.62 685.51 688.33 692.36 686.79 C 693.27 686.58 694.11 686.37 695.02 686.09 C 702.57 683.92 709.00 679.31 713.48 673.02 C 714.25 671.90 714.81 671.20 715.23 670.43 L 756.13 599.54 C 760.74 591.50 762.00 582.13 759.56 573.11 C 757.16 564.05 751.42 556.57 743.38 551.95 Z M 430.74 525.25 C 414.87 525.25 401.31 515.46 395.71 501.55 L 465.69 501.55 C 460.17 515.46 446.54 525.25 430.74 525.25 Z" fill="#f2a536" fill-rule="nonzero" node-id="990" stroke="none" target-height="704.33" target-width="575.12" target-x="186.88" target-y="106.62"></path><path d="M 120.03 366.70 L 118.07 365.58 C 110.03 360.97 104.30 353.41 101.85 344.40 C 99.47 335.38 100.66 326.08 105.28 318.04 L 106.19 316.50 C 110.04 309.86 107.80 301.26 101.09 297.41 C 94.38 293.56 85.85 295.87 82.00 302.51 L 81.09 304.05 C 72.70 318.52 70.53 335.37 74.87 351.59 C 79.20 367.88 89.62 381.44 104.09 389.83 L 105.98 390.88 C 108.15 392.14 110.59 392.77 112.97 392.77 C 117.79 392.77 122.48 390.32 125.07 385.85 C 128.98 379.14 126.68 370.61 120.03 366.70 Z M 507.14 733.80 C 504.69 726.46 508.68 718.56 516.02 716.11 C 551.33 704.43 583.28 685.98 610.96 661.23 C 615.50 657.24 622.08 656.55 627.25 659.55 L 629.21 660.74 C 635.92 664.59 638.16 673.11 634.31 679.83 C 632.07 683.61 628.44 685.98 624.45 686.61 C 595.09 711.64 561.60 730.44 524.76 742.68 C 523.36 743.17 521.82 743.38 520.43 743.38 L 520.36 743.38 C 514.48 743.38 509.09 739.68 507.14 733.80 Z M 863.76 758.83 L 841.46 797.49 C 840.90 798.54 840.13 799.66 839.22 800.85 C 839.22 800.85 839.15 800.92 839.15 800.99 C 833.91 808.26 826.36 813.57 817.76 816.02 C 807.34 819.24 795.67 817.91 786.02 812.38 L 772.39 804.48 C 759.60 814.55 745.47 822.73 730.30 828.74 L 730.30 844.47 C 730.30 861.32 719.67 876.63 703.80 882.50 C 699.61 884.18 694.78 885.09 689.68 885.09 L 645.15 885.09 C 622.71 885.09 604.53 866.84 604.53 844.47 L 604.53 828.74 C 594.74 824.89 585.37 820.07 576.50 814.41 C 571.89 811.47 567.27 808.19 562.52 804.48 L 548.89 812.31 C 539.59 817.69 529.03 818.88 519.32 816.57 C 512.54 824.61 503.66 830.97 493.38 834.82 C 486.81 837.48 479.33 838.87 471.57 838.87 L 389.91 838.87 C 355.23 838.87 327.13 810.70 327.13 776.09 L 327.13 739.32 C 307.28 732.05 288.26 722.61 270.36 711.22 C 261.34 705.56 252.46 699.19 243.37 691.85 C 242.04 690.80 240.78 689.82 239.52 688.77 L 207.71 707.23 C 177.65 724.43 139.20 714.15 121.93 684.23 L 81.10 613.41 C 72.71 598.94 70.54 582.02 74.88 565.80 C 79.21 549.65 89.63 536.09 104.10 527.77 L 135.84 509.38 C 133.11 493.37 131.72 477.08 131.58 460.79 C 131.51 453.10 137.73 446.81 145.49 446.74 L 145.56 446.74 C 153.25 446.74 159.47 452.96 159.54 460.65 C 159.68 478.41 161.57 496.30 165.13 513.71 C 166.32 519.58 163.66 525.59 158.42 528.60 L 118.08 551.95 C 110.04 556.56 104.31 564.11 101.86 573.06 C 99.48 582.08 100.67 591.45 105.29 599.49 L 146.12 670.24 C 155.70 686.81 177.09 692.54 193.73 682.96 L 231.83 660.87 L 234.14 659.54 C 239.31 656.53 245.89 657.23 250.43 661.22 C 253.79 664.23 257.28 667.16 260.85 670.03 C 269.17 676.67 277.14 682.40 285.32 687.58 C 290.98 691.15 296.72 694.57 302.59 697.65 C 316.36 705.06 330.69 711.28 345.45 716.11 C 351.18 718.07 355.10 723.38 355.10 729.39 L 355.10 776.09 C 355.10 795.32 370.69 810.91 389.92 810.91 L 471.58 810.91 C 475.77 810.91 479.76 810.21 483.33 808.74 C 488.08 806.99 492.28 804.34 495.70 800.98 C 499.48 797.34 502.34 793.01 504.16 788.12 C 505.56 784.34 506.33 780.29 506.33 776.09 L 506.33 775.32 C 506.33 772.52 507.10 769.94 508.57 767.77 C 511.02 763.92 515.42 761.34 520.32 761.34 L 520.39 761.34 C 528.15 761.41 534.30 767.63 534.30 775.32 L 534.30 776.09 C 534.30 780.49 533.81 784.90 532.90 789.09 C 533.60 788.81 534.30 788.46 535.00 788.11 L 556.95 775.32 C 562.19 772.31 568.77 773.01 573.24 777.00 C 575.06 778.54 576.88 780.15 578.76 781.61 C 578.83 781.68 578.97 781.82 579.11 781.89 C 583.30 785.32 587.36 788.18 591.48 790.77 C 601.34 797.06 611.89 802.10 622.87 805.66 C 628.60 807.55 632.52 812.93 632.52 818.94 L 632.52 844.46 C 632.52 851.45 638.18 857.11 645.17 857.11 L 689.70 857.11 C 691.24 857.11 692.57 856.83 693.82 856.34 C 699.06 854.38 702.35 849.70 702.35 844.46 L 702.35 818.94 C 702.35 812.93 706.20 807.61 711.93 805.66 C 730.46 799.58 747.10 789.93 761.57 777.00 C 766.11 773.01 772.69 772.32 777.93 775.32 L 800.00 788.13 C 803.01 789.88 806.43 790.23 809.79 789.25 C 812.66 788.41 814.96 786.73 816.57 784.50 C 816.64 784.36 816.71 784.29 816.78 784.15 C 816.92 784.01 817.20 783.52 817.20 783.52 L 839.50 744.86 C 841.18 741.99 841.67 738.57 840.76 735.28 C 839.92 731.99 837.82 729.27 834.89 727.59 L 812.87 714.87 C 807.63 711.86 804.90 705.85 806.16 699.91 C 808.12 690.75 809.10 681.10 809.10 671.25 C 809.10 661.46 808.12 651.81 806.16 642.59 C 804.90 636.72 807.63 630.63 812.87 627.63 L 834.89 614.91 C 837.83 613.23 839.92 610.51 840.76 607.22 C 841.67 603.93 841.18 600.58 839.50 597.64 L 817.20 559.05 C 816.99 558.70 816.78 558.42 816.57 558.07 C 814.89 555.69 812.59 554.01 809.93 553.32 C 806.43 552.27 803.01 552.69 800.00 554.37 L 785.60 562.76 C 786.02 563.81 786.30 564.86 786.58 565.91 C 790.91 582.13 788.68 598.98 780.29 613.45 L 739.46 684.27 C 738.55 685.95 737.43 687.63 736.03 689.44 C 728.20 700.56 716.38 709.02 702.96 712.86 C 701.63 713.28 700.09 713.70 698.49 714.05 C 697.51 714.26 696.46 714.40 695.41 714.40 C 689.05 714.40 683.25 710.00 681.78 703.49 C 681.64 702.79 681.50 702.09 681.50 701.46 C 680.94 694.61 685.49 688.32 692.34 686.78 C 693.25 686.57 694.09 686.36 695.00 686.08 C 702.55 683.91 708.98 679.30 713.46 673.01 C 714.23 671.89 714.79 671.19 715.21 670.42 L 756.11 599.53 C 760.72 591.49 761.98 582.12 759.54 573.10 C 757.16 564.08 751.43 556.60 743.39 551.99 L 729.76 544.09 L 703.47 528.92 L 702.98 528.64 C 697.74 525.63 695.08 519.62 696.34 513.68 C 697.88 506.20 699.14 498.51 699.98 490.75 C 700.68 485.30 701.17 479.77 701.45 474.25 C 701.73 469.36 701.87 464.39 701.87 459.43 L 701.87 458.80 C 701.87 439.99 699.98 421.54 696.35 403.92 C 695.09 398.05 697.75 391.96 702.99 388.96 L 743.40 365.61 C 751.44 361.00 757.17 353.51 759.55 344.50 C 762.00 335.48 760.74 326.11 756.12 318.14 L 715.29 247.32 C 714.73 246.41 714.24 245.64 713.68 244.87 C 709.00 238.23 702.35 233.54 695.01 231.45 C 685.64 228.65 676.06 229.77 667.81 234.60 L 627.26 258.02 C 622.09 261.03 615.51 260.33 610.97 256.34 C 583.14 231.45 551.13 212.99 515.96 201.46 C 510.23 199.57 506.31 194.19 506.31 188.18 L 506.31 141.48 C 506.31 127.01 497.22 113.93 483.73 108.97 C 479.74 107.36 475.76 106.66 471.57 106.66 L 389.91 106.66 C 370.68 106.66 355.09 122.25 355.09 141.48 L 355.09 188.18 C 355.09 194.19 351.17 199.58 345.44 201.46 C 335.23 204.82 325.10 208.80 315.31 213.42 C 308.32 216.71 300.00 213.70 296.71 206.71 C 293.42 199.72 296.43 191.40 303.42 188.11 C 311.18 184.47 319.08 181.12 327.12 178.18 L 327.12 141.48 C 327.12 106.87 355.22 78.70 389.90 78.70 L 471.56 78.70 C 479.32 78.70 486.80 80.10 493.72 82.89 C 517.84 91.77 534.27 115.33 534.27 141.48 L 534.27 178.25 C 566.22 189.93 595.65 206.91 621.87 228.80 L 653.75 210.34 C 668.50 201.81 686.40 199.71 702.83 204.61 C 716.11 208.39 728.07 216.91 736.32 228.52 C 737.44 230.06 738.56 231.74 739.61 233.55 L 780.30 304.16 C 788.69 318.56 790.93 335.48 786.59 351.70 C 782.19 367.99 771.84 381.48 757.37 389.87 L 725.56 408.19 C 728.43 424.62 729.82 441.61 729.82 458.81 C 729.82 468.11 729.40 477.34 728.56 486.43 C 727.86 494.19 726.88 501.88 725.55 509.43 L 730.30 512.16 L 741.49 518.66 L 741.77 518.80 C 752.61 524.11 762.81 530.55 772.39 538.10 L 786.02 530.20 C 795.53 524.68 807.13 523.28 817.76 526.42 C 826.22 528.87 833.84 534.25 839.15 541.52 C 839.15 541.59 839.22 541.66 839.22 541.73 C 840.13 542.85 840.90 544.04 841.53 545.23 L 863.76 583.68 C 869.14 593.05 870.61 603.95 867.75 614.51 C 864.95 625.00 858.24 633.74 848.87 639.12 L 835.31 647.02 C 836.43 654.92 837.06 663.10 837.06 671.28 C 837.06 679.53 836.43 687.64 835.31 695.61 L 848.87 703.44 C 858.24 708.82 864.95 717.63 867.82 728.12 C 870.61 738.56 869.14 749.46 863.76 758.83 Z M 121.43 234.14 L 121.92 233.30 C 139.19 203.31 177.64 193.03 207.70 210.30 L 245.80 232.39 C 246.08 232.46 246.36 232.60 246.64 232.74 C 248.60 233.44 250.42 234.63 251.88 236.38 C 256.98 242.18 256.70 250.71 250.97 255.82 C 248.17 258.27 244.40 259.67 240.69 259.67 C 238.38 259.67 236.08 259.11 234.12 257.99 L 231.81 256.66 L 193.71 234.57 C 177.07 224.92 155.68 230.65 146.10 247.29 L 145.68 248.06 C 141.83 254.77 133.31 257.08 126.59 253.23 C 119.89 249.45 117.59 240.85 121.43 234.14 Z" fill="#000000" fill-rule="nonzero" node-id="992" stroke="none" target-height="806.3901" target-width="800.07996" target-x="70.53" target-y="78.7"></path><g node-id="1013"><g node-id="1033"><path d="M 338.56 421.23 C 326.72 421.23 317.09 411.60 317.09 399.76 C 317.09 387.92 326.72 378.29 338.56 378.29 C 350.40 378.29 360.03 387.92 360.03 399.76 C 360.04 411.60 350.40 421.23 338.56 421.23 Z" fill="#000000" fill-rule="nonzero" group-id="2,22" node-id="998" stroke="none" target-height="42.940002" target-width="42.950012" target-x="317.09" target-y="378.29"></path></g></g><g node-id="1014"><g node-id="1034"><path d="M 501.37 399.76 C 501.37 387.92 511.00 378.29 522.84 378.29 C 534.68 378.29 544.31 387.92 544.31 399.76 C 544.31 411.60 534.68 421.23 522.84 421.23 C 511.00 421.23 501.37 411.60 501.37 399.76 Z" fill="#000000" fill-rule="nonzero" group-id="3,23" node-id="1006" stroke="none" target-height="42.940002" target-width="42.940033" target-x="501.36996" target-y="378.29"></path></g></g><path d="M 482.39 473.59 L 379.06 473.59 C 371.30 473.59 365.08 479.88 365.08 487.57 C 365.08 523.78 394.51 553.22 430.73 553.22 C 466.95 553.22 496.38 523.79 496.38 487.57 C 496.37 479.88 490.08 473.59 482.39 473.59 Z M 430.72 525.26 C 414.85 525.26 401.29 515.47 395.69 501.56 L 465.67 501.56 C 460.16 515.47 446.52 525.26 430.72 525.26 Z" fill="#000000" fill-rule="nonzero" node-id="1010" stroke="none" target-height="79.629974" target-width="131.29996" target-x="365.08002" target-y="473.59"></path></svg>