<?xml version="1.0" standalone="no"?><!DOCTYPE svg PUBLIC "-//W3C//DTD SVG 1.1//EN" "http://www.w3.org/Graphics/SVG/1.1/DTD/svg11.dtd"><svg height="1024" node-id="1" sillyvg="true" template-height="1024" template-width="1024" version="1.1" viewBox="0 0 1024 1024" width="1024" xmlns="http://www.w3.org/2000/svg" xmlns:xlink="http://www.w3.org/1999/xlink"><defs node-id="892"></defs><g node-id="1016"><g node-id="1019"><path d="M 849.14 132.46 L 838.22 132.46 L 838.22 121.54 C 838.22 119.48 836.55 117.82 834.50 117.82 C 832.45 117.82 830.78 119.49 830.78 121.54 L 830.78 132.46 L 819.87 132.46 C 817.81 132.46 816.15 134.13 816.15 136.18 C 816.15 138.23 817.82 139.90 819.87 139.90 L 830.78 139.90 L 830.78 150.81 C 830.78 152.87 832.45 154.53 834.50 154.53 C 836.55 154.53 838.22 152.86 838.22 150.81 L 838.22 139.90 L 849.14 139.90 C 851.20 139.90 852.86 138.23 852.86 136.18 C 852.86 134.13 851.20 132.46 849.14 132.46 Z" fill="#e55b48" fill-rule="nonzero" group-id="1,4" node-id="899" stroke="none" target-height="36.71" target-width="36.7099" target-x="816.15" target-y="117.82"></path></g><g node-id="1020"><path d="M 904.73 267.98 L 901.35 271.36 L 897.97 267.98 C 897.33 267.34 896.30 267.34 895.66 267.98 C 895.02 268.62 895.02 269.65 895.66 270.29 L 899.04 273.67 L 895.66 277.05 C 895.02 277.69 895.02 278.72 895.66 279.36 C 896.30 280.00 897.33 280.00 897.97 279.36 L 901.35 275.98 L 904.73 279.36 C 905.37 280.00 906.40 280.00 907.04 279.36 C 907.68 278.72 907.68 277.69 907.04 277.05 L 903.66 273.67 L 907.04 270.29 C 907.68 269.65 907.68 268.62 907.04 267.98 C 906.40 267.35 905.37 267.35 904.73 267.98 Z" fill="#e55b48" fill-rule="nonzero" group-id="1,5" node-id="904" stroke="none" target-height="12.660004" target-width="12.659973" target-x="895.02" target-y="267.34"></path></g><g node-id="1021"><path d="M 944.10 181.62 L 938.61 176.13 L 944.10 170.64 C 945.13 169.61 945.13 167.93 944.10 166.90 C 943.07 165.87 941.39 165.87 940.36 166.90 L 934.87 172.39 L 929.38 166.90 C 928.35 165.87 926.67 165.87 925.64 166.90 C 924.61 167.93 924.61 169.61 925.64 170.64 L 931.13 176.13 L 925.64 181.62 C 924.61 182.65 924.61 184.33 925.64 185.36 C 926.67 186.39 928.35 186.39 929.38 185.36 L 934.87 179.87 L 940.36 185.36 C 941.39 186.39 943.07 186.39 944.10 185.36 C 945.13 184.32 945.13 182.65 944.10 181.62 Z" fill="#60c46c" fill-rule="nonzero" group-id="1,6" node-id="909" stroke="none" target-height="20.520004" target-width="20.52008" target-x="924.61" target-y="165.87"></path></g><g node-id="1022"><path d="M 808.29 232.41 L 804.20 232.41 L 804.20 228.32 C 804.20 227.55 803.57 226.92 802.80 226.92 C 802.03 226.92 801.40 227.55 801.40 228.32 L 801.40 232.41 L 797.31 232.41 C 796.54 232.41 795.91 233.04 795.91 233.81 C 795.91 234.58 796.54 235.21 797.31 235.21 L 801.40 235.21 L 801.40 239.30 C 801.40 240.07 802.03 240.70 802.80 240.70 C 803.57 240.70 804.20 240.07 804.20 239.30 L 804.20 235.21 L 808.29 235.21 C 809.06 235.21 809.69 234.58 809.69 233.81 C 809.69 233.04 809.06 232.41 808.29 232.41 Z" fill="#46bcfc" fill-rule="nonzero" group-id="1,7" node-id="914" stroke="none" target-height="13.780014" target-width="13.780029" target-x="795.91" target-y="226.92"></path></g><g node-id="1023"><path d="M 712.35 75.10 C 712.35 73.46 711.02 72.13 709.38 72.13 L 700.85 72.13 L 708.23 67.87 C 709.65 67.05 710.14 65.23 709.32 63.81 C 708.50 62.38 706.68 61.90 705.26 62.72 L 697.88 66.98 L 702.14 59.60 C 702.96 58.18 702.47 56.36 701.05 55.54 C 699.63 54.72 697.81 55.20 696.99 56.63 L 692.73 64.01 L 692.73 55.49 C 692.73 53.85 691.40 52.52 689.76 52.52 C 688.12 52.52 686.79 53.85 686.79 55.49 L 686.79 64.02 L 682.53 56.64 C 681.71 55.21 679.89 54.73 678.47 55.55 C 677.05 56.37 676.56 58.19 677.38 59.61 L 681.64 66.99 L 674.26 62.73 C 672.84 61.91 671.02 62.39 670.20 63.82 C 669.38 65.24 669.87 67.06 671.29 67.88 L 678.67 72.14 L 670.14 72.14 C 668.50 72.14 667.17 73.47 667.17 75.11 C 667.17 76.75 668.50 78.08 670.14 78.08 L 678.66 78.08 L 671.28 82.34 C 669.86 83.16 669.37 84.98 670.19 86.40 C 670.74 87.35 671.74 87.89 672.77 87.89 C 673.28 87.89 673.79 87.76 674.25 87.49 L 681.63 83.23 L 677.37 90.61 C 676.55 92.03 677.04 93.85 678.46 94.67 C 678.93 94.94 679.44 95.07 679.94 95.07 C 680.97 95.07 681.97 94.54 682.52 93.58 L 686.78 86.20 L 686.78 94.73 C 686.78 96.37 688.11 97.70 689.75 97.70 C 691.39 97.70 692.72 96.37 692.72 94.73 L 692.72 86.20 L 696.98 93.58 C 697.53 94.53 698.53 95.07 699.56 95.07 C 700.07 95.07 700.58 94.94 701.04 94.67 C 702.46 93.85 702.95 92.03 702.13 90.61 L 697.87 83.23 L 705.25 87.49 C 705.72 87.76 706.23 87.89 706.73 87.89 C 707.76 87.89 708.76 87.36 709.31 86.40 C 710.13 84.98 709.64 83.16 708.22 82.34 L 700.84 78.08 L 709.36 78.08 C 711.03 78.08 712.35 76.75 712.35 75.10 Z" fill="#e25987" fill-rule="nonzero" group-id="1,8" node-id="919" stroke="none" target-height="45.179993" target-width="45.17993" target-x="667.17" target-y="52.520004"></path></g><g node-id="1024"><path d="M 753.39 145.94 L 755.63 152.38 L 762.44 152.52 L 757.01 156.63 L 758.98 163.16 L 753.39 159.26 L 747.79 163.16 L 749.77 156.63 L 744.34 152.52 L 751.15 152.38 Z" fill="#fcaa3d" fill-rule="nonzero" group-id="1,9" node-id="924" stroke="none" target-height="17.220001" target-width="18.099976" target-x="744.34" target-y="145.94"></path></g><g node-id="1025"><path d="M 870.62 317.93 L 875.01 330.55 L 888.37 330.82 L 877.72 338.90 L 881.59 351.69 L 870.62 344.06 L 859.65 351.69 L 863.52 338.90 L 852.87 330.82 L 866.23 330.55 Z" fill="#46bcfc" fill-rule="nonzero" group-id="1,10" node-id="929" stroke="none" target-height="33.76001" target-width="35.5" target-x="852.87" target-y="317.93"></path></g><g node-id="1026"><path d="M 878.57 191.64 C 878.57 193.75 877.73 195.77 876.24 197.26 C 874.75 198.75 872.73 199.59 870.62 199.59 C 868.51 199.59 866.49 198.75 865.00 197.26 C 863.51 195.77 862.67 193.75 862.67 191.64 C 862.67 189.53 863.51 187.51 865.00 186.02 C 866.49 184.53 868.51 183.69 870.62 183.69 C 872.73 183.69 874.75 184.53 876.24 186.02 C 877.73 187.51 878.57 189.53 878.57 191.64 Z" fill="#fcaa3d" fill-rule="nonzero" group-id="1,11" node-id="934" stroke="none" target-height="15.900009" target-width="15.9001465" target-x="862.6699" target-y="183.68999"></path></g><g node-id="1027"><path d="M 674.17 145.09 C 674.17 147.98 671.83 150.32 668.94 150.32 C 666.05 150.32 663.71 147.98 663.71 145.09 C 663.71 142.20 666.05 139.86 668.94 139.86 C 671.83 139.86 674.17 142.20 674.17 145.09 Z" fill="#46bcfc" fill-rule="nonzero" group-id="1,12" node-id="939" stroke="none" target-height="10.459991" target-width="10.459961" target-x="663.71" target-y="139.86"></path></g><g node-id="1028"><path d="M 241.95 963.19 L 252.83 958.22 L 257.80 969.10 C 258.74 971.15 261.16 972.05 263.21 971.12 C 265.26 970.18 266.16 967.76 265.23 965.71 L 260.26 954.83 L 271.14 949.86 C 273.19 948.92 274.09 946.50 273.16 944.45 C 272.23 942.40 269.80 941.50 267.75 942.43 L 256.87 947.40 L 251.90 936.52 C 250.96 934.47 248.54 933.57 246.49 934.50 C 244.44 935.44 243.54 937.86 244.47 939.91 L 249.44 950.79 L 238.56 955.76 C 236.51 956.70 235.61 959.12 236.54 961.17 C 237.48 963.22 239.90 964.13 241.95 963.19 Z" fill="#60c46c" fill-rule="nonzero" group-id="1,13" node-id="944" stroke="none" target-height="38.48004" target-width="38.47998" target-x="235.61002" target-y="933.57"></path></g><g node-id="1029"><path d="M 135.35 869.97 L 139.01 860.14 L 148.84 863.80 C 150.69 864.49 152.75 863.55 153.44 861.70 C 154.13 859.85 153.19 857.79 151.34 857.10 L 141.51 853.44 L 145.17 843.61 C 145.86 841.76 144.92 839.70 143.07 839.01 C 141.22 838.32 139.16 839.26 138.47 841.11 L 134.81 850.94 L 124.98 847.28 C 123.13 846.59 121.07 847.53 120.38 849.38 C 119.69 851.23 120.63 853.29 122.48 853.98 L 132.31 857.64 L 128.65 867.47 C 127.96 869.32 128.90 871.38 130.75 872.07 C 132.60 872.77 134.66 871.82 135.35 869.97 Z" fill="#e55b48" fill-rule="nonzero" group-id="1,14" node-id="949" stroke="none" target-height="34.44995" target-width="34.440002" target-x="119.69" target-y="838.32007"></path></g><g node-id="1030"><path d="M 136.29 957.04 L 143.56 959.75 L 140.85 967.02 C 140.34 968.39 141.04 969.91 142.41 970.42 C 143.78 970.93 145.30 970.23 145.81 968.86 L 148.52 961.59 L 155.79 964.30 C 157.16 964.81 158.68 964.11 159.19 962.74 C 159.70 961.37 159.00 959.85 157.63 959.34 L 150.36 956.63 L 153.07 949.36 C 153.58 947.99 152.88 946.47 151.51 945.96 C 150.14 945.45 148.62 946.15 148.11 947.52 L 145.40 954.79 L 138.13 952.08 C 136.76 951.57 135.24 952.27 134.73 953.64 C 134.22 955.00 134.92 956.53 136.29 957.04 Z" fill="#fcaa3d" fill-rule="nonzero" group-id="1,15" node-id="954" stroke="none" target-height="25.47998" target-width="25.479996" target-x="134.22" target-y="945.45"></path></g><g node-id="1031"><path d="M 238.70 854.40 L 242.42 852.70 L 244.12 856.42 C 244.44 857.12 245.27 857.43 245.97 857.11 C 246.67 856.79 246.98 855.96 246.66 855.26 L 244.96 851.54 L 248.68 849.84 C 249.38 849.52 249.69 848.69 249.37 847.99 C 249.05 847.29 248.22 846.98 247.52 847.30 L 243.80 849.00 L 242.10 845.28 C 241.78 844.58 240.95 844.27 240.25 844.59 C 239.55 844.91 239.24 845.74 239.56 846.44 L 241.26 850.16 L 237.54 851.86 C 236.84 852.18 236.53 853.01 236.85 853.71 C 237.17 854.41 238.00 854.72 238.70 854.40 Z" fill="#46bcfc" fill-rule="nonzero" group-id="1,16" node-id="959" stroke="none" target-height="13.159912" target-width="13.160004" target-x="236.53" target-y="844.2701"></path></g><g node-id="1032"><path d="M 362.55 948.30 C 363.04 949.37 364.30 949.84 365.37 949.35 L 370.92 946.81 L 367.38 951.78 C 366.70 952.74 366.92 954.07 367.88 954.75 C 368.84 955.43 370.17 955.21 370.85 954.25 L 374.39 949.28 L 373.81 955.35 C 373.70 956.52 374.56 957.56 375.73 957.67 C 376.90 957.78 377.94 956.92 378.05 955.75 L 378.63 949.68 L 381.17 955.23 C 381.66 956.30 382.92 956.77 383.99 956.28 C 385.06 955.79 385.53 954.53 385.04 953.46 L 382.50 947.91 L 387.47 951.45 C 388.43 952.13 389.76 951.91 390.44 950.95 C 391.12 949.99 390.90 948.66 389.94 947.98 L 384.97 944.44 L 391.04 945.02 C 392.21 945.13 393.25 944.28 393.36 943.10 C 393.47 941.93 392.61 940.89 391.44 940.78 L 385.36 940.20 L 390.91 937.66 C 391.98 937.17 392.45 935.91 391.96 934.84 C 391.47 933.77 390.21 933.30 389.14 933.79 L 383.59 936.33 L 387.13 931.36 C 387.81 930.40 387.59 929.07 386.63 928.39 C 385.99 927.93 385.18 927.88 384.51 928.19 C 384.18 928.34 383.89 928.58 383.66 928.89 L 380.12 933.86 L 380.70 927.79 C 380.81 926.62 379.95 925.58 378.78 925.47 C 378.40 925.43 378.02 925.50 377.70 925.65 C 377.03 925.96 376.54 926.60 376.46 927.38 L 375.88 933.46 L 373.34 927.91 C 372.85 926.84 371.59 926.37 370.52 926.86 C 369.45 927.35 368.98 928.61 369.47 929.68 L 372.00 935.23 L 367.03 931.69 C 366.39 931.23 365.58 931.18 364.91 931.49 C 364.58 931.64 364.29 931.88 364.06 932.19 C 363.38 933.15 363.60 934.48 364.56 935.16 L 369.53 938.70 L 363.46 938.12 C 363.08 938.08 362.70 938.15 362.38 938.30 C 361.71 938.61 361.22 939.25 361.14 940.03 C 361.03 941.20 361.89 942.24 363.06 942.35 L 369.13 942.93 L 363.58 945.46 C 362.53 945.97 362.06 947.23 362.55 948.30 Z" fill="#46bcfc" fill-rule="nonzero" group-id="1,17" node-id="964" stroke="none" target-height="32.350037" target-width="32.440002" target-x="361.03" target-y="925.43"></path></g><g node-id="1033"><path d="M 324.58 910.23 L 319.87 905.31 L 313.61 908.01 L 316.84 902.01 L 312.33 896.89 L 319.04 898.11 L 322.51 892.24 L 323.43 899.00 L 330.08 900.49 L 323.94 903.45 Z" fill="#fcaa3d" fill-rule="nonzero" group-id="1,18" node-id="969" stroke="none" target-height="17.990051" target-width="17.75" target-x="312.33" target-y="892.2399"></path></g><g node-id="1034"><path d="M 143.34 795.66 L 138.23 790.31 L 131.44 793.25 L 134.95 786.74 L 130.06 781.19 L 137.33 782.51 L 141.10 776.14 L 142.09 783.47 L 149.31 785.08 L 142.65 788.29 Z" fill="#e55b48" fill-rule="nonzero" group-id="1,19" node-id="974" stroke="none" target-height="19.52002" target-width="19.25" target-x="130.06" target-y="776.13995"></path></g><g node-id="1035"><path d="M 206.91 917.38 C 206.91 919.49 206.07 921.51 204.58 923.00 C 203.09 924.49 201.07 925.33 198.96 925.33 C 196.85 925.33 194.83 924.49 193.34 923.00 C 191.85 921.51 191.01 919.49 191.01 917.38 C 191.01 915.27 191.85 913.25 193.34 911.76 C 194.83 910.27 196.85 909.43 198.96 909.43 C 201.07 909.43 203.09 910.27 204.58 911.76 C 206.07 913.25 206.91 915.27 206.91 917.38 Z" fill="#fcaa3d" fill-rule="nonzero" group-id="1,20" node-id="979" stroke="none" target-height="15.899963" target-width="15.900009" target-x="191.01001" target-y="909.43"></path></g><path d="M 400.48 886.82 C 400.48 889.71 398.14 892.05 395.25 892.05 C 392.36 892.05 390.02 889.71 390.02 886.82 C 390.02 883.93 392.36 881.59 395.25 881.59 C 398.14 881.59 400.48 883.93 400.48 886.82 Z" fill="#46bcfc" fill-rule="nonzero" group-id="1,21" node-id="984" stroke="none" target-height="10.459961" target-width="10.4600525" target-x="390.01996" target-y="881.59"></path></g><path d="M 718.27 304.82 C 716.80 305.73 715.12 306.36 713.38 306.64 C 712.61 306.71 711.84 306.78 711.07 306.78 C 704.36 306.78 698.42 301.96 697.30 295.10 L 691.78 261.96 C 642.42 192.96 570.41 141.22 486.59 117.66 C 483.79 116.82 480.93 116.12 478.06 115.35 C 475.61 115.98 473.10 116.61 470.65 117.31 C 311.04 161.77 193.94 308.17 193.94 481.97 C 193.94 545.66 209.67 605.64 237.50 658.36 C 242.11 660.04 245.68 664.09 246.52 669.27 L 247.71 676.40 C 296.79 758.27 376.07 820.00 470.03 846.36 C 475.76 846.36 481.57 846.29 487.37 846.01 C 646.07 800.99 762.19 655.01 762.19 481.98 C 762.17 417.94 746.30 357.68 718.27 304.82 Z M 471.27 554.13 C 453.44 554.13 438.13 542.66 432.40 526.79 L 510.14 526.79 C 504.41 542.66 489.17 554.13 471.27 554.13 Z" fill="#f2a536" fill-rule="nonzero" node-id="988" stroke="none" target-height="731.01" target-width="568.25" target-x="193.94" target-y="115.35"></path><path d="M 816.21 637.88 C 817.12 635.92 818.03 633.96 818.87 631.94 C 818.03 633.97 817.12 635.92 816.28 637.88 L 816.21 637.88 Z" fill="#f2a536" fill-rule="nonzero" node-id="990" stroke="none" target-height="5.9400024" target-width="2.6600342" target-x="816.21" target-y="631.94"></path><path d="M 691.77 261.97 C 642.41 192.97 570.40 141.23 486.58 117.67 C 517.76 118.86 548.66 124.17 578.65 133.40 C 585.92 135.64 593.61 131.72 595.99 124.52 C 612.49 130.25 628.43 137.10 643.81 145.00 C 648.77 147.59 653.67 150.24 658.49 152.97 C 665.69 157.09 672.75 161.43 679.67 165.90 L 679.67 165.97 C 679.53 166.11 679.46 166.25 679.39 166.39 C 678.97 166.95 678.69 167.58 678.41 168.21 C 678.20 168.56 678.06 168.91 677.99 169.26 C 677.78 169.89 677.57 170.59 677.43 171.36 C 677.29 172.13 677.22 172.90 677.22 173.74 C 677.22 174.51 677.29 175.28 677.43 176.05 C 677.57 176.89 677.78 177.73 678.06 178.50 C 677.85 178.01 677.71 177.52 677.57 177.03 L 691.77 261.97 Z" fill="#ef4e0f" fill-rule="nonzero" node-id="992" stroke="none" target-height="144.3" target-width="205.19003" target-x="486.58" target-y="117.67"></path><path d="M 832.15 596.22 C 830.75 600.90 829.14 605.52 827.54 610.06 C 825.58 615.37 823.55 620.69 821.46 625.86 C 821.46 625.86 821.46 625.93 821.39 625.93 C 820.62 627.96 819.78 629.98 818.87 631.94 C 818.03 633.97 817.12 635.92 816.21 637.88 C 809.36 634.59 801.18 637.46 797.75 644.24 C 786.84 666.12 773.70 686.96 758.60 706.25 C 753.92 712.26 754.96 720.93 760.84 725.69 L 760.84 725.76 C 749.86 738.69 738.05 750.93 725.53 762.32 C 720.57 756.59 711.90 755.96 706.02 760.85 C 668.55 792.38 625.83 815.73 578.99 830.13 C 563.54 834.88 547.53 838.66 531.38 841.39 C 516.77 843.77 502.09 845.37 487.34 846.00 C 646.04 800.98 762.16 655.00 762.16 481.97 C 762.16 417.93 746.29 357.67 718.26 304.81 C 723.01 301.94 725.88 296.35 724.90 290.48 L 710.92 207.08 C 774.68 262.38 816.91 337.54 830.96 421.85 C 839.84 474.91 837.04 527.84 822.78 579.15 C 820.76 586.50 824.95 594.05 832.15 596.22 Z" fill="#ef4e0f" fill-rule="nonzero" node-id="994" stroke="none" target-height="638.92" target-width="352.49997" target-x="487.34" target-y="207.08"></path><g node-id="1017"><g node-id="1037"><path d="M 372.68 441.75 C 360.01 441.75 349.70 431.44 349.70 418.77 C 349.70 406.10 360.01 395.79 372.68 395.79 C 385.35 395.79 395.66 406.10 395.66 418.77 C 395.66 431.44 385.35 441.75 372.68 441.75 Z" fill="#000000" fill-rule="nonzero" group-id="2,22" node-id="1000" stroke="none" target-height="45.95999" target-width="45.95999" target-x="349.7" target-y="395.79"></path></g></g><g node-id="1018"><g node-id="1038"><path d="M 546.93 418.77 C 546.93 406.10 557.24 395.79 569.91 395.79 C 582.58 395.79 592.89 406.10 592.89 418.77 C 592.89 431.44 582.58 441.75 569.91 441.75 C 557.24 441.75 546.93 431.45 546.93 418.77 Z" fill="#000000" fill-rule="nonzero" group-id="3,23" node-id="1008" stroke="none" target-height="45.95999" target-width="45.960022" target-x="546.93" target-y="395.79"></path></g></g><path d="M 526.57 498.83 L 415.97 498.83 C 408.28 498.83 401.99 505.05 401.99 512.81 C 401.99 550.98 433.10 582.09 471.27 582.09 C 509.51 582.09 540.55 550.98 540.55 512.81 C 540.55 505.05 534.33 498.83 526.57 498.83 Z M 471.27 554.13 C 453.44 554.13 438.13 542.66 432.40 526.79 L 510.14 526.79 C 504.41 542.66 489.17 554.13 471.27 554.13 Z" fill="#000000" fill-rule="nonzero" node-id="1012" stroke="none" target-height="83.26007" target-width="138.56" target-x="401.99" target-y="498.82996"></path><path d="M 478.05 115.36 C 475.60 115.99 473.09 116.62 470.64 117.32 C 475.95 117.32 481.27 117.39 486.58 117.67 C 483.78 116.83 480.92 116.13 478.05 115.36 Z M 677.44 176.05 L 677.58 177.03 C 677.72 177.52 677.86 178.01 678.07 178.50 C 677.79 177.72 677.58 176.88 677.44 176.05 Z M 679.82 165.63 C 679.75 165.70 679.68 165.84 679.68 165.91 C 679.82 165.63 680.03 165.42 680.24 165.14 C 680.10 165.28 679.96 165.42 679.82 165.63 Z M 689.81 159.83 L 688.90 159.97 C 689.67 159.83 690.44 159.76 691.21 159.76 C 690.72 159.76 690.30 159.76 689.81 159.83 Z M 252.58 804.62 C 253.07 804.62 253.56 804.62 253.98 804.55 L 254.89 804.41 C 254.12 804.55 253.35 804.62 252.58 804.62 Z M 266.15 787.22 C 266.01 786.80 265.94 786.31 265.73 785.89 C 266.01 786.66 266.22 787.50 266.36 788.34 L 266.15 787.22 Z M 144.01 291.54 C 137.16 287.90 128.70 290.49 125.06 297.34 C 111.01 323.70 99.96 351.59 92.27 380.33 C 90.24 387.81 94.72 395.43 102.13 397.46 C 103.39 397.74 104.58 397.95 105.77 397.95 C 111.92 397.95 117.59 393.83 119.26 387.53 C 126.46 360.89 136.67 334.96 149.74 310.49 C 153.38 303.71 150.79 295.18 144.01 291.54 Z M 235.67 185.41 C 230.64 179.54 221.83 178.84 215.95 183.87 C 196.93 200.16 179.46 218.41 163.87 238.12 C 159.12 244.13 160.09 252.94 166.18 257.77 C 168.77 259.80 171.77 260.78 174.85 260.78 C 178.97 260.78 183.03 258.96 185.83 255.47 C 200.30 237.22 216.52 220.23 234.21 205.13 C 240.00 200.10 240.70 191.22 235.67 185.41 Z M 689.81 159.83 L 688.90 159.97 C 689.67 159.83 690.44 159.76 691.21 159.76 C 690.72 159.76 690.30 159.76 689.81 159.83 Z M 677.44 176.05 L 677.58 177.03 C 677.72 177.52 677.86 178.01 678.07 178.50 C 677.79 177.72 677.58 176.88 677.44 176.05 Z M 266.15 787.22 C 266.01 786.80 265.94 786.31 265.73 785.89 C 266.01 786.66 266.22 787.50 266.36 788.34 L 266.15 787.22 Z M 252.58 804.62 C 253.07 804.62 253.56 804.62 253.98 804.55 L 254.89 804.41 C 254.12 804.55 253.35 804.62 252.58 804.62 Z M 266.57 790.64 C 266.57 791.48 266.50 792.25 266.36 793.02 C 266.22 793.72 266.08 794.35 265.87 794.91 C 265.73 795.47 265.52 796.03 265.17 796.59 C 265.17 796.73 265.10 796.80 265.03 796.94 C 264.82 797.36 264.61 797.78 264.33 798.13 C 264.12 798.55 263.91 798.90 263.56 799.25 C 263.35 799.60 263.14 799.88 262.86 800.09 C 262.44 800.58 261.95 801.07 261.46 801.42 C 260.90 801.91 260.27 802.40 259.57 802.75 C 258.94 803.17 258.17 803.52 257.40 803.80 C 257.40 803.80 257.40 803.80 257.33 803.80 C 256.56 804.08 255.72 804.29 254.88 804.43 C 254.11 804.57 253.34 804.64 252.57 804.64 C 253.06 804.64 253.55 804.64 253.97 804.57 L 135.82 824.29 C 135.05 824.43 134.28 824.50 133.51 824.50 C 126.80 824.50 120.86 819.68 119.74 812.82 C 118.41 805.20 123.59 798.00 131.21 796.74 L 218.67 782.13 C 147.16 722.20 99.90 639.63 84.38 546.51 C 81.44 529.10 79.70 511.41 79.14 493.94 C 78.93 486.18 84.94 479.75 92.70 479.47 L 93.12 479.47 C 100.67 479.47 106.82 485.48 107.10 493.03 C 107.59 509.25 109.27 525.75 111.92 541.90 C 126.11 626.70 168.62 702.00 232.87 757.44 L 218.89 673.90 C 217.63 666.28 222.81 659.08 230.43 657.75 C 232.88 657.33 235.32 657.61 237.49 658.38 C 242.10 660.06 245.67 664.11 246.51 669.29 L 247.70 676.42 L 266.16 787.23 C 266.02 786.81 265.95 786.32 265.74 785.90 C 266.02 786.67 266.23 787.51 266.37 788.35 C 266.50 789.10 266.57 789.87 266.57 790.64 Z M 724.07 782.25 C 683.73 816.23 637.66 841.33 587.25 856.85 C 570.54 862.02 553.34 866.08 536.00 868.95 C 514.61 872.52 492.93 874.33 471.33 874.33 C 429.45 874.33 387.72 867.69 348.15 854.55 C 340.81 852.10 336.82 844.20 339.27 836.86 C 341.72 829.52 349.62 825.53 356.96 827.98 C 393.31 840.08 431.56 846.23 470.01 846.37 C 475.74 846.37 481.55 846.30 487.35 846.02 C 502.10 845.39 516.78 843.78 531.39 841.41 C 547.54 838.68 563.55 834.91 579.00 830.15 C 625.84 815.75 668.56 792.40 706.03 760.87 C 711.90 755.98 720.57 756.61 725.54 762.34 C 725.61 762.41 725.68 762.48 725.75 762.55 C 730.71 768.41 729.94 777.22 724.07 782.25 Z M 822.79 656.76 C 811.04 680.32 796.85 702.76 780.70 723.53 C 777.90 727.03 773.78 728.84 769.65 728.84 C 766.64 728.84 763.57 727.93 761.05 725.90 C 760.98 725.83 760.91 725.76 760.84 725.76 L 760.84 725.69 C 754.97 720.94 753.92 712.27 758.60 706.25 C 773.70 686.95 786.84 666.12 797.75 644.24 C 801.07 637.66 808.87 634.77 815.59 637.60 C 815.75 637.67 815.91 637.74 816.07 637.82 L 816.07 637.82 L 816.27 637.88 C 816.34 637.95 816.48 637.95 816.55 638.02 C 816.59 638.04 816.64 638.06 816.68 638.09 C 823.45 641.56 826.26 649.88 822.79 656.76 Z M 849.77 586.64 C 848.02 592.86 842.43 596.92 836.28 596.92 C 835.02 596.92 833.76 596.71 832.50 596.36 C 832.36 596.36 832.29 596.29 832.15 596.22 C 824.95 594.05 820.75 586.50 822.78 579.16 C 837.04 527.84 839.84 474.92 830.96 421.86 C 816.91 337.55 774.68 262.39 710.92 207.09 L 724.90 290.49 C 725.88 296.36 723.01 301.96 718.26 304.82 C 716.79 305.73 715.11 306.36 713.37 306.64 C 712.60 306.71 711.83 306.78 711.06 306.78 C 704.35 306.78 698.41 301.96 697.29 295.10 L 691.77 261.96 L 677.58 177.02 C 677.72 177.51 677.86 178.00 678.07 178.49 C 677.79 177.72 677.58 176.88 677.44 176.04 C 677.30 175.27 677.23 174.50 677.23 173.73 C 677.23 172.89 677.30 172.12 677.44 171.35 C 677.58 170.58 677.79 169.88 678.00 169.25 C 678.07 168.90 678.21 168.55 678.42 168.20 C 678.70 167.57 678.98 166.94 679.40 166.38 C 679.47 166.24 679.54 166.10 679.68 165.96 L 679.68 165.89 C 679.82 165.61 680.03 165.40 680.24 165.12 C 680.45 164.77 680.66 164.49 680.94 164.28 C 681.36 163.79 681.85 163.30 682.34 162.95 C 682.90 162.46 683.53 161.97 684.23 161.62 C 684.86 161.20 685.63 160.85 686.40 160.57 C 686.40 160.57 686.40 160.57 686.47 160.57 C 687.24 160.29 688.08 160.08 688.92 159.94 C 689.69 159.80 690.46 159.73 691.23 159.73 C 690.74 159.73 690.32 159.73 689.83 159.80 L 807.98 140.09 C 815.60 138.83 822.80 143.94 824.06 151.56 C 825.39 159.18 820.21 166.38 812.59 167.64 L 724.99 182.25 C 796.09 242.16 843.14 324.52 858.52 417.29 C 868.09 474.36 865.08 531.34 849.77 586.64 Z M 596.13 124.17 C 596.06 124.31 596.06 124.38 595.99 124.52 C 593.61 131.72 585.92 135.64 578.65 133.40 C 548.66 124.17 517.76 118.86 486.58 117.67 C 483.78 116.83 480.92 116.13 478.05 115.36 C 475.60 115.99 473.09 116.62 470.64 117.32 C 467.14 117.32 463.65 117.39 460.15 117.53 C 443.86 118.02 427.50 119.70 411.42 122.35 C 375.97 128.29 341.79 139.27 309.91 155.00 C 307.88 155.98 305.79 156.47 303.69 156.47 C 298.59 156.47 293.62 153.60 291.18 148.64 C 287.75 141.72 290.62 133.33 297.54 129.90 C 331.87 112.98 368.64 101.10 406.81 94.73 C 424.15 91.86 441.77 90.12 459.24 89.56 C 502.59 88.23 545.51 93.96 586.90 106.69 C 594.31 109.00 598.44 116.83 596.13 124.17 Z" fill="#000000" fill-rule="nonzero" node-id="1014" stroke="none" target-height="786.10004" target-width="789.16003" target-x="78.93" target-y="88.23"></path></svg>