<?xml version="1.0" standalone="no"?><!DOCTYPE svg PUBLIC "-//W3C//DTD SVG 1.1//EN" "http://www.w3.org/Graphics/SVG/1.1/DTD/svg11.dtd"><svg height="1024" node-id="1" sillyvg="true" template-height="1024" template-width="1024" version="1.1" viewBox="0 0 1024 1024" width="1024" xmlns="http://www.w3.org/2000/svg" xmlns:xlink="http://www.w3.org/1999/xlink"><defs node-id="892"></defs><g node-id="998"><g node-id="999"><path d="M 832.40 132.46 L 821.48 132.46 L 821.48 121.54 C 821.48 119.48 819.81 117.82 817.76 117.82 C 815.70 117.82 814.04 119.49 814.04 121.54 L 814.04 132.46 L 803.13 132.46 C 801.07 132.46 799.41 134.13 799.41 136.18 C 799.41 138.23 801.08 139.90 803.13 139.90 L 814.04 139.90 L 814.04 150.81 C 814.04 152.87 815.71 154.53 817.76 154.53 C 819.82 154.53 821.48 152.86 821.48 150.81 L 821.48 139.90 L 832.40 139.90 C 834.46 139.90 836.12 138.23 836.12 136.18 C 836.12 134.13 834.45 132.46 832.40 132.46 Z" fill="#e55b48" fill-rule="nonzero" group-id="1,2" node-id="899" stroke="none" target-height="36.71" target-width="36.70996" target-x="799.41003" target-y="117.82"></path></g><g node-id="1000"><path d="M 887.98 267.98 L 884.60 271.36 L 881.22 267.98 C 880.58 267.34 879.55 267.34 878.91 267.98 C 878.27 268.62 878.27 269.65 878.91 270.29 L 882.29 273.67 L 878.91 277.05 C 878.27 277.69 878.27 278.72 878.91 279.36 C 879.55 280.00 880.58 280.00 881.22 279.36 L 884.60 275.98 L 887.98 279.36 C 888.62 280.00 889.65 280.00 890.29 279.36 C 890.93 278.72 890.93 277.69 890.29 277.05 L 886.91 273.67 L 890.29 270.29 C 890.93 269.65 890.93 268.62 890.29 267.98 C 889.65 267.35 888.62 267.35 887.98 267.98 Z" fill="#e55b48" fill-rule="nonzero" group-id="1,3" node-id="904" stroke="none" target-height="12.660004" target-width="12.659912" target-x="878.2701" target-y="267.34"></path></g><g node-id="1001"><path d="M 927.35 181.62 L 921.86 176.13 L 927.35 170.64 C 928.38 169.61 928.38 167.93 927.35 166.90 C 926.32 165.87 924.64 165.87 923.61 166.90 L 918.12 172.39 L 912.63 166.90 C 911.60 165.87 909.92 165.87 908.89 166.90 C 907.86 167.93 907.86 169.61 908.89 170.64 L 914.38 176.13 L 908.89 181.62 C 907.86 182.65 907.86 184.33 908.89 185.36 C 909.92 186.39 911.60 186.39 912.63 185.36 L 918.12 179.87 L 923.61 185.36 C 924.64 186.39 926.32 186.39 927.35 185.36 C 928.38 184.32 928.38 182.65 927.35 181.62 Z" fill="#60c46c" fill-rule="nonzero" group-id="1,4" node-id="909" stroke="none" target-height="20.520004" target-width="20.52002" target-x="907.86" target-y="165.87"></path></g><g node-id="1002"><path d="M 791.54 232.41 L 787.45 232.41 L 787.45 228.32 C 787.45 227.55 786.82 226.92 786.05 226.92 C 785.28 226.92 784.65 227.55 784.65 228.32 L 784.65 232.41 L 780.56 232.41 C 779.79 232.41 779.16 233.04 779.16 233.81 C 779.16 234.58 779.79 235.21 780.56 235.21 L 784.65 235.21 L 784.65 239.30 C 784.65 240.07 785.28 240.70 786.05 240.70 C 786.82 240.70 787.45 240.07 787.45 239.30 L 787.45 235.21 L 791.54 235.21 C 792.31 235.21 792.94 234.58 792.94 233.81 C 792.94 233.04 792.31 232.41 791.54 232.41 Z" fill="#46bcfc" fill-rule="nonzero" group-id="1,5" node-id="914" stroke="none" target-height="13.780014" target-width="13.779968" target-x="779.16" target-y="226.92"></path></g><g node-id="1003"><path d="M 695.61 75.10 C 695.61 73.46 694.28 72.13 692.64 72.13 L 684.11 72.13 L 691.49 67.87 C 692.91 67.05 693.40 65.23 692.58 63.81 C 691.76 62.38 689.94 61.90 688.52 62.72 L 681.14 66.98 L 685.40 59.60 C 686.22 58.18 685.73 56.36 684.31 55.54 C 682.89 54.72 681.07 55.20 680.25 56.63 L 675.99 64.01 L 675.99 55.49 C 675.99 53.85 674.66 52.52 673.02 52.52 C 671.38 52.52 670.05 53.85 670.05 55.49 L 670.05 64.02 L 665.79 56.64 C 664.97 55.21 663.15 54.73 661.73 55.55 C 660.31 56.37 659.82 58.19 660.64 59.61 L 664.90 66.99 L 657.52 62.73 C 656.10 61.91 654.28 62.39 653.46 63.82 C 652.64 65.24 653.13 67.06 654.55 67.88 L 661.93 72.14 L 653.40 72.14 C 651.76 72.14 650.43 73.47 650.43 75.11 C 650.43 76.75 651.76 78.08 653.40 78.08 L 661.92 78.08 L 654.54 82.34 C 653.12 83.16 652.63 84.98 653.45 86.40 C 654.00 87.35 655.00 87.89 656.03 87.89 C 656.54 87.89 657.05 87.76 657.51 87.49 L 664.89 83.23 L 660.63 90.61 C 659.81 92.03 660.30 93.85 661.72 94.67 C 662.19 94.94 662.70 95.07 663.20 95.07 C 664.23 95.07 665.23 94.54 665.78 93.58 L 670.04 86.20 L 670.04 94.73 C 670.04 96.37 671.37 97.70 673.01 97.70 C 674.65 97.70 675.98 96.37 675.98 94.73 L 675.98 86.20 L 680.24 93.58 C 680.79 94.53 681.79 95.07 682.82 95.07 C 683.33 95.07 683.84 94.94 684.30 94.67 C 685.72 93.85 686.21 92.03 685.39 90.61 L 681.13 83.23 L 688.51 87.49 C 688.98 87.76 689.49 87.89 689.99 87.89 C 691.02 87.89 692.02 87.36 692.57 86.40 C 693.39 84.98 692.90 83.16 691.48 82.34 L 684.10 78.08 L 692.62 78.08 C 694.28 78.08 695.61 76.75 695.61 75.10 Z" fill="#e25987" fill-rule="nonzero" group-id="1,6" node-id="919" stroke="none" target-height="45.179993" target-width="45.179993" target-x="650.43" target-y="52.520004"></path></g><g node-id="1004"><path d="M 736.64 145.94 L 738.88 152.38 L 745.69 152.52 L 740.26 156.63 L 742.24 163.16 L 736.64 159.26 L 731.05 163.16 L 733.02 156.63 L 727.59 152.52 L 734.40 152.38 Z" fill="#fcaa3d" fill-rule="nonzero" group-id="1,7" node-id="924" stroke="none" target-height="17.220001" target-width="18.099976" target-x="727.59" target-y="145.94"></path></g><g node-id="1005"><path d="M 853.87 317.93 L 858.26 330.55 L 871.62 330.82 L 860.97 338.90 L 864.84 351.69 L 853.87 344.06 L 842.90 351.69 L 846.77 338.90 L 836.12 330.82 L 849.48 330.55 Z" fill="#46bcfc" fill-rule="nonzero" group-id="1,8" node-id="929" stroke="none" target-height="33.76001" target-width="35.50006" target-x="836.12" target-y="317.93"></path></g><g node-id="1006"><path d="M 861.82 191.64 C 861.82 193.75 860.98 195.77 859.49 197.26 C 858.00 198.75 855.98 199.59 853.87 199.59 C 851.76 199.59 849.74 198.75 848.25 197.26 C 846.76 195.77 845.92 193.75 845.92 191.64 C 845.92 189.53 846.76 187.51 848.25 186.02 C 849.74 184.53 851.76 183.69 853.87 183.69 C 855.98 183.69 858.00 184.53 859.49 186.02 C 860.98 187.51 861.82 189.53 861.82 191.64 Z" fill="#fcaa3d" fill-rule="nonzero" group-id="1,9" node-id="934" stroke="none" target-height="15.900009" target-width="15.900024" target-x="845.92" target-y="183.68999"></path></g><g node-id="1007"><path d="M 657.43 145.09 C 657.43 147.98 655.09 150.32 652.20 150.32 C 649.31 150.32 646.97 147.98 646.97 145.09 C 646.97 142.20 649.31 139.86 652.20 139.86 C 655.09 139.86 657.43 142.20 657.43 145.09 Z" fill="#46bcfc" fill-rule="nonzero" group-id="1,10" node-id="939" stroke="none" target-height="10.459991" target-width="10.459961" target-x="646.97003" target-y="139.86"></path></g><g node-id="1008"><path d="M 225.21 963.19 L 236.09 958.22 L 241.06 969.10 C 242.00 971.15 244.42 972.05 246.47 971.12 C 248.52 970.18 249.42 967.76 248.49 965.71 L 243.52 954.83 L 254.40 949.86 C 256.45 948.92 257.35 946.50 256.42 944.45 C 255.49 942.40 253.06 941.50 251.01 942.43 L 240.13 947.40 L 235.16 936.52 C 234.22 934.47 231.80 933.57 229.75 934.50 C 227.70 935.44 226.80 937.86 227.73 939.91 L 232.70 950.79 L 221.82 955.76 C 219.77 956.70 218.87 959.12 219.80 961.17 C 220.74 963.22 223.16 964.13 225.21 963.19 Z" fill="#60c46c" fill-rule="nonzero" group-id="1,11" node-id="944" stroke="none" target-height="38.48004" target-width="38.480026" target-x="218.86998" target-y="933.57"></path></g><g node-id="1009"><path d="M 118.61 869.97 L 122.27 860.14 L 132.10 863.80 C 133.95 864.49 136.01 863.55 136.70 861.70 C 137.39 859.85 136.45 857.79 134.60 857.10 L 124.77 853.44 L 128.43 843.61 C 129.12 841.76 128.18 839.70 126.33 839.01 C 124.48 838.32 122.42 839.26 121.73 841.11 L 118.07 850.94 L 108.24 847.28 C 106.39 846.59 104.33 847.53 103.64 849.38 C 102.95 851.23 103.89 853.29 105.74 853.98 L 115.57 857.64 L 111.91 867.47 C 111.22 869.32 112.16 871.38 114.01 872.07 C 115.86 872.77 117.92 871.82 118.61 869.97 Z" fill="#e55b48" fill-rule="nonzero" group-id="1,12" node-id="949" stroke="none" target-height="34.44995" target-width="34.440002" target-x="102.95" target-y="838.32007"></path></g><g node-id="1010"><path d="M 119.54 957.04 L 126.81 959.75 L 124.10 967.02 C 123.59 968.39 124.29 969.91 125.66 970.42 C 127.03 970.93 128.55 970.23 129.06 968.86 L 131.77 961.59 L 139.04 964.30 C 140.41 964.81 141.93 964.11 142.44 962.74 C 142.95 961.37 142.25 959.85 140.88 959.34 L 133.61 956.63 L 136.32 949.36 C 136.83 947.99 136.13 946.47 134.76 945.96 C 133.39 945.45 131.87 946.15 131.36 947.52 L 128.65 954.79 L 121.38 952.08 C 120.01 951.57 118.49 952.27 117.98 953.64 C 117.48 955.00 118.17 956.53 119.54 957.04 Z" fill="#fcaa3d" fill-rule="nonzero" group-id="1,13" node-id="954" stroke="none" target-height="25.47998" target-width="25.469986" target-x="117.48001" target-y="945.45"></path></g><g node-id="1011"><path d="M 221.96 854.40 L 225.68 852.70 L 227.38 856.42 C 227.70 857.12 228.53 857.43 229.23 857.11 C 229.93 856.79 230.24 855.96 229.92 855.26 L 228.22 851.54 L 231.94 849.84 C 232.64 849.52 232.95 848.69 232.63 847.99 C 232.31 847.29 231.48 846.98 230.78 847.30 L 227.06 849.00 L 225.36 845.28 C 225.04 844.58 224.21 844.27 223.51 844.59 C 222.81 844.91 222.50 845.74 222.82 846.44 L 224.52 850.16 L 220.80 851.86 C 220.10 852.18 219.79 853.01 220.11 853.71 C 220.43 854.41 221.26 854.72 221.96 854.40 Z" fill="#46bcfc" fill-rule="nonzero" group-id="1,14" node-id="959" stroke="none" target-height="13.159912" target-width="13.160019" target-x="219.79" target-y="844.2701"></path></g><g node-id="1012"><path d="M 345.81 948.30 C 346.30 949.37 347.56 949.84 348.63 949.35 L 354.18 946.81 L 350.64 951.78 C 349.96 952.74 350.18 954.07 351.14 954.75 C 352.10 955.43 353.43 955.21 354.11 954.25 L 357.65 949.28 L 357.07 955.35 C 356.96 956.52 357.82 957.56 358.99 957.67 C 360.16 957.78 361.20 956.92 361.31 955.75 L 361.89 949.68 L 364.43 955.23 C 364.92 956.30 366.18 956.77 367.25 956.28 C 368.32 955.79 368.79 954.53 368.30 953.46 L 365.76 947.91 L 370.73 951.45 C 371.69 952.13 373.02 951.91 373.70 950.95 C 374.38 949.99 374.16 948.66 373.20 947.98 L 368.23 944.44 L 374.30 945.02 C 375.47 945.13 376.51 944.28 376.62 943.10 C 376.73 941.93 375.87 940.89 374.70 940.78 L 368.62 940.20 L 374.17 937.66 C 375.24 937.17 375.71 935.91 375.22 934.84 C 374.73 933.77 373.47 933.30 372.40 933.79 L 366.85 936.33 L 370.39 931.36 C 371.07 930.40 370.85 929.07 369.89 928.39 C 369.25 927.93 368.44 927.88 367.77 928.19 C 367.44 928.34 367.15 928.58 366.92 928.89 L 363.38 933.86 L 363.96 927.79 C 364.07 926.62 363.21 925.58 362.04 925.47 C 361.66 925.43 361.28 925.50 360.96 925.65 C 360.29 925.96 359.80 926.60 359.72 927.38 L 359.14 933.46 L 356.60 927.91 C 356.11 926.84 354.85 926.37 353.78 926.86 C 352.71 927.35 352.24 928.61 352.73 929.68 L 355.26 935.23 L 350.29 931.69 C 349.65 931.23 348.84 931.18 348.17 931.49 C 347.84 931.64 347.55 931.88 347.32 932.19 C 346.64 933.15 346.86 934.48 347.82 935.16 L 352.79 938.70 L 346.72 938.12 C 346.34 938.08 345.96 938.15 345.64 938.30 C 344.97 938.61 344.48 939.25 344.40 940.03 C 344.29 941.20 345.15 942.24 346.32 942.35 L 352.39 942.93 L 346.84 945.46 C 345.79 945.97 345.32 947.23 345.81 948.30 Z" fill="#46bcfc" fill-rule="nonzero" group-id="1,15" node-id="964" stroke="none" target-height="32.350037" target-width="32.440002" target-x="344.29" target-y="925.43"></path></g><g node-id="1013"><path d="M 307.83 910.23 L 303.12 905.31 L 296.86 908.01 L 300.09 902.01 L 295.59 896.89 L 302.29 898.11 L 305.76 892.24 L 306.68 899.00 L 313.33 900.49 L 307.19 903.45 Z" fill="#fcaa3d" fill-rule="nonzero" group-id="1,16" node-id="969" stroke="none" target-height="17.990051" target-width="17.73999" target-x="295.59" target-y="892.2399"></path></g><g node-id="1014"><path d="M 126.59 795.66 L 121.48 790.31 L 114.70 793.25 L 118.20 786.74 L 113.31 781.19 L 120.59 782.51 L 124.35 776.14 L 125.35 783.47 L 132.56 785.08 L 125.90 788.29 Z" fill="#e55b48" fill-rule="nonzero" group-id="1,17" node-id="974" stroke="none" target-height="19.52002" target-width="19.250008" target-x="113.30999" target-y="776.13995"></path></g><g node-id="1015"><path d="M 190.16 917.38 C 190.16 919.49 189.32 921.51 187.83 923.00 C 186.34 924.49 184.32 925.33 182.21 925.33 C 180.10 925.33 178.08 924.49 176.59 923.00 C 175.10 921.51 174.26 919.49 174.26 917.38 C 174.26 915.27 175.10 913.25 176.59 911.76 C 178.08 910.27 180.10 909.43 182.21 909.43 C 184.32 909.43 186.34 910.27 187.83 911.76 C 189.32 913.25 190.16 915.27 190.16 917.38 Z" fill="#fcaa3d" fill-rule="nonzero" group-id="1,18" node-id="979" stroke="none" target-height="15.899963" target-width="15.899963" target-x="174.26003" target-y="909.43"></path></g><path d="M 383.74 886.82 C 383.74 889.71 381.40 892.05 378.51 892.05 C 375.62 892.05 373.28 889.71 373.28 886.82 C 373.28 883.93 375.62 881.59 378.51 881.59 C 381.40 881.59 383.74 883.93 383.74 886.82 Z" fill="#46bcfc" fill-rule="nonzero" group-id="1,19" node-id="984" stroke="none" target-height="10.459961" target-width="10.460022" target-x="373.28" target-y="881.59"></path></g><path d="M 658.32 211.39 L 176.49 340.59 C 175.93 340.66 175.44 340.80 174.95 341.01 C 154.61 346.53 137.13 356.95 123.84 370.58 L 123.84 303.18 C 123.84 272.21 142.65 248.65 174.18 240.19 L 325.82 199.78 C 333.23 197.75 337.70 190.13 335.68 182.65 L 372.24 172.93 C 373.99 179.15 379.58 183.28 385.80 183.28 C 386.99 183.28 388.18 183.14 389.37 182.79 L 440.20 169.23 C 447.61 167.27 452.09 159.58 450.06 152.17 L 477.47 144.83 C 479.15 151.05 484.81 155.18 491.03 155.18 C 492.22 155.18 493.41 155.04 494.60 154.76 L 544.38 141.48 C 551.86 139.45 556.27 131.83 554.31 124.35 L 574.09 119.11 C 576.19 126.52 583.74 130.93 591.22 128.97 L 633.24 117.78 C 659.04 110.86 685.74 126.24 692.67 152.04 C 699.49 177.83 684.18 204.46 658.32 211.39 Z M 580.36 365.33 L 234.58 365.33 C 208.85 380.85 191.72 407.77 191.72 438.32 L 191.72 797.32 C 191.72 827.80 208.85 854.79 234.58 870.31 L 580.36 870.31 C 606.09 854.79 623.22 827.80 623.22 797.32 L 623.22 438.32 C 623.22 407.77 606.09 380.85 580.36 365.33 Z M 706.27 351.35 L 666.21 351.35 C 697.88 368.97 719.13 401.34 719.13 438.32 L 719.13 587.23 C 719.13 594.99 712.84 601.21 705.15 601.21 L 705.15 652.04 C 697.39 652.04 691.17 658.26 691.17 666.02 L 691.17 710.55 C 691.17 718.31 697.39 724.53 705.15 724.53 L 705.15 747.04 C 712.84 747.04 719.13 753.33 719.13 761.02 L 719.13 797.30 C 719.13 834.28 697.81 866.72 666.07 884.27 L 706.27 884.27 C 757.73 884.27 799.74 845.12 799.74 797.30 L 799.74 438.30 C 799.75 390.43 757.73 351.35 706.27 351.35 Z" fill="#f2a536" fill-rule="nonzero" node-id="988" stroke="none" target-height="773.41003" target-width="675.91003" target-x="123.84" target-y="110.86"></path><path d="M 691.17 666.02 L 691.17 710.55 C 691.17 718.31 697.39 724.53 705.15 724.53 L 705.15 747.04 C 697.39 747.04 691.17 753.33 691.17 761.02 L 691.17 797.30 C 691.17 837.57 655.52 870.29 611.68 870.29 L 580.36 870.29 C 606.09 854.77 623.22 827.78 623.22 797.30 L 623.22 438.30 C 623.22 407.75 606.09 380.83 580.36 365.31 L 611.68 365.31 C 655.51 365.31 691.17 398.03 691.17 438.30 L 691.17 587.21 C 691.17 594.97 697.39 601.19 705.15 601.19 L 705.15 652.02 C 697.40 652.04 691.17 658.26 691.17 666.02 Z" fill="#ef4e0f" fill-rule="nonzero" node-id="990" stroke="none" target-height="504.97998" target-width="124.78998" target-x="580.36" target-y="365.31"></path><path d="M 387.55 655.47 L 424.81 655.47 C 420.55 661.13 413.76 664.77 406.21 664.77 C 398.59 664.77 391.81 661.13 387.55 655.47 Z" fill="#ffffff" fill-rule="nonzero" node-id="992" stroke="none" target-height="9.300049" target-width="37.25998" target-x="387.55002" target-y="655.47"></path><path d="M 441.38 503.34 C 408.87 487.05 378.88 478.52 357.21 478.52 C 346.23 478.52 337.35 480.69 331.34 485.23 C 305.33 504.74 288.27 575.35 292.33 646.03 C 295.41 699.44 309.81 739.92 329.94 751.67 C 353.22 765.30 408.24 752.58 463.75 720.70 C 520.31 688.26 559.81 646.38 559.81 618.91 C 559.81 587.79 506.68 535.92 441.38 503.34 Z M 406.21 692.73 C 377.90 692.73 354.89 669.73 354.89 641.48 C 354.89 633.72 361.18 627.50 368.87 627.50 L 443.47 627.50 C 451.16 627.50 457.45 633.72 457.45 641.48 C 457.46 669.73 434.46 692.73 406.21 692.73 Z" fill="#ffffff" fill-rule="nonzero" node-id="994" stroke="none" target-height="286.78" target-width="271.54" target-x="288.27" target-y="478.52"></path><path d="M 453.89 478.31 C 424.95 463.84 353.57 433.50 314.49 462.86 C 274.50 492.99 260.45 579.75 264.43 647.64 C 266.18 678.19 274.71 751.74 315.82 775.86 C 326.87 782.29 340.29 785.09 355.04 785.09 C 393.07 785.09 439.91 766.63 477.67 744.96 C 530.94 714.48 587.78 665.33 587.78 618.91 C 587.77 570.45 520.45 511.52 453.89 478.31 Z M 463.75 720.69 C 408.24 752.57 353.22 765.29 329.94 751.66 C 309.81 739.91 295.40 699.44 292.33 646.02 C 288.27 575.34 305.33 504.73 331.34 485.22 C 337.35 480.68 346.23 478.51 357.21 478.51 C 378.88 478.51 408.87 487.04 441.38 503.33 C 506.68 535.91 559.81 587.78 559.81 618.89 C 559.81 646.38 520.31 688.26 463.75 720.69 Z M 338.03 599.84 C 326.17 599.84 316.53 590.20 316.53 578.34 C 316.53 566.48 326.17 556.84 338.03 556.84 C 349.89 556.84 359.53 566.48 359.53 578.34 C 359.53 590.20 349.88 599.84 338.03 599.84 Z M 452.83 578.34 C 452.83 566.48 462.47 556.84 474.33 556.84 C 486.19 556.84 495.83 566.48 495.83 578.34 C 495.83 590.20 486.19 599.84 474.33 599.84 C 462.47 599.84 452.83 590.19 452.83 578.34 Z M 443.48 627.50 L 368.88 627.50 C 361.19 627.50 354.90 633.72 354.90 641.48 C 354.90 669.72 377.90 692.73 406.22 692.73 C 434.46 692.73 457.47 669.73 457.47 641.48 C 457.46 633.72 451.17 627.50 443.48 627.50 Z M 406.21 664.77 C 398.59 664.77 391.81 661.13 387.54 655.47 L 424.80 655.47 C 420.54 661.13 413.76 664.77 406.21 664.77 Z M 519.71 211.58 C 517.84 212.08 515.93 212.15 514.08 211.90 C 512.24 211.66 510.45 211.09 508.78 210.13 C 505.45 208.21 503.13 205.12 502.15 201.44 C 501.17 197.77 501.66 193.78 503.53 190.54 C 507.35 184.03 516.56 181.56 523.12 185.29 C 526.37 187.17 528.85 190.35 529.84 194.02 C 530.82 197.69 530.30 201.54 528.37 204.88 C 527.41 206.54 526.14 207.93 524.67 209.06 C 523.20 210.21 521.51 211.10 519.71 211.58 Z M 411.14 240.67 C 407.47 241.65 403.62 241.13 400.29 239.20 C 396.95 237.28 394.64 234.19 393.66 230.51 C 392.68 226.84 393.17 222.85 395.04 219.61 C 398.86 213.10 408.06 210.63 414.63 214.36 C 417.88 216.24 420.37 219.42 421.35 223.09 C 422.33 226.76 421.81 230.61 419.88 233.95 C 417.95 237.29 414.88 239.67 411.14 240.67 Z M 302.71 269.73 C 298.97 270.73 295.12 270.21 291.79 268.28 C 288.46 266.36 286.14 263.27 285.16 259.59 C 284.18 255.92 284.67 251.93 286.54 248.69 C 290.36 242.17 299.63 239.69 306.13 243.44 C 309.38 245.32 311.86 248.50 312.85 252.17 C 313.83 255.84 313.31 259.69 311.38 263.03 C 309.45 266.36 306.38 268.74 302.71 269.73 Z M 440.19 169.23 L 389.36 182.79 C 388.17 183.14 386.98 183.28 385.79 183.28 C 379.57 183.28 373.97 179.16 372.23 172.93 L 372.23 172.86 C 370.27 165.45 374.68 157.76 382.16 155.80 L 432.99 142.24 C 440.40 140.21 448.09 144.69 450.05 152.17 C 452.07 159.58 447.60 167.27 440.19 169.23 Z M 554.29 124.35 C 552.26 116.87 544.64 112.46 537.16 114.42 L 487.38 127.70 C 479.90 129.73 475.49 137.35 477.45 144.83 C 479.13 151.05 484.79 155.18 491.01 155.18 C 492.20 155.18 493.39 155.04 494.58 154.76 L 544.36 141.48 C 551.84 139.45 556.24 131.83 554.29 124.35 Z M 705.16 652.04 C 697.40 652.04 691.18 658.26 691.18 666.02 L 691.18 710.55 C 691.18 718.31 697.40 724.53 705.16 724.53 C 712.85 724.53 719.14 718.31 719.14 710.55 L 719.14 666.02 C 719.14 658.26 712.85 652.04 705.16 652.04 Z M 666.21 351.35 C 650.20 342.47 631.53 337.37 611.68 337.37 L 296.38 337.37 L 665.58 238.44 C 685.23 233.13 701.65 220.47 711.93 202.78 C 722.14 185.02 724.86 164.47 719.62 144.82 C 714.38 125.10 701.65 108.68 683.97 98.47 C 666.21 88.19 645.66 85.47 626.01 90.71 L 584.00 101.97 C 576.52 103.93 572.11 111.62 574.07 119.03 L 574.07 119.10 C 576.17 126.51 583.72 130.92 591.20 128.96 L 633.22 117.77 C 659.02 110.85 685.72 126.23 692.65 152.03 C 699.50 177.83 684.19 204.46 658.32 211.39 L 176.49 340.59 C 175.93 340.66 175.44 340.80 174.95 341.01 C 154.61 346.53 137.13 356.95 123.84 370.58 L 123.84 303.18 C 123.84 272.21 142.65 248.65 174.18 240.19 L 325.82 199.78 C 333.23 197.75 337.70 190.13 335.68 182.65 C 333.72 175.17 326.10 170.76 318.62 172.72 L 166.90 213.20 C 123.07 224.95 95.87 259.41 95.87 303.18 L 95.87 797.32 C 95.87 852.97 144.04 898.27 203.25 898.27 L 611.68 898.27 C 631.47 898.27 650.13 893.17 666.07 884.29 C 697.81 866.74 719.13 834.30 719.13 797.32 L 719.13 761.04 C 719.13 753.35 712.84 747.06 705.15 747.06 C 697.39 747.06 691.17 753.35 691.17 761.04 L 691.17 797.32 C 691.17 837.59 655.52 870.31 611.68 870.31 L 203.26 870.31 C 159.50 870.31 123.84 837.59 123.84 797.32 L 123.84 438.32 C 123.84 436.29 123.91 434.33 124.12 432.38 L 124.12 432.10 C 124.33 430.14 124.54 428.18 124.96 426.30 C 125.24 424.34 125.73 422.38 126.29 420.50 C 126.78 418.61 127.34 416.72 128.11 414.84 C 136.50 392.05 156.98 374.29 182.43 367.93 C 182.78 367.79 183.13 367.72 183.48 367.65 C 189.77 366.11 196.41 365.34 203.27 365.34 L 611.70 365.34 C 655.53 365.34 691.19 398.06 691.19 438.33 L 691.19 587.24 C 691.19 595.00 697.41 601.22 705.17 601.22 C 712.86 601.22 719.15 595.00 719.15 587.24 L 719.15 438.32 C 719.14 401.34 697.89 368.97 666.21 351.35 Z" fill="#000000" fill-rule="nonzero" node-id="996" stroke="none" target-height="812.80005" target-width="628.9899" target-x="95.87" target-y="85.47"></path></svg>