<?xml version="1.0" standalone="no"?><!DOCTYPE svg PUBLIC "-//W3C//DTD SVG 1.1//EN" "http://www.w3.org/Graphics/SVG/1.1/DTD/svg11.dtd"><svg height="1024" node-id="1" sillyvg="true" template-height="1024" template-width="1024" version="1.1" viewBox="0 0 1024 1024" width="1024" xmlns="http://www.w3.org/2000/svg" xmlns:xlink="http://www.w3.org/1999/xlink"><defs node-id="892"></defs><g node-id="993"><path d="M 828.63 132.46 L 817.71 132.46 L 817.71 121.54 C 817.71 119.48 816.04 117.82 813.99 117.82 C 811.93 117.82 810.27 119.49 810.27 121.54 L 810.27 132.46 L 799.36 132.46 C 797.30 132.46 795.64 134.13 795.64 136.18 C 795.64 138.23 797.31 139.90 799.36 139.90 L 810.27 139.90 L 810.27 150.81 C 810.27 152.87 811.94 154.53 813.99 154.53 C 816.05 154.53 817.71 152.86 817.71 150.81 L 817.71 139.90 L 828.63 139.90 C 830.69 139.90 832.35 138.23 832.35 136.18 C 832.35 134.13 830.68 132.46 828.63 132.46 Z" fill="#e55b48" fill-rule="nonzero" group-id="1" node-id="897" stroke="none" target-height="36.71" target-width="36.7099" target-x="795.6401" target-y="117.82"></path></g><g node-id="994"><path d="M 884.21 267.98 L 880.83 271.36 L 877.45 267.98 C 876.81 267.34 875.78 267.34 875.14 267.98 C 874.50 268.62 874.50 269.65 875.14 270.29 L 878.52 273.67 L 875.14 277.05 C 874.50 277.69 874.50 278.72 875.14 279.36 C 875.78 280.00 876.81 280.00 877.45 279.36 L 880.83 275.98 L 884.21 279.36 C 884.85 280.00 885.88 280.00 886.52 279.36 C 887.16 278.72 887.16 277.69 886.52 277.05 L 883.14 273.67 L 886.52 270.29 C 887.16 269.65 887.16 268.62 886.52 267.98 C 885.88 267.35 884.85 267.35 884.21 267.98 Z" fill="#e55b48" fill-rule="nonzero" group-id="2" node-id="902" stroke="none" target-height="12.660004" target-width="12.660034" target-x="874.5" target-y="267.34"></path></g><g node-id="995"><path d="M 923.58 181.62 L 918.09 176.13 L 923.58 170.64 C 924.61 169.61 924.61 167.93 923.58 166.90 C 922.55 165.87 920.87 165.87 919.84 166.90 L 914.35 172.39 L 908.86 166.90 C 907.83 165.87 906.15 165.87 905.12 166.90 C 904.09 167.93 904.09 169.61 905.12 170.64 L 910.61 176.13 L 905.12 181.62 C 904.09 182.65 904.09 184.33 905.12 185.36 C 906.15 186.39 907.83 186.39 908.86 185.36 L 914.35 179.87 L 919.84 185.36 C 920.87 186.39 922.55 186.39 923.58 185.36 C 924.62 184.32 924.62 182.65 923.58 181.62 Z" fill="#60c46c" fill-rule="nonzero" group-id="3" node-id="907" stroke="none" target-height="20.520004" target-width="20.529968" target-x="904.09" target-y="165.87"></path></g><g node-id="996"><path d="M 787.78 232.41 L 783.69 232.41 L 783.69 228.32 C 783.69 227.55 783.06 226.92 782.29 226.92 C 781.52 226.92 780.89 227.55 780.89 228.32 L 780.89 232.41 L 776.80 232.41 C 776.03 232.41 775.40 233.04 775.40 233.81 C 775.40 234.58 776.03 235.21 776.80 235.21 L 780.89 235.21 L 780.89 239.30 C 780.89 240.07 781.52 240.70 782.29 240.70 C 783.06 240.70 783.69 240.07 783.69 239.30 L 783.69 235.21 L 787.78 235.21 C 788.55 235.21 789.18 234.58 789.18 233.81 C 789.17 233.04 788.55 232.41 787.78 232.41 Z" fill="#46bcfc" fill-rule="nonzero" group-id="4" node-id="912" stroke="none" target-height="13.780014" target-width="13.779968" target-x="775.4" target-y="226.92"></path></g><g node-id="997"><path d="M 691.84 75.10 C 691.84 73.46 690.51 72.13 688.87 72.13 L 680.34 72.13 L 687.72 67.87 C 689.14 67.05 689.63 65.23 688.81 63.81 C 687.99 62.38 686.17 61.90 684.75 62.72 L 677.37 66.98 L 681.63 59.60 C 682.45 58.18 681.96 56.36 680.54 55.54 C 679.12 54.72 677.30 55.20 676.48 56.63 L 672.22 64.01 L 672.22 55.49 C 672.22 53.85 670.89 52.52 669.25 52.52 C 667.61 52.52 666.28 53.85 666.28 55.49 L 666.28 64.02 L 662.02 56.64 C 661.20 55.21 659.38 54.73 657.96 55.55 C 656.54 56.37 656.05 58.19 656.87 59.61 L 661.13 66.99 L 653.75 62.73 C 652.33 61.91 650.51 62.39 649.69 63.82 C 648.87 65.24 649.36 67.06 650.78 67.88 L 658.16 72.14 L 649.63 72.14 C 647.99 72.14 646.66 73.47 646.66 75.11 C 646.66 76.75 647.99 78.08 649.63 78.08 L 658.15 78.08 L 650.77 82.34 C 649.35 83.16 648.86 84.98 649.68 86.40 C 650.23 87.35 651.23 87.89 652.26 87.89 C 652.77 87.89 653.28 87.76 653.74 87.49 L 661.12 83.23 L 656.86 90.61 C 656.04 92.03 656.53 93.85 657.95 94.67 C 658.42 94.94 658.93 95.07 659.43 95.07 C 660.46 95.07 661.46 94.54 662.01 93.58 L 666.27 86.20 L 666.27 94.73 C 666.27 96.37 667.60 97.70 669.24 97.70 C 670.88 97.70 672.21 96.37 672.21 94.73 L 672.21 86.20 L 676.47 93.58 C 677.02 94.53 678.02 95.07 679.05 95.07 C 679.56 95.07 680.07 94.94 680.53 94.67 C 681.95 93.85 682.44 92.03 681.62 90.61 L 677.36 83.23 L 684.74 87.49 C 685.21 87.76 685.72 87.89 686.22 87.89 C 687.25 87.89 688.25 87.36 688.80 86.40 C 689.62 84.98 689.13 83.16 687.71 82.34 L 680.33 78.08 L 688.85 78.08 C 690.51 78.08 691.84 76.75 691.84 75.10 Z" fill="#e25987" fill-rule="nonzero" group-id="5" node-id="917" stroke="none" target-height="45.179993" target-width="45.180054" target-x="646.66" target-y="52.520004"></path></g><g node-id="998"><path d="M 732.87 145.94 L 735.11 152.38 L 741.93 152.52 L 736.49 156.63 L 738.47 163.16 L 732.87 159.26 L 727.28 163.16 L 729.25 156.63 L 723.82 152.52 L 730.64 152.38 Z" fill="#fcaa3d" fill-rule="nonzero" group-id="6" node-id="922" stroke="none" target-height="17.220001" target-width="18.110107" target-x="723.81995" target-y="145.94"></path></g><g node-id="999"><path d="M 850.10 317.93 L 854.49 330.55 L 867.86 330.82 L 857.20 338.90 L 861.07 351.69 L 850.10 344.06 L 839.13 351.69 L 843.00 338.90 L 832.35 330.82 L 845.71 330.55 Z" fill="#46bcfc" fill-rule="nonzero" group-id="7" node-id="927" stroke="none" target-height="33.76001" target-width="35.51001" target-x="832.35" target-y="317.93"></path></g><g node-id="1000"><path d="M 858.05 191.64 C 858.05 193.75 857.21 195.77 855.72 197.26 C 854.23 198.75 852.21 199.59 850.10 199.59 C 847.99 199.59 845.97 198.75 844.48 197.26 C 842.99 195.77 842.15 193.75 842.15 191.64 C 842.15 189.53 842.99 187.51 844.48 186.02 C 845.97 184.53 847.99 183.69 850.10 183.69 C 852.21 183.69 854.23 184.53 855.72 186.02 C 857.21 187.51 858.05 189.53 858.05 191.64 Z" fill="#fcaa3d" fill-rule="nonzero" group-id="8" node-id="932" stroke="none" target-height="15.900009" target-width="15.900024" target-x="842.14996" target-y="183.68999"></path></g><g node-id="1001"><path d="M 653.66 145.09 C 653.66 147.98 651.32 150.32 648.43 150.32 C 645.54 150.32 643.20 147.98 643.20 145.09 C 643.20 142.20 645.54 139.86 648.43 139.86 C 651.32 139.86 653.66 142.20 653.66 145.09 Z" fill="#46bcfc" fill-rule="nonzero" group-id="9" node-id="937" stroke="none" target-height="10.459991" target-width="10.459961" target-x="643.2" target-y="139.86"></path></g><g node-id="1002"><path d="M 221.44 963.19 L 232.32 958.22 L 237.29 969.10 C 238.23 971.15 240.65 972.05 242.70 971.12 C 244.75 970.18 245.65 967.76 244.72 965.71 L 239.75 954.83 L 250.63 949.86 C 252.68 948.92 253.58 946.50 252.65 944.45 C 251.72 942.40 249.29 941.50 247.24 942.43 L 236.36 947.40 L 231.39 936.52 C 230.45 934.47 228.03 933.57 225.98 934.50 C 223.93 935.44 223.03 937.86 223.96 939.91 L 228.93 950.79 L 218.05 955.76 C 216.00 956.70 215.10 959.12 216.03 961.17 C 216.97 963.22 219.39 964.13 221.44 963.19 Z" fill="#60c46c" fill-rule="nonzero" group-id="10" node-id="942" stroke="none" target-height="38.48004" target-width="38.479996" target-x="215.1" target-y="933.57"></path></g><g node-id="1003"><path d="M 114.84 869.97 L 118.50 860.14 L 128.33 863.80 C 130.18 864.49 132.24 863.55 132.93 861.70 C 133.62 859.85 132.68 857.79 130.83 857.10 L 121.00 853.44 L 124.66 843.61 C 125.35 841.76 124.41 839.70 122.56 839.01 C 120.71 838.32 118.65 839.26 117.96 841.11 L 114.30 850.94 L 104.47 847.28 C 102.62 846.59 100.56 847.53 99.87 849.38 C 99.18 851.23 100.12 853.29 101.97 853.98 L 111.80 857.64 L 108.14 867.47 C 107.45 869.32 108.39 871.38 110.24 872.07 C 112.09 872.77 114.15 871.82 114.84 869.97 Z" fill="#e55b48" fill-rule="nonzero" group-id="11" node-id="947" stroke="none" target-height="34.44995" target-width="34.439995" target-x="99.18" target-y="838.32007"></path></g><g node-id="1004"><path d="M 115.77 957.04 L 123.04 959.75 L 120.33 967.02 C 119.82 968.39 120.52 969.91 121.89 970.42 C 123.26 970.93 124.78 970.23 125.29 968.86 L 128.00 961.59 L 135.27 964.30 C 136.64 964.81 138.16 964.11 138.67 962.74 C 139.18 961.37 138.48 959.85 137.11 959.34 L 129.84 956.63 L 132.55 949.36 C 133.06 947.99 132.36 946.47 130.99 945.96 C 129.62 945.45 128.10 946.15 127.59 947.52 L 124.88 954.79 L 117.61 952.08 C 116.24 951.57 114.72 952.27 114.21 953.64 C 113.71 955.00 114.40 956.53 115.77 957.04 Z" fill="#fcaa3d" fill-rule="nonzero" group-id="12" node-id="952" stroke="none" target-height="25.47998" target-width="25.469994" target-x="113.71" target-y="945.45"></path></g><g node-id="1005"><path d="M 218.19 854.40 L 221.91 852.70 L 223.61 856.42 C 223.93 857.12 224.76 857.43 225.46 857.11 C 226.16 856.79 226.47 855.96 226.15 855.26 L 224.45 851.54 L 228.17 849.84 C 228.87 849.52 229.18 848.69 228.86 847.99 C 228.54 847.29 227.71 846.98 227.01 847.30 L 223.29 849.00 L 221.59 845.28 C 221.27 844.58 220.44 844.27 219.74 844.59 C 219.04 844.91 218.73 845.74 219.05 846.44 L 220.75 850.16 L 217.03 851.86 C 216.33 852.18 216.02 853.01 216.34 853.71 C 216.66 854.41 217.49 854.72 218.19 854.40 Z" fill="#46bcfc" fill-rule="nonzero" group-id="13" node-id="957" stroke="none" target-height="13.159912" target-width="13.159988" target-x="216.02" target-y="844.2701"></path></g><g node-id="1006"><path d="M 342.04 948.30 C 342.53 949.37 343.79 949.84 344.86 949.35 L 350.41 946.81 L 346.87 951.78 C 346.19 952.74 346.41 954.07 347.37 954.75 C 348.33 955.43 349.66 955.21 350.34 954.25 L 353.88 949.28 L 353.30 955.35 C 353.19 956.52 354.05 957.56 355.22 957.67 C 356.39 957.78 357.43 956.92 357.54 955.75 L 358.12 949.68 L 360.66 955.23 C 361.15 956.30 362.41 956.77 363.48 956.28 C 364.55 955.79 365.02 954.53 364.53 953.46 L 361.99 947.91 L 366.96 951.45 C 367.92 952.13 369.25 951.91 369.93 950.95 C 370.61 949.99 370.39 948.66 369.43 947.98 L 364.46 944.44 L 370.53 945.02 C 371.70 945.13 372.74 944.28 372.85 943.10 C 372.96 941.93 372.10 940.89 370.93 940.78 L 364.85 940.20 L 370.40 937.66 C 371.47 937.17 371.94 935.91 371.45 934.84 C 370.96 933.77 369.70 933.30 368.63 933.79 L 363.08 936.33 L 366.62 931.36 C 367.30 930.40 367.08 929.07 366.12 928.39 C 365.48 927.93 364.67 927.88 364.00 928.19 C 363.67 928.34 363.38 928.58 363.15 928.89 L 359.61 933.86 L 360.19 927.79 C 360.30 926.62 359.44 925.58 358.27 925.47 C 357.89 925.43 357.51 925.50 357.19 925.65 C 356.52 925.96 356.03 926.60 355.95 927.38 L 355.37 933.46 L 352.83 927.91 C 352.34 926.84 351.08 926.37 350.01 926.86 C 348.94 927.35 348.47 928.61 348.96 929.68 L 351.49 935.23 L 346.52 931.69 C 345.88 931.23 345.07 931.18 344.40 931.49 C 344.07 931.64 343.78 931.88 343.55 932.19 C 342.87 933.15 343.09 934.48 344.05 935.16 L 349.02 938.70 L 342.95 938.12 C 342.57 938.08 342.19 938.15 341.87 938.30 C 341.20 938.61 340.71 939.25 340.63 940.03 C 340.52 941.20 341.38 942.24 342.55 942.35 L 348.62 942.93 L 343.07 945.46 C 342.02 945.97 341.55 947.23 342.04 948.30 Z" fill="#46bcfc" fill-rule="nonzero" group-id="14" node-id="962" stroke="none" target-height="32.350037" target-width="32.440033" target-x="340.52" target-y="925.43"></path></g><g node-id="1007"><path d="M 304.06 910.23 L 299.35 905.31 L 293.10 908.01 L 296.32 902.01 L 291.82 896.89 L 298.52 898.11 L 302.00 892.24 L 302.91 899.00 L 309.56 900.49 L 303.42 903.45 Z" fill="#fcaa3d" fill-rule="nonzero" group-id="15" node-id="967" stroke="none" target-height="17.990051" target-width="17.73999" target-x="291.82" target-y="892.2399"></path></g><g node-id="1008"><path d="M 122.83 795.66 L 117.72 790.31 L 110.93 793.25 L 114.43 786.74 L 109.54 781.19 L 116.82 782.51 L 120.58 776.14 L 121.58 783.47 L 128.79 785.08 L 122.13 788.29 Z" fill="#e55b48" fill-rule="nonzero" group-id="16" node-id="972" stroke="none" target-height="19.52002" target-width="19.249992" target-x="109.54" target-y="776.13995"></path></g><g node-id="1009"><path d="M 186.39 917.38 C 186.39 919.49 185.55 921.51 184.06 923.00 C 182.57 924.49 180.55 925.33 178.44 925.33 C 176.33 925.33 174.31 924.49 172.82 923.00 C 171.33 921.51 170.49 919.49 170.49 917.38 C 170.49 915.27 171.33 913.25 172.82 911.76 C 174.31 910.27 176.33 909.43 178.44 909.43 C 180.55 909.43 182.57 910.27 184.06 911.76 C 185.55 913.25 186.39 915.27 186.39 917.38 Z" fill="#fcaa3d" fill-rule="nonzero" group-id="17" node-id="977" stroke="none" target-height="15.899963" target-width="15.899994" target-x="170.49" target-y="909.43"></path></g><g node-id="1010"><path d="M 379.97 886.82 C 379.97 889.71 377.63 892.05 374.74 892.05 C 371.85 892.05 369.51 889.71 369.51 886.82 C 369.51 883.93 371.85 881.59 374.74 881.59 C 377.63 881.59 379.97 883.93 379.97 886.82 Z" fill="#46bcfc" fill-rule="nonzero" group-id="18" node-id="982" stroke="none" target-height="10.459961" target-width="10.460022" target-x="369.50998" target-y="881.59"></path></g><path d="M 778.17 477.58 C 778.17 585.10 709.66 677.81 610.73 710.81 L 579.13 710.81 C 578.99 709.62 578.78 708.50 578.57 707.31 C 660.79 663.69 716.79 577.20 716.79 477.58 C 716.79 363.69 643.45 266.87 541.45 231.84 C 552.22 232.19 562.91 233.31 573.47 235.06 C 692.11 255.12 778.17 357.05 778.17 477.58 Z" fill="#ef4e0f" fill-rule="nonzero" node-id="985" stroke="none" target-height="478.97" target-width="236.71997" target-x="541.45" target-y="231.84"></path><path d="M 562.84 518.12 C 557.53 529.73 545.78 537.77 532.22 537.77 C 518.73 537.77 506.98 529.73 501.67 518.12 L 562.84 518.12 Z" fill="#ffffff" fill-rule="nonzero" node-id="987" stroke="none" target-height="19.650024" target-width="61.170013" target-x="501.67" target-y="518.12"></path><path d="M 570.67 778.90 L 512.15 778.90 C 512.15 728.21 470.97 687.11 420.29 687.11 C 390.86 687.11 364.64 701.09 347.86 722.69 C 326.82 677.95 281.65 646.84 229.01 646.56 C 208.46 666.27 195.59 693.96 195.52 724.58 L 195.52 725.07 C 195.52 732.41 189.86 738.49 182.52 739.05 C 153.16 741.15 130.23 765.76 130.23 795.12 C 130.23 826.16 155.47 851.40 186.51 851.40 L 438.26 851.40 C 445.95 851.40 452.24 857.69 452.24 865.38 L 481.53 865.38 C 481.53 857.69 487.75 851.40 495.51 851.40 L 545.08 851.40 C 552.77 851.40 559.06 857.69 559.06 865.38 L 571.22 865.38 C 571.22 857.69 577.51 851.40 585.20 851.40 L 620.30 851.40 C 629.53 851.40 638.27 849.16 645.96 845.18 C 641.21 807.91 609.19 778.90 570.67 778.90 Z M 878.49 458.14 C 872.34 375.29 827.38 303.21 761.67 260.15 C 753.63 254.91 745.31 250.01 736.71 245.75 C 701.47 227.78 661.62 217.72 619.33 217.72 L 618.98 217.72 C 729.58 254.21 806.13 357.61 806.13 477.58 C 806.13 582.31 747.75 674.45 659.38 720.52 C 665.11 723.53 670.43 727.16 675.32 731.43 C 700.70 725.84 724.75 716.54 746.77 704.16 C 755.09 699.48 763.20 694.30 770.89 688.71 C 834.30 643.13 876.39 569.58 878.97 486.11 C 879.11 483.31 879.18 480.45 879.18 477.58 C 879.19 471.00 878.98 464.57 878.49 458.14 Z M 541.45 231.84 C 539.28 231.77 537.12 231.70 534.95 231.70 C 432.80 266.72 359.40 363.55 359.40 477.58 C 359.40 541.97 382.75 600.83 421.62 646.21 C 438.61 633.21 459.37 626.01 481.32 626.01 C 529.91 626.01 570.32 661.18 578.57 707.32 C 660.79 663.70 716.79 577.21 716.79 477.59 C 716.79 363.69 643.45 266.86 541.45 231.84 Z M 532.22 537.77 C 518.73 537.77 506.98 529.73 501.67 518.12 L 562.84 518.12 C 557.53 529.73 545.78 537.77 532.22 537.77 Z" fill="#f2a536" fill-rule="nonzero" node-id="989" stroke="none" target-height="647.66003" target-width="748.96" target-x="130.23" target-y="217.71999"></path><path d="M 391.35 258.68 C 386.88 252.39 378.14 251.06 371.84 255.53 C 358.98 264.83 346.88 275.32 335.77 286.71 C 330.39 292.30 330.53 301.11 336.05 306.50 C 338.78 309.16 342.27 310.49 345.84 310.49 C 349.48 310.49 353.11 309.02 355.84 306.23 C 365.77 296.02 376.67 286.58 388.21 278.20 C 394.49 273.64 395.89 264.90 391.35 258.68 Z M 317.17 330.90 C 310.60 326.91 302.00 329.01 298.01 335.58 C 286.12 355.16 276.76 376.06 270.12 397.87 C 267.88 405.21 272.08 413.04 279.49 415.28 C 280.82 415.70 282.15 415.91 283.55 415.91 C 289.49 415.91 295.09 411.99 296.90 405.98 C 302.84 386.40 311.23 367.67 321.86 350.12 C 325.91 343.48 323.81 334.89 317.17 330.90 Z M 222.44 469.12 L 166.51 469.12 C 158.82 469.12 152.53 475.41 152.53 483.10 C 152.53 490.86 158.82 497.08 166.51 497.08 L 222.44 497.08 C 230.13 497.08 236.42 490.86 236.42 483.10 C 236.42 475.41 230.13 469.12 222.44 469.12 Z M 319.20 252.53 L 279.63 213.03 C 274.18 207.58 265.30 207.58 259.84 213.03 C 254.39 218.48 254.39 227.36 259.84 232.81 L 299.41 272.31 C 302.14 275.04 305.70 276.43 309.27 276.43 C 312.84 276.43 316.40 275.03 319.20 272.31 C 324.65 266.86 324.65 257.98 319.20 252.53 Z M 526.70 97.88 C 519.01 97.88 512.72 104.17 512.72 111.86 L 512.72 167.79 C 512.72 175.48 519.01 181.77 526.70 181.77 C 534.46 181.77 540.68 175.48 540.68 167.79 L 540.68 111.86 C 540.68 104.18 534.46 97.88 526.70 97.88 Z M 796.84 205.20 C 791.39 199.75 782.51 199.75 777.05 205.20 L 737.55 244.77 C 737.27 245.05 736.92 245.40 736.71 245.75 C 732.10 251.20 732.38 259.31 737.55 264.56 C 740.28 267.29 743.84 268.61 747.41 268.61 C 750.98 268.61 754.61 267.28 757.34 264.56 L 761.67 260.16 L 796.84 224.99 C 802.29 219.53 802.29 210.65 796.84 205.20 Z M 898.00 458.14 L 842.07 458.14 C 834.31 458.14 828.09 464.36 828.09 472.12 C 828.09 479.81 834.31 486.10 842.07 486.10 L 898.00 486.10 C 905.69 486.10 911.98 479.81 911.98 472.12 C 911.98 464.36 905.69 458.14 898.00 458.14 Z M 804.67 722.41 L 770.90 688.71 L 765.10 682.91 C 759.65 677.46 750.84 677.46 745.31 682.91 C 739.86 688.36 739.86 697.17 745.31 702.70 L 746.78 704.17 L 784.88 742.20 C 787.61 744.93 791.17 746.32 794.74 746.32 C 798.38 746.32 801.94 744.92 804.67 742.20 C 810.12 736.74 810.12 727.86 804.67 722.41 Z M 806.13 477.58 C 806.13 357.61 729.58 254.21 618.98 217.72 C 605.84 213.32 592.13 209.89 578.08 207.51 C 563.05 204.99 547.60 203.66 532.22 203.66 C 500.48 203.66 469.37 209.04 439.73 219.74 C 432.46 222.33 428.68 230.30 431.27 237.57 C 433.86 244.84 441.90 248.62 449.17 246.03 C 475.74 236.45 503.70 231.63 532.23 231.63 C 533.14 231.63 534.05 231.63 534.96 231.70 C 537.13 231.70 539.29 231.77 541.46 231.84 C 552.23 232.19 562.92 233.31 573.48 235.06 C 692.12 255.12 778.18 357.06 778.18 477.58 C 778.18 585.10 709.67 677.81 610.74 710.81 L 579.14 710.81 C 579.00 709.62 578.79 708.50 578.58 707.31 C 570.33 661.17 529.92 626.00 481.33 626.00 C 459.38 626.00 438.61 633.20 421.63 646.20 C 420.16 647.32 418.76 648.44 417.37 649.63 C 394.02 614.53 355.29 591.81 313.06 588.88 C 296.00 555.39 286.35 517.64 286.35 477.58 L 286.35 473.66 C 286.49 465.97 280.34 459.61 272.58 459.47 C 264.82 459.47 258.53 465.55 258.39 473.24 L 258.39 477.57 C 258.39 517.77 267.13 555.87 282.72 590.27 C 221.41 599.92 173.45 650.39 168.06 712.97 C 130.31 721.50 102.27 755.41 102.27 795.12 C 102.27 841.54 140.09 879.36 186.51 879.36 L 438.26 879.36 C 445.95 879.36 452.24 873.07 452.24 865.38 C 452.24 857.69 445.95 851.40 438.26 851.40 L 186.50 851.40 C 155.46 851.40 130.22 826.16 130.22 795.12 C 130.22 765.76 153.15 741.15 182.51 739.05 C 189.85 738.49 195.51 732.41 195.51 725.07 L 195.51 724.58 C 195.58 693.96 208.44 666.27 229.00 646.56 C 246.83 629.57 270.46 618.60 296.53 616.85 C 298.91 616.71 301.35 616.50 303.80 616.50 C 313.52 616.50 323.03 617.90 332.18 620.42 C 362.24 628.67 388.04 649.78 401.74 678.80 C 403.84 683.20 408.03 686.21 412.86 686.77 C 417.68 687.33 422.44 685.30 425.44 681.46 C 429.91 675.66 435.16 670.69 440.96 666.64 C 452.64 658.46 466.62 653.99 481.30 653.99 C 518.63 653.99 549.25 683.07 551.91 719.57 C 552.05 720.62 552.12 721.74 552.12 722.79 C 552.12 723.49 552.19 724.12 552.19 724.82 C 552.19 726.29 552.40 727.69 552.82 728.94 C 554.57 734.67 559.88 738.80 566.17 738.80 L 620.28 738.80 C 651.32 738.80 676.56 764.11 676.56 795.15 C 676.56 816.96 664.12 835.91 645.94 845.21 C 638.25 849.19 629.51 851.43 620.28 851.43 L 585.18 851.43 C 577.49 851.43 571.20 857.72 571.20 865.41 C 571.20 873.10 577.49 879.39 585.18 879.39 L 620.28 879.39 C 666.70 879.39 704.52 841.57 704.52 795.15 C 704.52 769.70 693.19 746.84 675.30 731.46 C 670.41 727.20 665.09 723.56 659.36 720.55 C 747.76 674.45 806.13 582.30 806.13 477.58 Z M 579.83 490.16 L 484.61 490.16 C 476.92 490.16 470.63 496.45 470.63 504.14 C 470.63 538.12 498.31 565.73 532.22 565.73 C 566.20 565.73 593.81 538.12 593.81 504.14 C 593.81 496.45 587.59 490.16 579.83 490.16 Z M 532.22 537.77 C 518.73 537.77 506.98 529.73 501.67 518.12 L 562.84 518.12 C 557.53 529.73 545.78 537.77 532.22 537.77 Z M 617.16 403.47 C 606.25 403.47 597.38 412.35 597.38 423.26 C 597.38 434.17 606.26 443.04 617.16 443.04 C 628.06 443.04 636.95 434.16 636.95 423.26 C 636.95 412.35 628.07 403.47 617.16 403.47 Z M 447.35 403.47 C 436.44 403.47 427.56 412.35 427.56 423.26 C 427.56 434.17 436.44 443.04 447.35 443.04 C 458.26 443.04 467.14 434.16 467.14 423.26 C 467.13 412.35 458.25 403.47 447.35 403.47 Z M 559.07 865.38 C 559.07 873.07 552.78 879.36 545.09 879.36 L 495.52 879.36 C 487.76 879.36 481.54 873.07 481.54 865.38 C 481.54 857.69 487.76 851.40 495.52 851.40 L 545.09 851.40 C 552.77 851.40 559.07 857.69 559.07 865.38 Z" fill="#000000" fill-rule="nonzero" node-id="991" stroke="none" target-height="781.50995" target-width="809.70996" target-x="102.27" target-y="97.87999"></path></svg>